<?xml version="1.0" encoding="utf-8"?>
<!-- Generator: Adobe Illustrator 20.1.0, SVG Export Plug-In . SVG Version: 6.00 Build 0)  -->
<svg version="1.1" id="Layer_1" xmlns="http://www.w3.org/2000/svg" xmlns:xlink="http://www.w3.org/1999/xlink" x="0px" y="0px"
	 viewBox="0 0 20 20" style="enable-background:new 0 0 20 20;" xml:space="preserve">
<style type="text/css">
	.st0{fill:#4B2B76;}
	.st1{fill:#459E0F;}
	.st2{fill-rule:evenodd;clip-rule:evenodd;fill:#FFFFFF;}
	.st3{fill-rule:evenodd;clip-rule:evenodd;fill:#FF580E;}
</style>
<g>
	<path class="st0" d="M11.2,19c0,0.5,0.4,1,1,1H19c0.5,0,1-0.4,1-1V1c0-0.5-0.4-1-1-1h-6.8c-0.5,0-1,0.4-1,1V19z"/>
	<path class="st1" d="M8.8,19c0,0.5-0.4,1-1,1H1c-0.5,0-1-0.4-1-1V1c0-0.5,0.4-1,1-1h6.8c0.5,0,1,0.4,1,1V19z"/>
	<g>
		<g>
			<path class="st2" d="M7.2,3.6c0,0.3-0.3,0.5-0.6,0.5H2.1c-0.3,0-0.6-0.2-0.6-0.5s0.3-0.5,0.6-0.5h4.5C6.9,3.1,7.2,3.4,7.2,3.6z"
				/>
		</g>
		<g>
			<path class="st2" d="M7.3,6.8c0,0.3-0.3,0.5-0.6,0.5H2.1c-0.3,0-0.6-0.2-0.6-0.5s0.3-0.5,0.6-0.5h4.7C7.1,6.3,7.3,6.5,7.3,6.8z"
				/>
		</g>
		<g>
			<path class="st2" d="M7.3,10c0,0.3-0.3,0.5-0.6,0.5H2.1c-0.3,0-0.6-0.2-0.6-0.5c0-0.3,0.3-0.5,0.6-0.5h4.7
				C7.1,9.5,7.3,9.7,7.3,10z"/>
		</g>
		<g>
			<path class="st2" d="M7.3,13.3c0,0.3-0.3,0.5-0.6,0.5H2.1c-0.3,0-0.6-0.2-0.6-0.5c0-0.3,0.3-0.5,0.6-0.5h4.7
				C7.1,12.8,7.3,13,7.3,13.3z"/>
		</g>
		<g>
			<path class="st2" d="M7.3,16.4c0,0.3-0.3,0.5-0.6,0.5H2.1c-0.3,0-0.6-0.2-0.6-0.5s0.3-0.5,0.6-0.5h4.7
				C7.1,15.9,7.3,16.1,7.3,16.4z"/>
		</g>
	</g>
	<g>
		<g>
			<path class="st2" d="M18.4,3.6c0,0.3-0.3,0.5-0.6,0.5h-4.5c-0.3,0-0.6-0.2-0.6-0.5s0.3-0.5,0.6-0.5h4.5
				C18.1,3.1,18.4,3.3,18.4,3.6z"/>
		</g>
		<g>
			<path class="st2" d="M18.6,6.8c0,0.3-0.3,0.5-0.6,0.5h-4.7c-0.3,0-0.6-0.2-0.6-0.5s0.3-0.5,0.6-0.5h4.7
				C18.3,6.3,18.6,6.5,18.6,6.8z"/>
		</g>
		<g>
			<path class="st2" d="M18.6,9.9c0,0.3-0.3,0.5-0.6,0.5h-4.7c-0.3,0-0.6-0.2-0.6-0.5c0-0.3,0.3-0.5,0.6-0.5h4.7
				C18.3,9.4,18.6,9.7,18.6,9.9z"/>
		</g>
		<g>
			<path class="st2" d="M18.6,13.2c0,0.3-0.3,0.5-0.6,0.5h-4.7c-0.3,0-0.6-0.2-0.6-0.5c0-0.3,0.3-0.5,0.6-0.5h4.7
				C18.3,12.7,18.6,13,18.6,13.2z"/>
		</g>
		<g>
			<path class="st2" d="M18.6,16.4c0,0.3-0.3,0.5-0.6,0.5h-4.7c-0.3,0-0.6-0.2-0.6-0.5s0.3-0.5,0.6-0.5h4.7
				C18.3,15.9,18.6,16.1,18.6,16.4z"/>
		</g>
	</g>
	<g>
		<path class="st2" d="M10.4,13.8c-0.3,0-0.6-0.1-0.8-0.3c-0.2-0.2-0.4-0.5-0.4-0.8v-0.6H6.9c-0.6,0-1.1-0.5-1.1-1.1V9.1
			c0-0.6,0.5-1.1,1.1-1.1h2.3V7.2c0-0.6,0.5-1.1,1.1-1.1c0.3,0,0.6,0.1,0.8,0.3l2.7,2.7c0.2,0.2,0.3,0.5,0.3,0.8
			c0,0.3-0.1,0.6-0.3,0.8l-2.7,2.7C11,13.7,10.7,13.8,10.4,13.8z"/>
		<path class="st3" d="M10.7,6.9l2.7,2.7c0.2,0.2,0.2,0.5,0,0.6L10.7,13c-0.3,0.3-0.8,0.1-0.8-0.3v-1.3h-3c-0.2,0-0.4-0.2-0.4-0.4
			V9.1c0-0.2,0.2-0.4,0.4-0.4h3V7.2C9.9,6.8,10.4,6.6,10.7,6.9z"/>
	</g>
</g>
</svg>
