<?xml version="1.0" encoding="UTF-8" standalone="no"?>
<!DOCTYPE svg PUBLIC "-//W3C//DTD SVG 1.1//EN"
 "http://www.w3.org/Graphics/SVG/1.1/DTD/svg11.dtd">
<!-- Generated by graphviz version 2.44.1 (20200629.0846)
 -->
<!-- Title: G Pages: 1 -->
<svg width="1296pt" height="1246pt"
 viewBox="0.00 0.00 1296.23 1245.79" xmlns="http://www.w3.org/2000/svg" xmlns:xlink="http://www.w3.org/1999/xlink">
<g id="graph0" class="graph" transform="scale(1 1) rotate(0) translate(4 1241.79)">
<title>G</title><style>.edge>path:hover{stroke-width:8}</style>
<polygon fill="white" stroke="transparent" points="-4,4 -4,-1241.79 1292.23,-1241.79 1292.23,4 -4,4"/>
<!-- jinja2 -->
<g id="node1" class="node">
<title>jinja2</title><style>.edge>path:hover{stroke-width:8}</style>
<ellipse fill="#c24747" stroke="black" cx="552.21" cy="-802.3" rx="27" ry="18"/>
<text text-anchor="middle" x="552.21" y="-799.8" font-family="Helvetica,sans-Serif" font-size="10.00" fill="#ffffff">jinja2</text>
</g>
<!-- src_edc_utilities_edc_lineage -->
<g id="node13" class="node">
<title>src_edc_utilities_edc_lineage</title><style>.edge>path:hover{stroke-width:8}</style>
<ellipse fill="#262673" stroke="black" cx="466.21" cy="-332.38" rx="50.41" ry="28.98"/>
<text text-anchor="middle" x="466.21" y="-340.88" font-family="Helvetica,sans-Serif" font-size="10.00" fill="#ffffff">src.</text>
<text text-anchor="middle" x="466.21" y="-329.88" font-family="Helvetica,sans-Serif" font-size="10.00" fill="#ffffff">edc_utilities.</text>
<text text-anchor="middle" x="466.21" y="-318.88" font-family="Helvetica,sans-Serif" font-size="10.00" fill="#ffffff">edc_lineage</text>
</g>
<!-- jinja2&#45;&gt;src_edc_utilities_edc_lineage -->
<g id="edge1" class="edge">
<title>jinja2&#45;&gt;src_edc_utilities_edc_lineage</title><style>.edge>path:hover{stroke-width:8}</style>
<path fill="none" stroke="black" d="M536.3,-787.33C508.11,-761.69 449.41,-704.11 418.21,-643.32 378.88,-566.71 381.73,-540.82 371.21,-455.36 368.06,-429.78 359.1,-420.12 371.21,-397.37 380.99,-378.99 398.67,-364.93 416.15,-354.75"/>
<polygon fill="#c24747" stroke="black" points="418.14,-357.64 425.23,-349.77 414.78,-351.51 418.14,-357.64"/>
</g>
<!-- src_metadata_utilities_generic -->
<g id="node18" class="node">
<title>src_metadata_utilities_generic</title><style>.edge>path:hover{stroke-width:8}</style>
<ellipse fill="#0a0acc" stroke="black" cx="562.21" cy="-520.35" rx="67.76" ry="28.98"/>
<text text-anchor="middle" x="562.21" y="-528.85" font-family="Helvetica,sans-Serif" font-size="10.00" fill="#ffffff">src.</text>
<text text-anchor="middle" x="562.21" y="-517.85" font-family="Helvetica,sans-Serif" font-size="10.00" fill="#ffffff">metadata_utilities.</text>
<text text-anchor="middle" x="562.21" y="-506.85" font-family="Helvetica,sans-Serif" font-size="10.00" fill="#ffffff">generic</text>
</g>
<!-- jinja2&#45;&gt;src_metadata_utilities_generic -->
<g id="edge2" class="edge">
<title>jinja2&#45;&gt;src_metadata_utilities_generic</title><style>.edge>path:hover{stroke-width:8}</style>
<path fill="none" stroke="black" d="M565.89,-786.13C593.59,-753.48 651.01,-674.7 618.21,-615.33"/>
<path fill="none" stroke="black" d="M618.21,-613.33C608.15,-594.56 595.95,-574.28 585.51,-557.56"/>
<polygon fill="#c24747" stroke="black" points="588.21,-555.26 579.92,-548.66 582.28,-558.99 588.21,-555.26"/>
</g>
<!-- jsonschema -->
<g id="node2" class="node">
<title>jsonschema</title><style>.edge>path:hover{stroke-width:8}</style>
<ellipse fill="#cccc33" stroke="black" cx="325.21" cy="-708.31" rx="40.74" ry="18"/>
<text text-anchor="middle" x="325.21" y="-705.81" font-family="Helvetica,sans-Serif" font-size="10.00" fill="#000000">jsonschema</text>
</g>
<!-- src_metadata_utilities_check_schema -->
<g id="node17" class="node">
<title>src_metadata_utilities_check_schema</title><style>.edge>path:hover{stroke-width:8}</style>
<ellipse fill="#3838a8" stroke="black" cx="256.21" cy="-426.37" rx="67.76" ry="28.98"/>
<text text-anchor="middle" x="256.21" y="-434.87" font-family="Helvetica,sans-Serif" font-size="10.00" fill="#ffffff">src.</text>
<text text-anchor="middle" x="256.21" y="-423.87" font-family="Helvetica,sans-Serif" font-size="10.00" fill="#ffffff">metadata_utilities.</text>
<text text-anchor="middle" x="256.21" y="-412.87" font-family="Helvetica,sans-Serif" font-size="10.00" fill="#ffffff">check_schema</text>
</g>
<!-- jsonschema&#45;&gt;src_metadata_utilities_check_schema -->
<g id="edge3" class="edge">
<title>jsonschema&#45;&gt;src_metadata_utilities_check_schema</title><style>.edge>path:hover{stroke-width:8}</style>
<path fill="none" stroke="black" d="M320.99,-690.22C310.1,-646.01 280.77,-527.02 265.59,-465.45"/>
<polygon fill="#cccc33" stroke="black" points="268.9,-464.23 263.11,-455.36 262.1,-465.91 268.9,-464.23"/>
</g>
<!-- src_metadata_utilities_validate_schema -->
<g id="node26" class="node">
<title>src_metadata_utilities_validate_schema</title><style>.edge>path:hover{stroke-width:8}</style>
<ellipse fill="#3d3d8f" stroke="black" cx="448.21" cy="-426.37" rx="67.76" ry="28.98"/>
<text text-anchor="middle" x="448.21" y="-434.87" font-family="Helvetica,sans-Serif" font-size="10.00" fill="#ffffff">src.</text>
<text text-anchor="middle" x="448.21" y="-423.87" font-family="Helvetica,sans-Serif" font-size="10.00" fill="#ffffff">metadata_utilities.</text>
<text text-anchor="middle" x="448.21" y="-412.87" font-family="Helvetica,sans-Serif" font-size="10.00" fill="#ffffff">validate_schema</text>
</g>
<!-- jsonschema&#45;&gt;src_metadata_utilities_validate_schema -->
<g id="edge4" class="edge">
<title>jsonschema&#45;&gt;src_metadata_utilities_validate_schema</title><style>.edge>path:hover{stroke-width:8}</style>
<path fill="none" stroke="black" d="M448.21,-519.35C440.05,-503.02 439.18,-482.94 440.71,-465.71"/>
<polygon fill="#cccc33" stroke="black" points="444.23,-465.75 441.93,-455.41 437.28,-464.93 444.23,-465.75"/>
<path fill="none" stroke="black" d="M432.21,-613.33C446.16,-574.25 466.74,-558.47 448.21,-521.35"/>
<path fill="none" stroke="black" d="M351.99,-694.6C379.07,-679.94 418.77,-652.93 432.21,-615.33"/>
</g>
<!-- opencensus -->
<g id="node3" class="node">
<title>opencensus</title><style>.edge>path:hover{stroke-width:8}</style>
<ellipse fill="#47c247" stroke="black" cx="1095.21" cy="-990.26" rx="40.74" ry="18"/>
<text text-anchor="middle" x="1095.21" y="-987.76" font-family="Helvetica,sans-Serif" font-size="10.00" fill="#000000">opencensus</text>
</g>
<!-- src_metadata_utilities_mu_logging -->
<g id="node25" class="node">
<title>src_metadata_utilities_mu_logging</title><style>.edge>path:hover{stroke-width:8}</style>
<ellipse fill="#0909af" stroke="black" cx="1068.21" cy="-708.31" rx="67.76" ry="28.98"/>
<text text-anchor="middle" x="1068.21" y="-716.81" font-family="Helvetica,sans-Serif" font-size="10.00" fill="#ffffff">src.</text>
<text text-anchor="middle" x="1068.21" y="-705.81" font-family="Helvetica,sans-Serif" font-size="10.00" fill="#ffffff">metadata_utilities.</text>
<text text-anchor="middle" x="1068.21" y="-694.81" font-family="Helvetica,sans-Serif" font-size="10.00" fill="#ffffff">mu_logging</text>
</g>
<!-- opencensus&#45;&gt;src_metadata_utilities_mu_logging -->
<g id="edge5" class="edge">
<title>opencensus&#45;&gt;src_metadata_utilities_mu_logging</title><style>.edge>path:hover{stroke-width:8}</style>
<path fill="none" stroke="black" d="M1072.53,-975.04C1049.37,-958.51 1017.89,-929.36 1026.21,-897.28"/>
</g>
<!-- opencensus_ext -->
<g id="node4" class="node">
<title>opencensus_ext</title><style>.edge>path:hover{stroke-width:8}</style>
<ellipse fill="#47c247" stroke="black" cx="827.21" cy="-990.26" rx="50.75" ry="18"/>
<text text-anchor="middle" x="827.21" y="-987.76" font-family="Helvetica,sans-Serif" font-size="10.00" fill="#000000">opencensus.ext</text>
</g>
<!-- opencensus_ext&#45;&gt;src_metadata_utilities_mu_logging -->
<g id="edge6" class="edge">
<title>opencensus_ext&#45;&gt;src_metadata_utilities_mu_logging</title><style>.edge>path:hover{stroke-width:8}</style>
<path fill="none" stroke="black" d="M855.26,-975.23C865.22,-970.5 876.6,-965.39 887.21,-961.27 950.61,-936.68 1009.14,-963.11 1026.21,-897.28"/>
<path fill="none" stroke="black" d="M1026.21,-895.28C1039.38,-844.47 1052.35,-785.24 1060.31,-747.53"/>
<polygon fill="#47c247" stroke="black" points="1063.79,-747.99 1062.42,-737.49 1056.94,-746.55 1063.79,-747.99"/>
</g>
<!-- opencensus_ext_azure -->
<g id="node5" class="node">
<title>opencensus_ext_azure</title><style>.edge>path:hover{stroke-width:8}</style>
<ellipse fill="#47c247" stroke="black" cx="947.21" cy="-990.26" rx="50.82" ry="28.98"/>
<text text-anchor="middle" x="947.21" y="-998.76" font-family="Helvetica,sans-Serif" font-size="10.00" fill="#000000">opencensus.</text>
<text text-anchor="middle" x="947.21" y="-987.76" font-family="Helvetica,sans-Serif" font-size="10.00" fill="#000000">ext.</text>
<text text-anchor="middle" x="947.21" y="-976.76" font-family="Helvetica,sans-Serif" font-size="10.00" fill="#000000">azure</text>
</g>
<!-- opencensus_ext_azure&#45;&gt;src_metadata_utilities_mu_logging -->
<g id="edge7" class="edge">
<title>opencensus_ext_azure&#45;&gt;src_metadata_utilities_mu_logging</title><style>.edge>path:hover{stroke-width:8}</style>
<path fill="none" stroke="black" d="M977.44,-966.57C996.53,-949.93 1018.91,-925.4 1026.21,-897.28"/>
</g>
<!-- opencensus_ext_azure_log_exporter -->
<g id="node6" class="node">
<title>opencensus_ext_azure_log_exporter</title><style>.edge>path:hover{stroke-width:8}</style>
<ellipse fill="#46a446" stroke="black" cx="1055.21" cy="-1092.02" rx="50.82" ry="36.54"/>
<text text-anchor="middle" x="1055.21" y="-1106.02" font-family="Helvetica,sans-Serif" font-size="10.00" fill="#ffffff">opencensus.</text>
<text text-anchor="middle" x="1055.21" y="-1095.02" font-family="Helvetica,sans-Serif" font-size="10.00" fill="#ffffff">ext.</text>
<text text-anchor="middle" x="1055.21" y="-1084.02" font-family="Helvetica,sans-Serif" font-size="10.00" fill="#ffffff">azure.</text>
<text text-anchor="middle" x="1055.21" y="-1073.02" font-family="Helvetica,sans-Serif" font-size="10.00" fill="#ffffff">log_exporter</text>
</g>
<!-- opencensus_ext_azure_log_exporter&#45;&gt;src_metadata_utilities_mu_logging -->
<g id="edge8" class="edge">
<title>opencensus_ext_azure_log_exporter&#45;&gt;src_metadata_utilities_mu_logging</title><style>.edge>path:hover{stroke-width:8}</style>
<path fill="none" stroke="black" d="M1039.84,-1056.62C1024.43,-1016.96 1005.68,-950.42 1026.21,-897.28"/>
</g>
<!-- requests -->
<g id="node7" class="node">
<title>requests</title><style>.edge>path:hover{stroke-width:8}</style>
<ellipse fill="#0bdfdf" stroke="black" cx="727.21" cy="-990.26" rx="31.58" ry="18"/>
<text text-anchor="middle" x="727.21" y="-987.76" font-family="Helvetica,sans-Serif" font-size="10.00" fill="#000000">requests</text>
</g>
<!-- src_edc_utilities_edc_custom_attributes -->
<g id="node12" class="node">
<title>src_edc_utilities_edc_custom_attributes</title><style>.edge>path:hover{stroke-width:8}</style>
<ellipse fill="#202083" stroke="black" cx="844.21" cy="-332.38" rx="82.05" ry="28.98"/>
<text text-anchor="middle" x="844.21" y="-340.88" font-family="Helvetica,sans-Serif" font-size="10.00" fill="#ffffff">src.</text>
<text text-anchor="middle" x="844.21" y="-329.88" font-family="Helvetica,sans-Serif" font-size="10.00" fill="#ffffff">edc_utilities.</text>
<text text-anchor="middle" x="844.21" y="-318.88" font-family="Helvetica,sans-Serif" font-size="10.00" fill="#ffffff">edc_custom_attributes</text>
</g>
<!-- requests&#45;&gt;src_edc_utilities_edc_custom_attributes -->
<g id="edge9" class="edge">
<title>requests&#45;&gt;src_edc_utilities_edc_custom_attributes</title><style>.edge>path:hover{stroke-width:8}</style>
<path fill="none" stroke="black" d="M1050.21,-519.35C1031.5,-479.27 1038.27,-463.1 1012.21,-427.37"/>
<path fill="none" stroke="black" d="M972.21,-707.31C970.99,-660.75 1031.69,-683.53 1055.21,-643.32 1082.6,-596.49 1073.15,-570.52 1050.21,-521.35"/>
</g>
<!-- requests&#45;&gt;src_edc_utilities_edc_lineage -->
<g id="edge10" class="edge">
<title>requests&#45;&gt;src_edc_utilities_edc_lineage</title><style>.edge>path:hover{stroke-width:8}</style>
<path fill="none" stroke="black" d="M160.21,-801.3C133.87,-769.16 144.01,-465.63 160.21,-427.37"/>
<path fill="none" stroke="black" d="M160.21,-425.37C166.39,-411.66 166.77,-405.83 179.21,-397.37 215.85,-372.47 334.76,-351.92 407.52,-341.27"/>
<polygon fill="#0bdfdf" stroke="black" points="408.07,-344.72 417.46,-339.83 407.07,-337.79 408.07,-344.72"/>
</g>
<!-- src_edc_utilities_edc_session_helper -->
<g id="node14" class="node">
<title>src_edc_utilities_edc_session_helper</title><style>.edge>path:hover{stroke-width:8}</style>
<ellipse fill="#2d2db4" stroke="black" cx="911.21" cy="-426.37" rx="72.66" ry="28.98"/>
<text text-anchor="middle" x="911.21" y="-434.87" font-family="Helvetica,sans-Serif" font-size="10.00" fill="#ffffff">src.</text>
<text text-anchor="middle" x="911.21" y="-423.87" font-family="Helvetica,sans-Serif" font-size="10.00" fill="#ffffff">edc_utilities.</text>
<text text-anchor="middle" x="911.21" y="-412.87" font-family="Helvetica,sans-Serif" font-size="10.00" fill="#ffffff">edc_session_helper</text>
</g>
<!-- requests&#45;&gt;src_edc_utilities_edc_session_helper -->
<g id="edge11" class="edge">
<title>requests&#45;&gt;src_edc_utilities_edc_session_helper</title><style>.edge>path:hover{stroke-width:8}</style>
<path fill="none" stroke="black" d="M972.21,-707.31C970.48,-666.17 924.27,-679.82 905.21,-643.32 879.8,-594.7 868.84,-573.39 886.21,-521.35"/>
<path fill="none" stroke="black" d="M988.21,-801.3C994.98,-760.36 973.29,-750.8 972.21,-709.31"/>
<path fill="none" stroke="black" d="M746.37,-975.74C806.57,-933.25 987.9,-805.13 988.21,-803.3"/>
</g>
<!-- src_edc_utilities_edcutils -->
<g id="node15" class="node">
<title>src_edc_utilities_edcutils</title><style>.edge>path:hover{stroke-width:8}</style>
<ellipse fill="#4949ac" stroke="black" cx="82.21" cy="-708.31" rx="50.41" ry="28.98"/>
<text text-anchor="middle" x="82.21" y="-716.81" font-family="Helvetica,sans-Serif" font-size="10.00" fill="#ffffff">src.</text>
<text text-anchor="middle" x="82.21" y="-705.81" font-family="Helvetica,sans-Serif" font-size="10.00" fill="#ffffff">edc_utilities.</text>
<text text-anchor="middle" x="82.21" y="-694.81" font-family="Helvetica,sans-Serif" font-size="10.00" fill="#ffffff">edcutils</text>
</g>
<!-- requests&#45;&gt;src_edc_utilities_edcutils -->
<g id="edge12" class="edge">
<title>requests&#45;&gt;src_edc_utilities_edcutils</title><style>.edge>path:hover{stroke-width:8}</style>
<path fill="none" stroke="black" d="M160.21,-801.3C155.27,-776.55 137.69,-754.71 120.47,-738.53"/>
<polygon fill="#0bdfdf" stroke="black" points="122.41,-735.57 112.63,-731.51 117.74,-740.79 122.41,-735.57"/>
<path fill="none" stroke="black" d="M696.09,-985.65C580.65,-971.42 182.35,-914.42 160.21,-803.3"/>
</g>
<!-- requests&#45;&gt;src_metadata_utilities_mu_logging -->
<g id="edge13" class="edge">
<title>requests&#45;&gt;src_metadata_utilities_mu_logging</title><style>.edge>path:hover{stroke-width:8}</style>
<path fill="none" stroke="black" d="M988.21,-801.3C992.19,-777.22 1008.83,-756.16 1025.9,-740.3"/>
<polygon fill="#0bdfdf" stroke="black" points="1028.55,-742.62 1033.73,-733.38 1023.92,-737.38 1028.55,-742.62"/>
</g>
<!-- requests_auth -->
<g id="node8" class="node">
<title>requests_auth</title><style>.edge>path:hover{stroke-width:8}</style>
<ellipse fill="#53b6b6" stroke="black" cx="82.21" cy="-990.26" rx="44.98" ry="18"/>
<text text-anchor="middle" x="82.21" y="-987.76" font-family="Helvetica,sans-Serif" font-size="10.00" fill="#000000">requests.auth</text>
</g>
<!-- requests_auth&#45;&gt;src_edc_utilities_edcutils -->
<g id="edge14" class="edge">
<title>requests_auth&#45;&gt;src_edc_utilities_edcutils</title><style>.edge>path:hover{stroke-width:8}</style>
<path fill="none" stroke="black" d="M82.21,-972.17C82.21,-927.96 82.21,-808.97 82.21,-747.4"/>
<polygon fill="#53b6b6" stroke="black" points="85.71,-747.31 82.21,-737.31 78.71,-747.31 85.71,-747.31"/>
</g>
<!-- requests_exceptions -->
<g id="node9" class="node">
<title>requests_exceptions</title><style>.edge>path:hover{stroke-width:8}</style>
<ellipse fill="#40bfc0" stroke="black" cx="727.21" cy="-1092.02" rx="45.01" ry="21.43"/>
<text text-anchor="middle" x="727.21" y="-1095.02" font-family="Helvetica,sans-Serif" font-size="10.00" fill="#000000">requests.</text>
<text text-anchor="middle" x="727.21" y="-1084.02" font-family="Helvetica,sans-Serif" font-size="10.00" fill="#000000">exceptions</text>
</g>
<!-- requests_exceptions&#45;&gt;requests -->
<g id="edge15" class="edge">
<title>requests_exceptions&#45;&gt;requests</title><style>.edge>path:hover{stroke-width:8}</style>
<path fill="none" stroke="black" d="M727.21,-1070.35C727.21,-1055.37 727.21,-1034.96 727.21,-1018.63"/>
<polygon fill="#40bfc0" stroke="black" points="730.71,-1018.58 727.21,-1008.58 723.71,-1018.58 730.71,-1018.58"/>
</g>
<!-- requests_exceptions&#45;&gt;src_edc_utilities_edc_lineage -->
<g id="edge16" class="edge">
<title>requests_exceptions&#45;&gt;src_edc_utilities_edc_lineage</title><style>.edge>path:hover{stroke-width:8}</style>
<path fill="none" stroke="black" d="M682.12,-1089.46C535.15,-1083.96 76.57,-1063.36 28.21,-1019.25 -12.62,-982.02 4.21,-952.53 4.21,-897.28 4.21,-897.28 4.21,-897.28 4.21,-519.35 4.21,-436.15 71.42,-433.83 146.21,-397.37 191.41,-375.34 327.81,-353.09 407.18,-341.52"/>
<polygon fill="#40bfc0" stroke="black" points="408.12,-344.93 417.51,-340.03 407.12,-338 408.12,-344.93"/>
</g>
<!-- src_add_custom_attributes -->
<g id="node10" class="node">
<title>src_add_custom_attributes</title><style>.edge>path:hover{stroke-width:8}</style>
<ellipse fill="#43439d" stroke="black" cx="1206.21" cy="-21.21" rx="82.05" ry="21.43"/>
<text text-anchor="middle" x="1206.21" y="-24.21" font-family="Helvetica,sans-Serif" font-size="10.00" fill="#ffffff">src.</text>
<text text-anchor="middle" x="1206.21" y="-13.21" font-family="Helvetica,sans-Serif" font-size="10.00" fill="#ffffff">add_custom_attributes</text>
</g>
<!-- src_edc_utilities -->
<g id="node11" class="node">
<title>src_edc_utilities</title><style>.edge>path:hover{stroke-width:8}</style>
<ellipse fill="#2222e7" stroke="black" cx="1030.21" cy="-332.38" rx="48.17" ry="21.43"/>
<text text-anchor="middle" x="1030.21" y="-335.38" font-family="Helvetica,sans-Serif" font-size="10.00" fill="#ffffff">src.</text>
<text text-anchor="middle" x="1030.21" y="-324.38" font-family="Helvetica,sans-Serif" font-size="10.00" fill="#ffffff">edc_utilities</text>
</g>
<!-- src_metadata_utilities_load_custom_attributes -->
<g id="node21" class="node">
<title>src_metadata_utilities_load_custom_attributes</title><style>.edge>path:hover{stroke-width:8}</style>
<ellipse fill="#2e2e8a" stroke="black" cx="734.21" cy="-144.42" rx="83.38" ry="28.98"/>
<text text-anchor="middle" x="734.21" y="-152.92" font-family="Helvetica,sans-Serif" font-size="10.00" fill="#ffffff">src.</text>
<text text-anchor="middle" x="734.21" y="-141.92" font-family="Helvetica,sans-Serif" font-size="10.00" fill="#ffffff">metadata_utilities.</text>
<text text-anchor="middle" x="734.21" y="-130.92" font-family="Helvetica,sans-Serif" font-size="10.00" fill="#ffffff">load_custom_attributes</text>
</g>
<!-- src_edc_utilities&#45;&gt;src_metadata_utilities_load_custom_attributes -->
<g id="edge17" class="edge">
<title>src_edc_utilities&#45;&gt;src_metadata_utilities_load_custom_attributes</title><style>.edge>path:hover{stroke-width:8}</style>
<path fill="none" stroke="black" d="M1047.39,-312.29C1062,-293.64 1079,-264.47 1068.21,-239.4"/>
</g>
<!-- src_metadata_utilities_load_json_metadata -->
<g id="node22" class="node">
<title>src_metadata_utilities_load_json_metadata</title><style>.edge>path:hover{stroke-width:8}</style>
<ellipse fill="#262673" stroke="black" cx="559.21" cy="-144.42" rx="73.58" ry="28.98"/>
<text text-anchor="middle" x="559.21" y="-152.92" font-family="Helvetica,sans-Serif" font-size="10.00" fill="#ffffff">src.</text>
<text text-anchor="middle" x="559.21" y="-141.92" font-family="Helvetica,sans-Serif" font-size="10.00" fill="#ffffff">metadata_utilities.</text>
<text text-anchor="middle" x="559.21" y="-130.92" font-family="Helvetica,sans-Serif" font-size="10.00" fill="#ffffff">load_json_metadata</text>
</g>
<!-- src_edc_utilities&#45;&gt;src_metadata_utilities_load_json_metadata -->
<g id="edge18" class="edge">
<title>src_edc_utilities&#45;&gt;src_metadata_utilities_load_json_metadata</title><style>.edge>path:hover{stroke-width:8}</style>
<path fill="none" stroke="black" d="M1026.13,-311.01C1019.37,-283.04 1002.98,-233.47 968.21,-209.41 908.27,-167.94 713.37,-189.15 642.21,-173.41 635.26,-171.87 628.09,-169.97 621,-167.87"/>
<polygon fill="#2222e7" stroke="black" points="622,-164.52 611.41,-164.92 619.94,-171.21 622,-164.52"/>
</g>
<!-- src_edc_utilities_edc_custom_attributes&#45;&gt;src_metadata_utilities_load_custom_attributes -->
<g id="edge19" class="edge">
<title>src_edc_utilities_edc_custom_attributes&#45;&gt;src_metadata_utilities_load_custom_attributes</title><style>.edge>path:hover{stroke-width:8}</style>
<path fill="none" stroke="black" d="M1068.21,-237.4C1061.73,-222.35 1058.32,-217.73 1044.21,-209.41 978.15,-170.46 892.01,-154.96 827.3,-148.92"/>
<polygon fill="#202083" stroke="black" points="827.37,-145.41 817.1,-148.03 826.76,-152.38 827.37,-145.41"/>
<path fill="none" stroke="black" d="M913.87,-316.93C984.61,-300.35 1081.94,-271.3 1068.21,-239.4"/>
</g>
<!-- src_edc_utilities_edc_custom_attributes&#45;&gt;src_metadata_utilities_load_json_metadata -->
<g id="edge20" class="edge">
<title>src_edc_utilities_edc_custom_attributes&#45;&gt;src_metadata_utilities_load_json_metadata</title><style>.edge>path:hover{stroke-width:8}</style>
<path fill="none" stroke="black" d="M806.06,-306.5C753.95,-272.49 660.6,-211.58 604.83,-175.19"/>
<polygon fill="#202083" stroke="black" points="606.5,-172.1 596.22,-169.57 602.68,-177.96 606.5,-172.1"/>
</g>
<!-- src_edc_utilities_edc_lineage&#45;&gt;src_metadata_utilities_load_json_metadata -->
<g id="edge21" class="edge">
<title>src_edc_utilities_edc_lineage&#45;&gt;src_metadata_utilities_load_json_metadata</title><style>.edge>path:hover{stroke-width:8}</style>
<path fill="none" stroke="black" d="M490.36,-306.92C501.4,-295.3 514.41,-281.01 525.21,-267.39 534.55,-255.61 536.52,-252.33 544.21,-239.4"/>
</g>
<!-- src_edc_utilities_edc_session_helper&#45;&gt;src_edc_utilities_edc_custom_attributes -->
<g id="edge22" class="edge">
<title>src_edc_utilities_edc_session_helper&#45;&gt;src_edc_utilities_edc_custom_attributes</title><style>.edge>path:hover{stroke-width:8}</style>
<path fill="none" stroke="black" d="M891.47,-398.27C884.78,-389.08 877.21,-378.69 870.11,-368.95"/>
<polygon fill="#2d2db4" stroke="black" points="872.75,-366.63 864.04,-360.61 867.09,-370.75 872.75,-366.63"/>
</g>
<!-- src_edc_utilities_edc_session_helper&#45;&gt;src_edc_utilities_edc_lineage -->
<g id="edge23" class="edge">
<title>src_edc_utilities_edc_session_helper&#45;&gt;src_edc_utilities_edc_lineage</title><style>.edge>path:hover{stroke-width:8}</style>
<path fill="none" stroke="black" d="M848.96,-411.13C828.94,-406.63 806.66,-401.71 786.21,-397.37 694.4,-377.92 587.43,-356.85 523.35,-344.4"/>
<polygon fill="#2d2db4" stroke="black" points="523.93,-340.95 513.45,-342.48 522.6,-347.82 523.93,-340.95"/>
</g>
<!-- src_metadata_utilities -->
<g id="node16" class="node">
<title>src_metadata_utilities</title><style>.edge>path:hover{stroke-width:8}</style>
<ellipse fill="#1010f9" stroke="black" cx="980.21" cy="-614.33" rx="65.52" ry="21.43"/>
<text text-anchor="middle" x="980.21" y="-617.33" font-family="Helvetica,sans-Serif" font-size="10.00" fill="#ffffff">src.</text>
<text text-anchor="middle" x="980.21" y="-606.33" font-family="Helvetica,sans-Serif" font-size="10.00" fill="#ffffff">metadata_utilities</text>
</g>
<!-- src_metadata_utilities&#45;&gt;src_add_custom_attributes -->
<g id="edge24" class="edge">
<title>src_metadata_utilities&#45;&gt;src_add_custom_attributes</title><style>.edge>path:hover{stroke-width:8}</style>
<path fill="none" stroke="black" d="M1088.21,-519.35C1153.74,-415.91 1121.18,-210.52 1144.21,-145.42"/>
</g>
<!-- src_metadata_utilities&#45;&gt;src_edc_utilities_edc_custom_attributes -->
<g id="edge25" class="edge">
<title>src_metadata_utilities&#45;&gt;src_edc_utilities_edc_custom_attributes</title><style>.edge>path:hover{stroke-width:8}</style>
<path fill="none" stroke="black" d="M1012.21,-519.35C1008.84,-478.61 1036.29,-460.4 1012.21,-427.37"/>
<path fill="none" stroke="black" d="M1012.21,-425.37C1003.35,-413.22 1004.8,-406.95 993.21,-397.37 970.87,-378.94 942.43,-364.99 916.39,-354.89"/>
<polygon fill="#1010f9" stroke="black" points="917.52,-351.58 906.92,-351.35 915.06,-358.13 917.52,-351.58"/>
</g>
<!-- src_metadata_utilities&#45;&gt;src_edc_utilities_edc_lineage -->
<g id="edge26" class="edge">
<title>src_metadata_utilities&#45;&gt;src_edc_utilities_edc_lineage</title><style>.edge>path:hover{stroke-width:8}</style>
<path fill="none" stroke="black" d="M940.89,-597.29C877.07,-570.73 747.68,-514.62 644.21,-455.36 630.14,-447.3 553.71,-394.37 505.68,-360.93"/>
<polygon fill="#1010f9" stroke="black" points="507.57,-357.98 497.36,-355.14 503.57,-363.72 507.57,-357.98"/>
</g>
<!-- src_metadata_utilities&#45;&gt;src_edc_utilities_edc_session_helper -->
<g id="edge27" class="edge">
<title>src_metadata_utilities&#45;&gt;src_edc_utilities_edc_session_helper</title><style>.edge>path:hover{stroke-width:8}</style>
<path fill="none" stroke="black" d="M1012.21,-519.35C1009.91,-491.58 988.45,-469.92 965.9,-454.62"/>
<polygon fill="#1010f9" stroke="black" points="967.54,-451.52 957.24,-449.07 963.76,-457.41 967.54,-451.52"/>
<path fill="none" stroke="black" d="M992.61,-593.16C1002.49,-574.95 1014.34,-547.13 1012.21,-521.35"/>
</g>
<!-- src_run_edc_lineage -->
<g id="node27" class="node">
<title>src_run_edc_lineage</title><style>.edge>path:hover{stroke-width:8}</style>
<ellipse fill="#4646a4" stroke="black" cx="1044.21" cy="-21.21" rx="61.54" ry="21.43"/>
<text text-anchor="middle" x="1044.21" y="-24.21" font-family="Helvetica,sans-Serif" font-size="10.00" fill="#ffffff">src.</text>
<text text-anchor="middle" x="1044.21" y="-13.21" font-family="Helvetica,sans-Serif" font-size="10.00" fill="#ffffff">run_edc_lineage</text>
</g>
<!-- src_metadata_utilities&#45;&gt;src_run_edc_lineage -->
<g id="edge28" class="edge">
<title>src_metadata_utilities&#45;&gt;src_run_edc_lineage</title><style>.edge>path:hover{stroke-width:8}</style>
<path fill="none" stroke="black" d="M1013.33,-595.9C1039.13,-580.25 1073.05,-554.63 1088.21,-521.35"/>
<path fill="none" stroke="black" d="M1088.21,-519.35C1128.76,-430.31 1081.31,-174.05 1106.21,-79.43"/>
</g>
<!-- src_metadata_utilities_check_schema&#45;&gt;src_metadata_utilities_load_json_metadata -->
<g id="edge29" class="edge">
<title>src_metadata_utilities_check_schema&#45;&gt;src_metadata_utilities_load_json_metadata</title><style>.edge>path:hover{stroke-width:8}</style>
<path fill="none" stroke="black" d="M246.03,-397.54C240.13,-375.93 237.16,-347.37 256.21,-333.38"/>
</g>
<!-- src_metadata_utilities_generic&#45;&gt;src_edc_utilities_edc_custom_attributes -->
<g id="edge30" class="edge">
<title>src_metadata_utilities_generic&#45;&gt;src_edc_utilities_edc_custom_attributes</title><style>.edge>path:hover{stroke-width:8}</style>
<path fill="none" stroke="black" d="M658.21,-425.37C668.29,-412.45 668.86,-406.88 682.21,-397.37 708.65,-378.53 741.4,-364.24 770.53,-354"/>
<polygon fill="#0a0acc" stroke="black" points="771.92,-357.22 780.25,-350.68 769.66,-350.59 771.92,-357.22"/>
</g>
<!-- src_metadata_utilities_generic&#45;&gt;src_edc_utilities_edc_lineage -->
<g id="edge31" class="edge">
<title>src_metadata_utilities_generic&#45;&gt;src_edc_utilities_edc_lineage</title><style>.edge>path:hover{stroke-width:8}</style>
<path fill="none" stroke="black" d="M562.99,-490.96C562.12,-471.28 558.04,-445.47 544.21,-427.37"/>
<path fill="none" stroke="black" d="M544.21,-425.37C535.08,-413.42 534.55,-409.15 525.21,-397.37 516.6,-386.53 506.59,-375.24 497.3,-365.23"/>
<polygon fill="#0a0acc" stroke="black" points="499.76,-362.74 490.36,-357.85 494.65,-367.53 499.76,-362.74"/>
</g>
<!-- src_metadata_utilities_generic&#45;&gt;src_metadata_utilities_load_custom_attributes -->
<g id="edge32" class="edge">
<title>src_metadata_utilities_generic&#45;&gt;src_metadata_utilities_load_custom_attributes</title><style>.edge>path:hover{stroke-width:8}</style>
<path fill="none" stroke="black" d="M658.21,-425.37C676.12,-402.42 647.33,-390.32 644.21,-361.37 636.95,-294.23 613.24,-269.43 644.21,-209.41 651.56,-195.15 663.72,-183.38 676.76,-173.99"/>
<polygon fill="#0a0acc" stroke="black" points="679.08,-176.65 685.42,-168.16 675.17,-170.84 679.08,-176.65"/>
<path fill="none" stroke="black" d="M590.19,-493.85C609.71,-475.75 636.11,-450.63 658.21,-427.37"/>
</g>
<!-- src_metadata_utilities_generic&#45;&gt;src_metadata_utilities_load_json_metadata -->
<g id="edge33" class="edge">
<title>src_metadata_utilities_generic&#45;&gt;src_metadata_utilities_load_json_metadata</title><style>.edge>path:hover{stroke-width:8}</style>
<path fill="none" stroke="black" d="M561.73,-491.23C561.2,-466.49 560.16,-429.52 558.21,-397.37 553.94,-327.02 508.19,-299.99 544.21,-239.4"/>
</g>
<!-- src_metadata_utilities_generic&#45;&gt;src_metadata_utilities_validate_schema -->
<g id="edge34" class="edge">
<title>src_metadata_utilities_generic&#45;&gt;src_metadata_utilities_validate_schema</title><style>.edge>path:hover{stroke-width:8}</style>
<path fill="none" stroke="black" d="M531.36,-494.46C517.67,-483.41 501.41,-470.3 486.92,-458.61"/>
<polygon fill="#0a0acc" stroke="black" points="489.06,-455.83 479.08,-452.28 484.67,-461.28 489.06,-455.83"/>
</g>
<!-- src_metadata_utilities_generic_settings -->
<g id="node19" class="node">
<title>src_metadata_utilities_generic_settings</title><style>.edge>path:hover{stroke-width:8}</style>
<ellipse fill="#0505db" stroke="black" cx="714.21" cy="-614.33" rx="67.76" ry="28.98"/>
<text text-anchor="middle" x="714.21" y="-622.83" font-family="Helvetica,sans-Serif" font-size="10.00" fill="#ffffff">src.</text>
<text text-anchor="middle" x="714.21" y="-611.83" font-family="Helvetica,sans-Serif" font-size="10.00" fill="#ffffff">metadata_utilities.</text>
<text text-anchor="middle" x="714.21" y="-600.83" font-family="Helvetica,sans-Serif" font-size="10.00" fill="#ffffff">generic_settings</text>
</g>
<!-- src_metadata_utilities_generic_settings&#45;&gt;src_edc_utilities_edc_custom_attributes -->
<g id="edge35" class="edge">
<title>src_metadata_utilities_generic_settings&#45;&gt;src_edc_utilities_edc_custom_attributes</title><style>.edge>path:hover{stroke-width:8}</style>
<path fill="none" stroke="black" d="M730.67,-586.18C751.58,-550.73 787.66,-486.24 810.21,-427.37"/>
<path fill="none" stroke="black" d="M810.21,-425.37C815.68,-407.1 822.87,-387.2 829.23,-370.61"/>
<polygon fill="#0505db" stroke="black" points="832.51,-371.84 832.86,-361.25 825.98,-369.31 832.51,-371.84"/>
</g>
<!-- src_metadata_utilities_generic_settings&#45;&gt;src_edc_utilities_edc_lineage -->
<g id="edge36" class="edge">
<title>src_metadata_utilities_generic_settings&#45;&gt;src_edc_utilities_edc_lineage</title><style>.edge>path:hover{stroke-width:8}</style>
<path fill="none" stroke="black" d="M696.02,-586.26C684.39,-568.3 669.43,-543.96 658.21,-521.35"/>
<path fill="none" stroke="black" d="M658.21,-519.35C651.52,-505.88 649.86,-501.97 639.21,-491.36 603.14,-455.42 575.11,-467.82 544.21,-427.37"/>
</g>
<!-- src_metadata_utilities_generic_settings&#45;&gt;src_metadata_utilities_generic -->
<g id="edge37" class="edge">
<title>src_metadata_utilities_generic_settings&#45;&gt;src_metadata_utilities_generic</title><style>.edge>path:hover{stroke-width:8}</style>
<path fill="none" stroke="black" d="M675.85,-590.12C655.52,-577.82 630.38,-562.61 608.92,-549.62"/>
<polygon fill="#0505db" stroke="black" points="610.65,-546.58 600.29,-544.39 607.03,-552.56 610.65,-546.58"/>
</g>
<!-- src_metadata_utilities_generic_settings&#45;&gt;src_metadata_utilities_load_custom_attributes -->
<g id="edge38" class="edge">
<title>src_metadata_utilities_generic_settings&#45;&gt;src_metadata_utilities_load_custom_attributes</title><style>.edge>path:hover{stroke-width:8}</style>
<path fill="none" stroke="black" d="M696.21,-425.37C696.21,-338.23 714.51,-237.21 725.71,-183.54"/>
<polygon fill="#0505db" stroke="black" points="729.19,-183.97 727.85,-173.46 722.35,-182.52 729.19,-183.97"/>
</g>
<!-- src_metadata_utilities_generic_settings&#45;&gt;src_metadata_utilities_load_json_metadata -->
<g id="edge39" class="edge">
<title>src_metadata_utilities_generic_settings&#45;&gt;src_metadata_utilities_load_json_metadata</title><style>.edge>path:hover{stroke-width:8}</style>
<path fill="none" stroke="black" d="M696.21,-425.37C696.63,-388.72 662.69,-393.02 644.21,-361.37 609.89,-302.63 583.86,-227.43 570.12,-183.04"/>
<polygon fill="#0505db" stroke="black" points="573.4,-181.79 567.13,-173.25 566.7,-183.83 573.4,-181.79"/>
<path fill="none" stroke="black" d="M658.21,-519.35C638.54,-479.73 694.75,-471.57 696.21,-427.37"/>
</g>
<!-- src_metadata_utilities_generic_settings&#45;&gt;src_metadata_utilities_validate_schema -->
<g id="edge40" class="edge">
<title>src_metadata_utilities_generic_settings&#45;&gt;src_metadata_utilities_validate_schema</title><style>.edge>path:hover{stroke-width:8}</style>
<path fill="none" stroke="black" d="M652.51,-602.14C579.94,-587.38 466.92,-558.84 448.21,-521.35"/>
</g>
<!-- src_metadata_utilities_json_file_utilities -->
<g id="node20" class="node">
<title>src_metadata_utilities_json_file_utilities</title><style>.edge>path:hover{stroke-width:8}</style>
<ellipse fill="#4747c2" stroke="black" cx="448.21" cy="-238.4" rx="67.76" ry="28.98"/>
<text text-anchor="middle" x="448.21" y="-246.9" font-family="Helvetica,sans-Serif" font-size="10.00" fill="#ffffff">src.</text>
<text text-anchor="middle" x="448.21" y="-235.9" font-family="Helvetica,sans-Serif" font-size="10.00" fill="#ffffff">metadata_utilities.</text>
<text text-anchor="middle" x="448.21" y="-224.9" font-family="Helvetica,sans-Serif" font-size="10.00" fill="#ffffff">json_file_utilities</text>
</g>
<!-- src_metadata_utilities_json_file_utilities&#45;&gt;src_metadata_utilities_load_json_metadata -->
<g id="edge41" class="edge">
<title>src_metadata_utilities_json_file_utilities&#45;&gt;src_metadata_utilities_load_json_metadata</title><style>.edge>path:hover{stroke-width:8}</style>
<path fill="none" stroke="black" d="M478.54,-212.27C491.52,-201.51 506.84,-188.81 520.62,-177.39"/>
<polygon fill="#4747c2" stroke="black" points="523.06,-179.92 528.53,-170.84 518.59,-174.53 523.06,-179.92"/>
</g>
<!-- src_metadata_utilities_load_custom_attributes&#45;&gt;src_add_custom_attributes -->
<g id="edge42" class="edge">
<title>src_metadata_utilities_load_custom_attributes&#45;&gt;src_add_custom_attributes</title><style>.edge>path:hover{stroke-width:8}</style>
<path fill="none" stroke="black" d="M815.47,-137.78C918.67,-129.42 1089.88,-111.22 1144.21,-79.43"/>
<path fill="none" stroke="black" d="M1144.21,-78.43C1157.53,-70.63 1170.47,-59.63 1181.05,-49.42"/>
<polygon fill="#2e2e8a" stroke="black" points="1183.7,-51.72 1188.31,-42.19 1178.76,-46.76 1183.7,-51.72"/>
</g>
<!-- src_metadata_utilities_load_json_metadata&#45;&gt;src_run_edc_lineage -->
<g id="edge43" class="edge">
<title>src_metadata_utilities_load_json_metadata&#45;&gt;src_run_edc_lineage</title><style>.edge>path:hover{stroke-width:8}</style>
<path fill="none" stroke="black" d="M1106.21,-78.43C1109.87,-64.5 1101.4,-52.93 1089.65,-43.98"/>
<polygon fill="#262673" stroke="black" points="1091.34,-40.9 1081.09,-38.2 1087.42,-46.7 1091.34,-40.9"/>
<path fill="none" stroke="black" d="M610.91,-123.79C621.16,-120.53 631.92,-117.52 642.21,-115.43 692.87,-105.08 1093.05,-129.43 1106.21,-79.43"/>
</g>
<!-- src_metadata_utilities_log_settings -->
<g id="node23" class="node">
<title>src_metadata_utilities_log_settings</title><style>.edge>path:hover{stroke-width:8}</style>
<ellipse fill="#3a3ab0" stroke="black" cx="851.21" cy="-802.3" rx="67.76" ry="28.98"/>
<text text-anchor="middle" x="851.21" y="-810.8" font-family="Helvetica,sans-Serif" font-size="10.00" fill="#ffffff">src.</text>
<text text-anchor="middle" x="851.21" y="-799.8" font-family="Helvetica,sans-Serif" font-size="10.00" fill="#ffffff">metadata_utilities.</text>
<text text-anchor="middle" x="851.21" y="-788.8" font-family="Helvetica,sans-Serif" font-size="10.00" fill="#ffffff">log_settings</text>
</g>
<!-- src_metadata_utilities_log_settings&#45;&gt;src_metadata_utilities_mu_logging -->
<g id="edge44" class="edge">
<title>src_metadata_utilities_log_settings&#45;&gt;src_metadata_utilities_mu_logging</title><style>.edge>path:hover{stroke-width:8}</style>
<path fill="none" stroke="black" d="M898.29,-781.34C931.45,-767.28 976.01,-748.39 1011.18,-733.48"/>
<polygon fill="#3a3ab0" stroke="black" points="1013,-736.52 1020.84,-729.39 1010.26,-730.07 1013,-736.52"/>
</g>
<!-- src_metadata_utilities_messages -->
<g id="node24" class="node">
<title>src_metadata_utilities_messages</title><style>.edge>path:hover{stroke-width:8}</style>
<ellipse fill="#1010f9" stroke="black" cx="714.21" cy="-896.28" rx="67.76" ry="28.98"/>
<text text-anchor="middle" x="714.21" y="-904.78" font-family="Helvetica,sans-Serif" font-size="10.00" fill="#ffffff">src.</text>
<text text-anchor="middle" x="714.21" y="-893.78" font-family="Helvetica,sans-Serif" font-size="10.00" fill="#ffffff">metadata_utilities.</text>
<text text-anchor="middle" x="714.21" y="-882.78" font-family="Helvetica,sans-Serif" font-size="10.00" fill="#ffffff">messages</text>
</g>
<!-- src_metadata_utilities_messages&#45;&gt;src_add_custom_attributes -->
<g id="edge45" class="edge">
<title>src_metadata_utilities_messages&#45;&gt;src_add_custom_attributes</title><style>.edge>path:hover{stroke-width:8}</style>
<path fill="none" stroke="black" d="M1144.21,-143.42C1154.11,-116.76 1119.66,-93.79 1144.21,-79.43"/>
<path fill="none" stroke="black" d="M734.21,-425.37C720.97,-372.12 719.11,-346.37 753.21,-303.39 869.69,-156.56 1078.94,-321.11 1144.21,-145.42"/>
</g>
<!-- src_metadata_utilities_messages&#45;&gt;src_edc_utilities_edc_custom_attributes -->
<g id="edge46" class="edge">
<title>src_metadata_utilities_messages&#45;&gt;src_edc_utilities_edc_custom_attributes</title><style>.edge>path:hover{stroke-width:8}</style>
<path fill="none" stroke="black" d="M810.21,-613.33C837.07,-535.17 786.49,-506.54 810.21,-427.37"/>
</g>
<!-- src_metadata_utilities_messages&#45;&gt;src_edc_utilities_edc_lineage -->
<g id="edge47" class="edge">
<title>src_metadata_utilities_messages&#45;&gt;src_edc_utilities_edc_lineage</title><style>.edge>path:hover{stroke-width:8}</style>
<path fill="none" stroke="black" d="M256.21,-519.35C242.38,-461.9 137.18,-481.79 160.21,-427.37"/>
<path fill="none" stroke="black" d="M256.21,-613.33C243.75,-574.39 265.77,-561.1 256.21,-521.35"/>
</g>
<!-- src_metadata_utilities_messages&#45;&gt;src_edc_utilities_edc_session_helper -->
<g id="edge48" class="edge">
<title>src_metadata_utilities_messages&#45;&gt;src_edc_utilities_edc_session_helper</title><style>.edge>path:hover{stroke-width:8}</style>
<path fill="none" stroke="black" d="M810.21,-613.33C827.44,-563.18 869.42,-571.65 886.21,-521.35"/>
<path fill="none" stroke="black" d="M886.21,-519.35C892.06,-501.8 897.57,-482.04 901.92,-465.34"/>
<polygon fill="#1010f9" stroke="black" points="905.38,-465.94 904.47,-455.39 898.6,-464.2 905.38,-465.94"/>
</g>
<!-- src_metadata_utilities_messages&#45;&gt;src_metadata_utilities_check_schema -->
<g id="edge49" class="edge">
<title>src_metadata_utilities_messages&#45;&gt;src_metadata_utilities_check_schema</title><style>.edge>path:hover{stroke-width:8}</style>
<path fill="none" stroke="black" d="M256.21,-519.35C252.07,-502.15 251.51,-482.62 252.21,-466"/>
<polygon fill="#1010f9" stroke="black" points="255.73,-465.73 252.83,-455.54 248.74,-465.32 255.73,-465.73"/>
</g>
<!-- src_metadata_utilities_messages&#45;&gt;src_metadata_utilities_generic -->
<g id="edge50" class="edge">
<title>src_metadata_utilities_messages&#45;&gt;src_metadata_utilities_generic</title><style>.edge>path:hover{stroke-width:8}</style>
<path fill="none" stroke="black" d="M714.21,-867.24C714.21,-830.84 714.21,-765.33 714.21,-709.31"/>
<path fill="none" stroke="black" d="M714.21,-707.31C714.21,-662.82 667.11,-676.28 637.21,-643.32 627.1,-632.19 625.31,-628.58 618.21,-615.33"/>
</g>
<!-- src_metadata_utilities_messages&#45;&gt;src_metadata_utilities_generic_settings -->
<g id="edge51" class="edge">
<title>src_metadata_utilities_messages&#45;&gt;src_metadata_utilities_generic_settings</title><style>.edge>path:hover{stroke-width:8}</style>
<path fill="none" stroke="black" d="M714.21,-707.31C714.21,-689.76 714.21,-670.32 714.21,-653.85"/>
<polygon fill="#1010f9" stroke="black" points="717.71,-653.51 714.21,-643.51 710.71,-653.51 717.71,-653.51"/>
</g>
<!-- src_metadata_utilities_messages&#45;&gt;src_metadata_utilities_load_custom_attributes -->
<g id="edge52" class="edge">
<title>src_metadata_utilities_messages&#45;&gt;src_metadata_utilities_load_custom_attributes</title><style>.edge>path:hover{stroke-width:8}</style>
<path fill="none" stroke="black" d="M734.21,-425.37C734.21,-396.25 723.33,-390.32 720.21,-361.37 713.49,-299.26 721.41,-226.72 727.78,-183.51"/>
<polygon fill="#1010f9" stroke="black" points="731.27,-183.85 729.31,-173.44 724.35,-182.8 731.27,-183.85"/>
<path fill="none" stroke="black" d="M810.21,-613.33C824.79,-571.14 727.55,-471.51 734.21,-427.37"/>
<path fill="none" stroke="black" d="M714.21,-707.31C714.21,-662.82 761.3,-676.28 791.21,-643.32 801.31,-632.19 803.39,-628.74 810.21,-615.33"/>
</g>
<!-- src_metadata_utilities_messages&#45;&gt;src_metadata_utilities_load_json_metadata -->
<g id="edge53" class="edge">
<title>src_metadata_utilities_messages&#45;&gt;src_metadata_utilities_load_json_metadata</title><style>.edge>path:hover{stroke-width:8}</style>
<path fill="none" stroke="black" d="M544.21,-237.4C553.66,-221.51 557.67,-201.48 559.2,-184.17"/>
<polygon fill="#1010f9" stroke="black" points="562.72,-184 559.86,-173.8 555.73,-183.56 562.72,-184"/>
<path fill="none" stroke="black" d="M432.21,-801.3C367.17,-763.24 321.95,-796.41 275.21,-737.31 241.17,-694.27 272.92,-667.59 256.21,-615.33"/>
<path fill="none" stroke="black" d="M256.21,-331.38C355.26,-258.64 424.06,-337.19 525.21,-267.39 537.58,-258.85 536.51,-252.32 544.21,-239.4"/>
<path fill="none" stroke="black" d="M256.21,-613.33C217.46,-512.83 92.5,-490.75 146.21,-397.37 174.4,-348.35 210.62,-366.86 256.21,-333.38"/>
<path fill="none" stroke="black" d="M652.77,-883.71C593.25,-870.61 501.97,-845.41 432.21,-803.3"/>
</g>
<!-- src_metadata_utilities_messages&#45;&gt;src_metadata_utilities_log_settings -->
<g id="edge54" class="edge">
<title>src_metadata_utilities_messages&#45;&gt;src_metadata_utilities_log_settings</title><style>.edge>path:hover{stroke-width:8}</style>
<path fill="none" stroke="black" d="M749.84,-871.35C767.44,-859.54 788.84,-845.17 807.43,-832.69"/>
<polygon fill="#1010f9" stroke="black" points="809.4,-835.58 815.75,-827.1 805.49,-829.77 809.4,-835.58"/>
</g>
<!-- src_metadata_utilities_messages&#45;&gt;src_metadata_utilities_validate_schema -->
<g id="edge55" class="edge">
<title>src_metadata_utilities_messages&#45;&gt;src_metadata_utilities_validate_schema</title><style>.edge>path:hover{stroke-width:8}</style>
<path fill="none" stroke="black" d="M432.21,-801.3C362.62,-756.7 404.4,-693.17 432.21,-615.33"/>
</g>
<!-- src_metadata_utilities_mu_logging&#45;&gt;src_edc_utilities_edc_custom_attributes -->
<g id="edge56" class="edge">
<title>src_metadata_utilities_mu_logging&#45;&gt;src_edc_utilities_edc_custom_attributes</title><style>.edge>path:hover{stroke-width:8}</style>
<path fill="none" stroke="black" d="M1090.76,-680.75C1103.96,-663.37 1119.35,-639.49 1126.21,-615.33"/>
<path fill="none" stroke="black" d="M1126.21,-613.33C1128.01,-606.95 1053.01,-527.36 1050.21,-521.35"/>
</g>
<!-- src_metadata_utilities_mu_logging&#45;&gt;src_edc_utilities_edc_lineage -->
<g id="edge57" class="edge">
<title>src_metadata_utilities_mu_logging&#45;&gt;src_edc_utilities_edc_lineage</title><style>.edge>path:hover{stroke-width:8}</style>
<path fill="none" stroke="black" d="M1017.21,-689.1C972.89,-672.97 914.36,-650.86 905.21,-643.32 855.13,-602.13 801.24,-434.67 748.21,-397.37 682.12,-350.9 587.67,-337.57 526.64,-334.08"/>
<polygon fill="#0909af" stroke="black" points="526.56,-330.57 516.4,-333.56 526.21,-337.56 526.56,-330.57"/>
</g>
<!-- src_metadata_utilities_mu_logging&#45;&gt;src_metadata_utilities_generic_settings -->
<g id="edge58" class="edge">
<title>src_metadata_utilities_mu_logging&#45;&gt;src_metadata_utilities_generic_settings</title><style>.edge>path:hover{stroke-width:8}</style>
<path fill="none" stroke="black" d="M1017.81,-688.86C1007.44,-685.42 996.53,-682.05 986.21,-679.32 903.11,-657.39 879.31,-665.26 796.21,-643.32 789.11,-641.45 781.73,-639.27 774.45,-636.98"/>
<polygon fill="#0909af" stroke="black" points="775.2,-633.54 764.6,-633.79 773.04,-640.2 775.2,-633.54"/>
</g>
<!-- src_metadata_utilities_mu_logging&#45;&gt;src_metadata_utilities_load_custom_attributes -->
<g id="edge59" class="edge">
<title>src_metadata_utilities_mu_logging&#45;&gt;src_metadata_utilities_load_custom_attributes</title><style>.edge>path:hover{stroke-width:8}</style>
<path fill="none" stroke="black" d="M1126.21,-613.33C1153.15,-518.36 1207.77,-491.57 1178.21,-397.37 1152.59,-315.75 1102.04,-317.98 1068.21,-239.4"/>
</g>
<!-- src_metadata_utilities_mu_logging&#45;&gt;src_metadata_utilities_load_json_metadata -->
<g id="edge60" class="edge">
<title>src_metadata_utilities_mu_logging&#45;&gt;src_metadata_utilities_load_json_metadata</title><style>.edge>path:hover{stroke-width:8}</style>
<path fill="none" stroke="black" d="M1126.21,-613.33C1137.69,-559.29 1125.6,-541.41 1102.21,-491.36 1079.46,-442.69 1065.74,-433.74 1026.21,-397.37 1005.25,-378.1 993.17,-381.68 973.21,-361.37 951.6,-339.41 958.83,-323.17 935.21,-303.39 885.92,-262.12 717.4,-199.92 623.57,-167.25"/>
<polygon fill="#0909af" stroke="black" points="624.49,-163.86 613.9,-163.89 622.2,-170.47 624.49,-163.86"/>
</g>
<!-- urllib3 -->
<g id="node28" class="node">
<title>urllib3</title><style>.edge>path:hover{stroke-width:8}</style>
<ellipse fill="#d926d9" stroke="black" cx="976.21" cy="-1219.79" rx="27" ry="18"/>
<text text-anchor="middle" x="976.21" y="-1217.29" font-family="Helvetica,sans-Serif" font-size="10.00" fill="#ffffff">urllib3</text>
</g>
<!-- urllib3&#45;&gt;requests -->
<g id="edge61" class="edge">
<title>urllib3&#45;&gt;requests</title><style>.edge>path:hover{stroke-width:8}</style>
<path fill="none" stroke="black" d="M976.21,-1164.79C954.13,-1053.77 860.02,-1084.04 767.21,-1019.25 763.16,-1016.43 758.89,-1013.45 754.7,-1010.52"/>
<polygon fill="#d926d9" stroke="black" points="756.52,-1007.52 746.32,-1004.66 752.51,-1013.26 756.52,-1007.52"/>
</g>
<!-- urllib3&#45;&gt;requests_exceptions -->
<g id="edge62" class="edge">
<title>urllib3&#45;&gt;requests_exceptions</title><style>.edge>path:hover{stroke-width:8}</style>
<path fill="none" stroke="black" d="M977.9,-1201.44C978.5,-1191.01 978.54,-1177.53 976.21,-1165.79"/>
<path fill="none" stroke="black" d="M976.21,-1164.79C968.44,-1125.73 852.32,-1106.37 781.44,-1098.15"/>
<polygon fill="#d926d9" stroke="black" points="781.65,-1094.65 771.33,-1097.01 780.87,-1101.61 781.65,-1094.65"/>
</g>
<!-- urllib3&#45;&gt;src_edc_utilities_edc_custom_attributes -->
<g id="edge63" class="edge">
<title>urllib3&#45;&gt;src_edc_utilities_edc_custom_attributes</title><style>.edge>path:hover{stroke-width:8}</style>
<path fill="none" stroke="black" d="M976.21,-1164.79C956.1,-1104.23 1069.77,-1173.6 1115.21,-1128.79 1190.09,-1054.94 1164.21,-1002.45 1164.21,-897.28 1164.21,-897.28 1164.21,-897.28 1164.21,-613.33 1164.21,-499.43 1119.28,-463.04 1026.21,-397.37 995.57,-375.76 956.92,-360.81 923.13,-350.83"/>
<polygon fill="#d926d9" stroke="black" points="923.85,-347.4 913.28,-348.02 921.93,-354.13 923.85,-347.4"/>
</g>
</g>
</svg>
