<?xml version="1.0" encoding="UTF-8" standalone="no"?>
<!DOCTYPE svg PUBLIC "-//W3C//DTD SVG 1.1//EN"
 "http://www.w3.org/Graphics/SVG/1.1/DTD/svg11.dtd">
<!-- Generated by graphviz version 2.44.0 (20200408.0750)
 -->
<!-- Title: G Pages: 1 -->
<svg width="741pt" height="358pt"
 viewBox="0.00 0.00 740.52 357.71" xmlns="http://www.w3.org/2000/svg" xmlns:xlink="http://www.w3.org/1999/xlink">
<g id="graph0" class="graph" transform="scale(1 1) rotate(0) translate(4 353.71)">
<title>G</title><style>.edge>path:hover{stroke-width:8}</style>
<polygon fill="white" stroke="transparent" points="-4,4 -4,-353.71 736.52,-353.71 736.52,4 -4,4"/>
<!-- dotenv -->
<g id="node1" class="node">
<title>dotenv</title><style>.edge>path:hover{stroke-width:8}</style>
<ellipse fill="#b65353" stroke="black" cx="661.88" cy="-256.49" rx="27.16" ry="18"/>
<text text-anchor="middle" x="661.88" y="-253.99" font-family="Helvetica,sans-Serif" font-size="10.00" fill="#ffffff">dotenv</text>
</g>
<!-- edc_utilities_edcSessionHelper -->
<g id="node2" class="node">
<title>edc_utilities_edcSessionHelper</title><style>.edge>path:hover{stroke-width:8}</style>
<ellipse fill="#c4c431" stroke="black" cx="620.88" cy="-99.64" rx="67.76" ry="21.43"/>
<text text-anchor="middle" x="620.88" y="-102.64" font-family="Helvetica,sans-Serif" font-size="10.00" fill="#000000">edc_utilities.</text>
<text text-anchor="middle" x="620.88" y="-91.64" font-family="Helvetica,sans-Serif" font-size="10.00" fill="#000000">edcSessionHelper</text>
</g>
<!-- dotenv&#45;&gt;edc_utilities_edcSessionHelper -->
<g id="edge1" class="edge">
<title>dotenv&#45;&gt;edc_utilities_edcSessionHelper</title><style>.edge>path:hover{stroke-width:8}</style>
<path fill="none" stroke="black" d="M657.42,-238.63C650.56,-212.74 637.35,-162.84 628.83,-130.67"/>
<polygon fill="#b65353" stroke="black" points="632.19,-129.67 626.25,-120.9 625.42,-131.47 632.19,-129.67"/>
</g>
<!-- edc_utilities_edc_lineage -->
<g id="node3" class="node">
<title>edc_utilities_edc_lineage</title><style>.edge>path:hover{stroke-width:8}</style>
<ellipse fill="#88883a" stroke="black" cx="417.88" cy="-21.21" rx="50.41" ry="21.43"/>
<text text-anchor="middle" x="417.88" y="-24.21" font-family="Helvetica,sans-Serif" font-size="10.00" fill="#ffffff">edc_utilities.</text>
<text text-anchor="middle" x="417.88" y="-13.21" font-family="Helvetica,sans-Serif" font-size="10.00" fill="#ffffff">edc_lineage</text>
</g>
<!-- edc_utilities_edcSessionHelper&#45;&gt;edc_utilities_edc_lineage -->
<g id="edge2" class="edge">
<title>edc_utilities_edcSessionHelper&#45;&gt;edc_utilities_edc_lineage</title><style>.edge>path:hover{stroke-width:8}</style>
<path fill="none" stroke="black" d="M578.82,-82.8C545.28,-70.18 498.36,-52.51 463.83,-39.51"/>
<polygon fill="#c4c431" stroke="black" points="465.04,-36.23 454.45,-35.98 462.57,-42.78 465.04,-36.23"/>
</g>
<!-- edc_utilities_setupConnection -->
<g id="node5" class="node">
<title>edc_utilities_setupConnection</title><style>.edge>path:hover{stroke-width:8}</style>
<ellipse fill="#a4a446" stroke="black" cx="668.88" cy="-21.21" rx="63.78" ry="21.43"/>
<text text-anchor="middle" x="668.88" y="-24.21" font-family="Helvetica,sans-Serif" font-size="10.00" fill="#000000">edc_utilities.</text>
<text text-anchor="middle" x="668.88" y="-13.21" font-family="Helvetica,sans-Serif" font-size="10.00" fill="#000000">setupConnection</text>
</g>
<!-- edc_utilities_edcSessionHelper&#45;&gt;edc_utilities_setupConnection -->
<g id="edge3" class="edge">
<title>edc_utilities_edcSessionHelper&#45;&gt;edc_utilities_setupConnection</title><style>.edge>path:hover{stroke-width:8}</style>
<path fill="none" stroke="black" d="M633.49,-78.56C638.84,-70.05 645.17,-59.97 650.98,-50.71"/>
<polygon fill="#c4c431" stroke="black" points="654,-52.49 656.36,-42.16 648.07,-48.77 654,-52.49"/>
</g>
<!-- edc_utilities_edcutils -->
<g id="node4" class="node">
<title>edc_utilities_edcutils</title><style>.edge>path:hover{stroke-width:8}</style>
<ellipse fill="#acac49" stroke="black" cx="484.88" cy="-99.64" rx="50.41" ry="21.43"/>
<text text-anchor="middle" x="484.88" y="-102.64" font-family="Helvetica,sans-Serif" font-size="10.00" fill="#000000">edc_utilities.</text>
<text text-anchor="middle" x="484.88" y="-91.64" font-family="Helvetica,sans-Serif" font-size="10.00" fill="#000000">edcutils</text>
</g>
<!-- jinja2 -->
<g id="node6" class="node">
<title>jinja2</title><style>.edge>path:hover{stroke-width:8}</style>
<ellipse fill="#53b653" stroke="black" cx="304.88" cy="-178.07" rx="27" ry="18"/>
<text text-anchor="middle" x="304.88" y="-175.57" font-family="Helvetica,sans-Serif" font-size="10.00" fill="#000000">jinja2</text>
</g>
<!-- jinja2&#45;&gt;edc_utilities_edc_lineage -->
<g id="edge4" class="edge">
<title>jinja2&#45;&gt;edc_utilities_edc_lineage</title><style>.edge>path:hover{stroke-width:8}</style>
<path fill="none" stroke="black" d="M285.78,-165.19C263.68,-149.97 232.43,-122.89 249.88,-100.64"/>
</g>
<!-- metadata_utilities -->
<g id="node7" class="node">
<title>metadata_utilities</title><style>.edge>path:hover{stroke-width:8}</style>
<ellipse fill="#3bcece" stroke="black" cx="404.88" cy="-178.07" rx="54.99" ry="18"/>
<text text-anchor="middle" x="404.88" y="-175.57" font-family="Helvetica,sans-Serif" font-size="10.00" fill="#000000">metadata_utilities</text>
</g>
<!-- metadata_utilities&#45;&gt;edc_utilities_edc_lineage -->
<g id="edge5" class="edge">
<title>metadata_utilities&#45;&gt;edc_utilities_edc_lineage</title><style>.edge>path:hover{stroke-width:8}</style>
<path fill="none" stroke="black" d="M370.61,-163.98C322.46,-145.1 241.5,-111.32 249.88,-100.64"/>
</g>
<!-- metadata_utilities_generic -->
<g id="node8" class="node">
<title>metadata_utilities_generic</title><style>.edge>path:hover{stroke-width:8}</style>
<ellipse fill="#46a4a4" stroke="black" cx="153.88" cy="-178.07" rx="67.76" ry="21.43"/>
<text text-anchor="middle" x="153.88" y="-181.07" font-family="Helvetica,sans-Serif" font-size="10.00" fill="#000000">metadata_utilities.</text>
<text text-anchor="middle" x="153.88" y="-170.07" font-family="Helvetica,sans-Serif" font-size="10.00" fill="#000000">generic</text>
</g>
<!-- metadata_utilities_generic&#45;&gt;edc_utilities_edc_lineage -->
<g id="edge6" class="edge">
<title>metadata_utilities_generic&#45;&gt;edc_utilities_edc_lineage</title><style>.edge>path:hover{stroke-width:8}</style>
<path fill="none" stroke="black" d="M183.81,-158.67C204.49,-144.76 231.47,-124.11 249.88,-100.64"/>
</g>
<!-- metadata_utilities_messages -->
<g id="node9" class="node">
<title>metadata_utilities_messages</title><style>.edge>path:hover{stroke-width:8}</style>
<ellipse fill="#47c2c2" stroke="black" cx="67.88" cy="-256.49" rx="67.76" ry="21.43"/>
<text text-anchor="middle" x="67.88" y="-259.49" font-family="Helvetica,sans-Serif" font-size="10.00" fill="#000000">metadata_utilities.</text>
<text text-anchor="middle" x="67.88" y="-248.49" font-family="Helvetica,sans-Serif" font-size="10.00" fill="#000000">messages</text>
</g>
<!-- metadata_utilities_messages&#45;&gt;edc_utilities_edc_lineage -->
<g id="edge7" class="edge">
<title>metadata_utilities_messages&#45;&gt;edc_utilities_edc_lineage</title><style>.edge>path:hover{stroke-width:8}</style>
<path fill="none" stroke="black" d="M249.88,-98.64C278.17,-63.64 325.99,-44.04 363.39,-33.48"/>
<polygon fill="#47c2c2" stroke="black" points="364.4,-36.83 373.15,-30.86 362.58,-30.07 364.4,-36.83"/>
<path fill="none" stroke="black" d="M63.72,-234.97C60.54,-213.17 59.29,-178.89 76.88,-156.85 127.33,-93.68 199.06,-163.51 249.88,-100.64"/>
</g>
<!-- metadata_utilities_messages&#45;&gt;metadata_utilities_generic -->
<g id="edge8" class="edge">
<title>metadata_utilities_messages&#45;&gt;metadata_utilities_generic</title><style>.edge>path:hover{stroke-width:8}</style>
<path fill="none" stroke="black" d="M89.58,-236.21C100.18,-226.79 113.08,-215.33 124.53,-205.15"/>
<polygon fill="#47c2c2" stroke="black" points="127.04,-207.6 132.19,-198.35 122.39,-202.37 127.04,-207.6"/>
</g>
<!-- metadata_utilities_mu_logging -->
<g id="node10" class="node">
<title>metadata_utilities_mu_logging</title><style>.edge>path:hover{stroke-width:8}</style>
<ellipse fill="#40bfc0" stroke="black" cx="240.88" cy="-256.49" rx="67.76" ry="21.43"/>
<text text-anchor="middle" x="240.88" y="-259.49" font-family="Helvetica,sans-Serif" font-size="10.00" fill="#000000">metadata_utilities.</text>
<text text-anchor="middle" x="240.88" y="-248.49" font-family="Helvetica,sans-Serif" font-size="10.00" fill="#000000">mu_logging</text>
</g>
<!-- metadata_utilities_mu_logging&#45;&gt;edc_utilities_edc_lineage -->
<g id="edge9" class="edge">
<title>metadata_utilities_mu_logging&#45;&gt;edc_utilities_edc_lineage</title><style>.edge>path:hover{stroke-width:8}</style>
<path fill="none" stroke="black" d="M239.3,-235.11C236.84,-197.91 233.93,-120.98 249.88,-100.64"/>
</g>
<!-- metadata_utilities_mu_logging&#45;&gt;metadata_utilities_generic -->
<g id="edge10" class="edge">
<title>metadata_utilities_mu_logging&#45;&gt;metadata_utilities_generic</title><style>.edge>path:hover{stroke-width:8}</style>
<path fill="none" stroke="black" d="M218.93,-236.21C208.21,-226.79 195.16,-215.33 183.57,-205.15"/>
<polygon fill="#40bfc0" stroke="black" points="185.65,-202.32 175.83,-198.35 181.03,-207.57 185.65,-202.32"/>
</g>
<!-- requests -->
<g id="node11" class="node">
<title>requests</title><style>.edge>path:hover{stroke-width:8}</style>
<ellipse fill="#3131c4" stroke="black" cx="584.88" cy="-256.49" rx="31.58" ry="18"/>
<text text-anchor="middle" x="584.88" y="-253.99" font-family="Helvetica,sans-Serif" font-size="10.00" fill="#ffffff">requests</text>
</g>
<!-- requests&#45;&gt;edc_utilities_edcSessionHelper -->
<g id="edge11" class="edge">
<title>requests&#45;&gt;edc_utilities_edcSessionHelper</title><style>.edge>path:hover{stroke-width:8}</style>
<path fill="none" stroke="black" d="M602.88,-177.07C600.21,-161.61 603.58,-144.61 608.1,-130.57"/>
<polygon fill="#3131c4" stroke="black" points="611.47,-131.53 611.52,-120.94 604.87,-129.19 611.47,-131.53"/>
</g>
<!-- requests&#45;&gt;edc_utilities_edcutils -->
<g id="edge12" class="edge">
<title>requests&#45;&gt;edc_utilities_edcutils</title><style>.edge>path:hover{stroke-width:8}</style>
<path fill="none" stroke="black" d="M602.88,-177.07C599.78,-159.12 560.18,-136.12 527.7,-120.06"/>
<polygon fill="#3131c4" stroke="black" points="528.85,-116.73 518.33,-115.52 525.8,-123.03 528.85,-116.73"/>
<path fill="none" stroke="black" d="M592.76,-238.91C599.12,-223.51 606.48,-199.89 602.88,-179.07"/>
</g>
<!-- requests_auth -->
<g id="node12" class="node">
<title>requests_auth</title><style>.edge>path:hover{stroke-width:8}</style>
<ellipse fill="#5353b6" stroke="black" cx="487.88" cy="-256.49" rx="44.98" ry="18"/>
<text text-anchor="middle" x="487.88" y="-253.99" font-family="Helvetica,sans-Serif" font-size="10.00" fill="#ffffff">requests.auth</text>
</g>
<!-- requests_auth&#45;&gt;edc_utilities_edcutils -->
<g id="edge13" class="edge">
<title>requests_auth&#45;&gt;edc_utilities_edcutils</title><style>.edge>path:hover{stroke-width:8}</style>
<path fill="none" stroke="black" d="M487.55,-238.33C487.05,-212.51 486.1,-163.28 485.47,-131.22"/>
<polygon fill="#5353b6" stroke="black" points="488.97,-130.99 485.28,-121.06 481.97,-131.13 488.97,-130.99"/>
</g>
<!-- urllib3 -->
<g id="node13" class="node">
<title>urllib3</title><style>.edge>path:hover{stroke-width:8}</style>
<ellipse fill="#cc33cc" stroke="black" cx="650.88" cy="-331.71" rx="27" ry="18"/>
<text text-anchor="middle" x="650.88" y="-329.21" font-family="Helvetica,sans-Serif" font-size="10.00" fill="#ffffff">urllib3</text>
</g>
<!-- urllib3&#45;&gt;edc_utilities_setupConnection -->
<g id="edge14" class="edge">
<title>urllib3&#45;&gt;edc_utilities_setupConnection</title><style>.edge>path:hover{stroke-width:8}</style>
<path fill="none" stroke="black" d="M667.8,-317.42C678.67,-307.73 691.86,-293.57 697.88,-277.71 729.31,-194.9 718.78,-164.5 697.88,-78.43 695.6,-69.02 691.45,-59.43 686.99,-50.9"/>
<polygon fill="#cc33cc" stroke="black" points="690.03,-49.15 682.11,-42.11 683.91,-52.55 690.03,-49.15"/>
</g>
<!-- urllib3&#45;&gt;requests -->
<g id="edge15" class="edge">
<title>urllib3&#45;&gt;requests</title><style>.edge>path:hover{stroke-width:8}</style>
<path fill="none" stroke="black" d="M637.53,-315.89C628.34,-305.71 615.97,-291.98 605.53,-280.4"/>
<polygon fill="#cc33cc" stroke="black" points="607.97,-277.87 598.67,-272.79 602.77,-282.56 607.97,-277.87"/>
</g>
</g>
</svg>
