<?xml version="1.0" encoding="UTF-8" standalone="no"?>
<!DOCTYPE svg PUBLIC "-//W3C//DTD SVG 1.1//EN"
 "http://www.w3.org/Graphics/SVG/1.1/DTD/svg11.dtd">
<!-- Generated by graphviz version 2.44.1 (20200629.0846)
 -->
<!-- Title: G Pages: 1 -->
<svg width="782pt" height="286pt"
 viewBox="0.00 0.00 781.62 285.71" xmlns="http://www.w3.org/2000/svg" xmlns:xlink="http://www.w3.org/1999/xlink">
<g id="graph0" class="graph" transform="scale(1 1) rotate(0) translate(4 281.71)">
<title>G</title><style>.edge>path:hover{stroke-width:8}</style>
<polygon fill="white" stroke="transparent" points="-4,4 -4,-281.71 777.62,-281.71 777.62,4 -4,4"/>
<!-- dotenv -->
<g id="node1" class="node">
<title>dotenv</title><style>.edge>path:hover{stroke-width:8}</style>
<ellipse fill="#b65353" stroke="black" cx="555.88" cy="-256.49" rx="27.16" ry="18"/>
<text text-anchor="middle" x="555.88" y="-253.99" font-family="Helvetica,sans-Serif" font-size="10.00" fill="#ffffff">dotenv</text>
</g>
<!-- edc_utilities_edcSessionHelper -->
<g id="node2" class="node">
<title>edc_utilities_edcSessionHelper</title><style>.edge>path:hover{stroke-width:8}</style>
<ellipse fill="#a7c431" stroke="black" cx="540.88" cy="-99.64" rx="67.76" ry="21.43"/>
<text text-anchor="middle" x="540.88" y="-102.64" font-family="Helvetica,sans-Serif" font-size="10.00" fill="#000000">edc_utilities.</text>
<text text-anchor="middle" x="540.88" y="-91.64" font-family="Helvetica,sans-Serif" font-size="10.00" fill="#000000">edcSessionHelper</text>
</g>
<!-- dotenv&#45;&gt;edc_utilities_edcSessionHelper -->
<g id="edge1" class="edge">
<title>dotenv&#45;&gt;edc_utilities_edcSessionHelper</title><style>.edge>path:hover{stroke-width:8}</style>
<path fill="none" stroke="black" d="M554.22,-238.33C551.72,-212.51 546.95,-163.28 543.84,-131.22"/>
<polygon fill="#b65353" stroke="black" points="547.31,-130.68 542.86,-121.06 540.34,-131.36 547.31,-130.68"/>
</g>
<!-- edc_utilities_edc_lineage -->
<g id="node3" class="node">
<title>edc_utilities_edc_lineage</title><style>.edge>path:hover{stroke-width:8}</style>
<ellipse fill="#78883a" stroke="black" cx="402.88" cy="-21.21" rx="50.41" ry="21.43"/>
<text text-anchor="middle" x="402.88" y="-24.21" font-family="Helvetica,sans-Serif" font-size="10.00" fill="#ffffff">edc_utilities.</text>
<text text-anchor="middle" x="402.88" y="-13.21" font-family="Helvetica,sans-Serif" font-size="10.00" fill="#ffffff">edc_lineage</text>
</g>
<!-- edc_utilities_edcSessionHelper&#45;&gt;edc_utilities_edc_lineage -->
<g id="edge2" class="edge">
<title>edc_utilities_edcSessionHelper&#45;&gt;edc_utilities_edc_lineage</title><style>.edge>path:hover{stroke-width:8}</style>
<path fill="none" stroke="black" d="M508.88,-80.91C488.67,-69.72 462.46,-55.21 441.16,-43.41"/>
<polygon fill="#a7c431" stroke="black" points="442.8,-40.32 432.36,-38.54 439.41,-46.44 442.8,-40.32"/>
</g>
<!-- edc_utilities_tryout -->
<g id="node5" class="node">
<title>edc_utilities_tryout</title><style>.edge>path:hover{stroke-width:8}</style>
<ellipse fill="#92a446" stroke="black" cx="608.88" cy="-21.21" rx="50.41" ry="21.43"/>
<text text-anchor="middle" x="608.88" y="-24.21" font-family="Helvetica,sans-Serif" font-size="10.00" fill="#000000">edc_utilities.</text>
<text text-anchor="middle" x="608.88" y="-13.21" font-family="Helvetica,sans-Serif" font-size="10.00" fill="#000000">tryout</text>
</g>
<!-- edc_utilities_edcSessionHelper&#45;&gt;edc_utilities_tryout -->
<g id="edge3" class="edge">
<title>edc_utilities_edcSessionHelper&#45;&gt;edc_utilities_tryout</title><style>.edge>path:hover{stroke-width:8}</style>
<path fill="none" stroke="black" d="M558.39,-78.96C566.53,-69.81 576.33,-58.8 585.12,-48.92"/>
<polygon fill="#a7c431" stroke="black" points="587.87,-51.1 591.9,-41.3 582.64,-46.44 587.87,-51.1"/>
</g>
<!-- edc_utilities_edcutils -->
<g id="node4" class="node">
<title>edc_utilities_edcutils</title><style>.edge>path:hover{stroke-width:8}</style>
<ellipse fill="#9fb83d" stroke="black" cx="676.88" cy="-99.64" rx="50.41" ry="21.43"/>
<text text-anchor="middle" x="676.88" y="-102.64" font-family="Helvetica,sans-Serif" font-size="10.00" fill="#000000">edc_utilities.</text>
<text text-anchor="middle" x="676.88" y="-91.64" font-family="Helvetica,sans-Serif" font-size="10.00" fill="#000000">edcutils</text>
</g>
<!-- edc_utilities_edcutils&#45;&gt;edc_utilities_tryout -->
<g id="edge4" class="edge">
<title>edc_utilities_edcutils&#45;&gt;edc_utilities_tryout</title><style>.edge>path:hover{stroke-width:8}</style>
<path fill="none" stroke="black" d="M659.72,-79.35C651.53,-70.14 641.58,-58.97 632.67,-48.95"/>
<polygon fill="#9fb83d" stroke="black" points="635.06,-46.37 625.8,-41.23 629.83,-51.03 635.06,-46.37"/>
</g>
<!-- jinja2 -->
<g id="node6" class="node">
<title>jinja2</title><style>.edge>path:hover{stroke-width:8}</style>
<ellipse fill="#53b67b" stroke="black" cx="372.88" cy="-178.07" rx="27" ry="18"/>
<text text-anchor="middle" x="372.88" y="-175.57" font-family="Helvetica,sans-Serif" font-size="10.00" fill="#000000">jinja2</text>
</g>
<!-- jinja2&#45;&gt;edc_utilities_edc_lineage -->
<g id="edge5" class="edge">
<title>jinja2&#45;&gt;edc_utilities_edc_lineage</title><style>.edge>path:hover{stroke-width:8}</style>
<path fill="none" stroke="black" d="M353.44,-165.28C320.44,-145.09 257.26,-105.6 259.88,-100.64"/>
</g>
<!-- metadata_utilities -->
<g id="node7" class="node">
<title>metadata_utilities</title><style>.edge>path:hover{stroke-width:8}</style>
<ellipse fill="#3b76ce" stroke="black" cx="472.88" cy="-178.07" rx="54.99" ry="18"/>
<text text-anchor="middle" x="472.88" y="-175.57" font-family="Helvetica,sans-Serif" font-size="10.00" fill="#ffffff">metadata_utilities</text>
</g>
<!-- metadata_utilities&#45;&gt;edc_utilities_edc_lineage -->
<g id="edge6" class="edge">
<title>metadata_utilities&#45;&gt;edc_utilities_edc_lineage</title><style>.edge>path:hover{stroke-width:8}</style>
<path fill="none" stroke="black" d="M435.82,-164.78C374.23,-144.23 257.72,-104.73 259.88,-100.64"/>
</g>
<!-- metadata_utilities_generic -->
<g id="node8" class="node">
<title>metadata_utilities_generic</title><style>.edge>path:hover{stroke-width:8}</style>
<ellipse fill="#4971ac" stroke="black" cx="67.88" cy="-178.07" rx="67.76" ry="21.43"/>
<text text-anchor="middle" x="67.88" y="-181.07" font-family="Helvetica,sans-Serif" font-size="10.00" fill="#ffffff">metadata_utilities.</text>
<text text-anchor="middle" x="67.88" y="-170.07" font-family="Helvetica,sans-Serif" font-size="10.00" fill="#ffffff">generic</text>
</g>
<!-- metadata_utilities_generic&#45;&gt;edc_utilities_edc_lineage -->
<g id="edge7" class="edge">
<title>metadata_utilities_generic&#45;&gt;edc_utilities_edc_lineage</title><style>.edge>path:hover{stroke-width:8}</style>
<path fill="none" stroke="black" d="M259.88,-98.64C277.65,-65.04 316.46,-45.62 349.17,-34.77"/>
<polygon fill="#4971ac" stroke="black" points="350.59,-37.99 359.09,-31.67 348.5,-31.31 350.59,-37.99"/>
<path fill="none" stroke="black" d="M120.08,-164.37C172.12,-150.41 246.22,-126.49 259.88,-100.64"/>
</g>
<!-- metadata_utilities_messages -->
<g id="node9" class="node">
<title>metadata_utilities_messages</title><style>.edge>path:hover{stroke-width:8}</style>
<ellipse fill="#4778c2" stroke="black" cx="115.88" cy="-256.49" rx="67.76" ry="21.43"/>
<text text-anchor="middle" x="115.88" y="-259.49" font-family="Helvetica,sans-Serif" font-size="10.00" fill="#ffffff">metadata_utilities.</text>
<text text-anchor="middle" x="115.88" y="-248.49" font-family="Helvetica,sans-Serif" font-size="10.00" fill="#ffffff">messages</text>
</g>
<!-- metadata_utilities_messages&#45;&gt;edc_utilities_edc_lineage -->
<g id="edge8" class="edge">
<title>metadata_utilities_messages&#45;&gt;edc_utilities_edc_lineage</title><style>.edge>path:hover{stroke-width:8}</style>
<path fill="none" stroke="black" d="M126.7,-235.5C138.68,-214.47 159.43,-181.11 182.88,-156.85 212.33,-126.39 240.08,-138.1 259.88,-100.64"/>
</g>
<!-- metadata_utilities_messages&#45;&gt;metadata_utilities_generic -->
<g id="edge9" class="edge">
<title>metadata_utilities_messages&#45;&gt;metadata_utilities_generic</title><style>.edge>path:hover{stroke-width:8}</style>
<path fill="none" stroke="black" d="M103.27,-235.41C97.92,-226.9 91.6,-216.82 85.78,-207.56"/>
<polygon fill="#4778c2" stroke="black" points="88.69,-205.62 80.41,-199.01 82.76,-209.34 88.69,-205.62"/>
</g>
<!-- metadata_utilities_mu_logging -->
<g id="node10" class="node">
<title>metadata_utilities_mu_logging</title><style>.edge>path:hover{stroke-width:8}</style>
<ellipse fill="#4c75b3" stroke="black" cx="259.88" cy="-178.07" rx="67.76" ry="21.43"/>
<text text-anchor="middle" x="259.88" y="-181.07" font-family="Helvetica,sans-Serif" font-size="10.00" fill="#ffffff">metadata_utilities.</text>
<text text-anchor="middle" x="259.88" y="-170.07" font-family="Helvetica,sans-Serif" font-size="10.00" fill="#ffffff">mu_logging</text>
</g>
<!-- metadata_utilities_mu_logging&#45;&gt;edc_utilities_edc_lineage -->
<g id="edge10" class="edge">
<title>metadata_utilities_mu_logging&#45;&gt;edc_utilities_edc_lineage</title><style>.edge>path:hover{stroke-width:8}</style>
<path fill="none" stroke="black" d="M254.92,-156.68C252.12,-140.52 250.77,-117.88 259.88,-100.64"/>
</g>
<!-- requests -->
<g id="node11" class="node">
<title>requests</title><style>.edge>path:hover{stroke-width:8}</style>
<ellipse fill="#ae33cc" stroke="black" cx="633.88" cy="-256.49" rx="31.58" ry="18"/>
<text text-anchor="middle" x="633.88" y="-253.99" font-family="Helvetica,sans-Serif" font-size="10.00" fill="#ffffff">requests</text>
</g>
<!-- requests&#45;&gt;edc_utilities_edcSessionHelper -->
<g id="edge11" class="edge">
<title>requests&#45;&gt;edc_utilities_edcSessionHelper</title><style>.edge>path:hover{stroke-width:8}</style>
<path fill="none" stroke="black" d="M645.14,-239.38C654.4,-224.31 665.61,-200.89 662.88,-179.07"/>
<path fill="none" stroke="black" d="M662.88,-177.07C659.11,-146.87 631.33,-128.11 603.24,-116.74"/>
<polygon fill="#ae33cc" stroke="black" points="604.33,-113.41 593.73,-113.16 601.86,-119.96 604.33,-113.41"/>
</g>
<!-- requests&#45;&gt;edc_utilities_edcutils -->
<g id="edge12" class="edge">
<title>requests&#45;&gt;edc_utilities_edcutils</title><style>.edge>path:hover{stroke-width:8}</style>
<path fill="none" stroke="black" d="M662.88,-177.07C660.94,-161.56 663.63,-144.43 667.15,-130.33"/>
<polygon fill="#ae33cc" stroke="black" points="670.53,-131.23 669.8,-120.66 663.78,-129.37 670.53,-131.23"/>
</g>
<!-- requests_auth -->
<g id="node12" class="node">
<title>requests_auth</title><style>.edge>path:hover{stroke-width:8}</style>
<ellipse fill="#a253b6" stroke="black" cx="728.88" cy="-256.49" rx="44.98" ry="18"/>
<text text-anchor="middle" x="728.88" y="-253.99" font-family="Helvetica,sans-Serif" font-size="10.00" fill="#ffffff">requests.auth</text>
</g>
<!-- requests_auth&#45;&gt;edc_utilities_edcutils -->
<g id="edge13" class="edge">
<title>requests_auth&#45;&gt;edc_utilities_edcutils</title><style>.edge>path:hover{stroke-width:8}</style>
<path fill="none" stroke="black" d="M723.22,-238.63C714.53,-212.74 697.77,-162.84 686.97,-130.67"/>
<polygon fill="#a253b6" stroke="black" points="690.19,-129.27 683.69,-120.9 683.55,-131.5 690.19,-129.27"/>
</g>
</g>
</svg>
