<?xml version="1.0" encoding="UTF-8" standalone="no"?>
<!DOCTYPE svg PUBLIC "-//W3C//DTD SVG 1.1//EN"
 "http://www.w3.org/Graphics/SVG/1.1/DTD/svg11.dtd">
<!-- Generated by graphviz version 2.44.0 (20200408.0750)
 -->
<!-- Title: G Pages: 1 -->
<svg width="857pt" height="364pt"
 viewBox="0.00 0.00 857.10 364.13" xmlns="http://www.w3.org/2000/svg" xmlns:xlink="http://www.w3.org/1999/xlink">
<g id="graph0" class="graph" transform="scale(1 1) rotate(0) translate(4 360.13)">
<title>G</title><style>.edge>path:hover{stroke-width:8}</style>
<polygon fill="white" stroke="transparent" points="-4,4 -4,-360.13 853.1,-360.13 853.1,4 -4,4"/>
<!-- dotenv -->
<g id="node1" class="node">
<title>dotenv</title><style>.edge>path:hover{stroke-width:8}</style>
<ellipse fill="#b65353" stroke="black" cx="274.2" cy="-256.49" rx="27.16" ry="18"/>
<text text-anchor="middle" x="274.2" y="-253.99" font-family="Helvetica,sans-Serif" font-size="10.00" fill="#ffffff">dotenv</text>
</g>
<!-- edc_utilities_edcSessionHelper -->
<g id="node3" class="node">
<title>edc_utilities_edcSessionHelper</title><style>.edge>path:hover{stroke-width:8}</style>
<ellipse fill="#dddd18" stroke="black" cx="215.2" cy="-99.64" rx="67.76" ry="21.43"/>
<text text-anchor="middle" x="215.2" y="-102.64" font-family="Helvetica,sans-Serif" font-size="10.00" fill="#000000">edc_utilities.</text>
<text text-anchor="middle" x="215.2" y="-91.64" font-family="Helvetica,sans-Serif" font-size="10.00" fill="#000000">edcSessionHelper</text>
</g>
<!-- dotenv&#45;&gt;edc_utilities_edcSessionHelper -->
<g id="edge1" class="edge">
<title>dotenv&#45;&gt;edc_utilities_edcSessionHelper</title><style>.edge>path:hover{stroke-width:8}</style>
<path fill="none" stroke="black" d="M267.89,-238.92C258,-212.97 238.73,-162.38 226.44,-130.12"/>
<polygon fill="#b65353" stroke="black" points="229.69,-128.84 222.86,-120.74 223.15,-131.33 229.69,-128.84"/>
</g>
<!-- edc_utilities_EDCQuery_template -->
<g id="node2" class="node">
<title>edc_utilities_EDCQuery_template</title><style>.edge>path:hover{stroke-width:8}</style>
<ellipse fill="#a4a446" stroke="black" cx="194.2" cy="-21.21" rx="75.82" ry="21.43"/>
<text text-anchor="middle" x="194.2" y="-24.21" font-family="Helvetica,sans-Serif" font-size="10.00" fill="#000000">edc_utilities.</text>
<text text-anchor="middle" x="194.2" y="-13.21" font-family="Helvetica,sans-Serif" font-size="10.00" fill="#000000">EDCQuery_template</text>
</g>
<!-- edc_utilities_edcSessionHelper&#45;&gt;edc_utilities_EDCQuery_template -->
<g id="edge2" class="edge">
<title>edc_utilities_edcSessionHelper&#45;&gt;edc_utilities_EDCQuery_template</title><style>.edge>path:hover{stroke-width:8}</style>
<path fill="none" stroke="black" d="M209.58,-78.16C207.39,-70.21 204.85,-60.95 202.47,-52.28"/>
<polygon fill="#dddd18" stroke="black" points="205.8,-51.2 199.77,-42.49 199.05,-53.06 205.8,-51.2"/>
</g>
<!-- edc_utilities_edc_lineage -->
<g id="node4" class="node">
<title>edc_utilities_edc_lineage</title><style>.edge>path:hover{stroke-width:8}</style>
<ellipse fill="#818137" stroke="black" cx="561.2" cy="-21.21" rx="50.41" ry="21.43"/>
<text text-anchor="middle" x="561.2" y="-24.21" font-family="Helvetica,sans-Serif" font-size="10.00" fill="#ffffff">edc_utilities.</text>
<text text-anchor="middle" x="561.2" y="-13.21" font-family="Helvetica,sans-Serif" font-size="10.00" fill="#ffffff">edc_lineage</text>
</g>
<!-- edc_utilities_edcSessionHelper&#45;&gt;edc_utilities_edc_lineage -->
<g id="edge3" class="edge">
<title>edc_utilities_edcSessionHelper&#45;&gt;edc_utilities_edc_lineage</title><style>.edge>path:hover{stroke-width:8}</style>
<path fill="none" stroke="black" d="M269.27,-86.7C334.31,-72.33 442.81,-48.36 507.63,-34.05"/>
<polygon fill="#dddd18" stroke="black" points="508.64,-37.41 517.65,-31.83 507.13,-30.57 508.64,-37.41"/>
</g>
<!-- edc_utilities_setupConnection -->
<g id="node6" class="node">
<title>edc_utilities_setupConnection</title><style>.edge>path:hover{stroke-width:8}</style>
<ellipse fill="#a4a446" stroke="black" cx="351.2" cy="-21.21" rx="63.78" ry="21.43"/>
<text text-anchor="middle" x="351.2" y="-24.21" font-family="Helvetica,sans-Serif" font-size="10.00" fill="#000000">edc_utilities.</text>
<text text-anchor="middle" x="351.2" y="-13.21" font-family="Helvetica,sans-Serif" font-size="10.00" fill="#000000">setupConnection</text>
</g>
<!-- edc_utilities_edcSessionHelper&#45;&gt;edc_utilities_setupConnection -->
<g id="edge4" class="edge">
<title>edc_utilities_edcSessionHelper&#45;&gt;edc_utilities_setupConnection</title><style>.edge>path:hover{stroke-width:8}</style>
<path fill="none" stroke="black" d="M247.09,-80.72C266.24,-69.96 290.77,-56.17 311.21,-44.69"/>
<polygon fill="#dddd18" stroke="black" points="312.98,-47.71 319.99,-39.76 309.55,-41.6 312.98,-47.71"/>
</g>
<!-- edc_utilities_tryout -->
<g id="node7" class="node">
<title>edc_utilities_tryout</title><style>.edge>path:hover{stroke-width:8}</style>
<ellipse fill="#a4a446" stroke="black" cx="50.2" cy="-21.21" rx="50.41" ry="21.43"/>
<text text-anchor="middle" x="50.2" y="-24.21" font-family="Helvetica,sans-Serif" font-size="10.00" fill="#000000">edc_utilities.</text>
<text text-anchor="middle" x="50.2" y="-13.21" font-family="Helvetica,sans-Serif" font-size="10.00" fill="#000000">tryout</text>
</g>
<!-- edc_utilities_edcSessionHelper&#45;&gt;edc_utilities_tryout -->
<g id="edge5" class="edge">
<title>edc_utilities_edcSessionHelper&#45;&gt;edc_utilities_tryout</title><style>.edge>path:hover{stroke-width:8}</style>
<path fill="none" stroke="black" d="M178.59,-81.68C153.02,-69.84 118.84,-54 92.18,-41.65"/>
<polygon fill="#dddd18" stroke="black" points="93.63,-38.47 83.08,-37.44 90.69,-44.82 93.63,-38.47"/>
</g>
<!-- edc_utilities_edcutils -->
<g id="node5" class="node">
<title>edc_utilities_edcutils</title><style>.edge>path:hover{stroke-width:8}</style>
<ellipse fill="#c4c431" stroke="black" cx="79.2" cy="-99.64" rx="50.41" ry="21.43"/>
<text text-anchor="middle" x="79.2" y="-102.64" font-family="Helvetica,sans-Serif" font-size="10.00" fill="#000000">edc_utilities.</text>
<text text-anchor="middle" x="79.2" y="-91.64" font-family="Helvetica,sans-Serif" font-size="10.00" fill="#000000">edcutils</text>
</g>
<!-- edc_utilities_edcutils&#45;&gt;edc_utilities_EDCQuery_template -->
<g id="edge6" class="edge">
<title>edc_utilities_edcutils&#45;&gt;edc_utilities_EDCQuery_template</title><style>.edge>path:hover{stroke-width:8}</style>
<path fill="none" stroke="black" d="M105.3,-81.3C120.65,-71.1 140.31,-58.03 157.23,-46.78"/>
<polygon fill="#c4c431" stroke="black" points="159.4,-49.54 165.8,-41.09 155.53,-43.71 159.4,-49.54"/>
</g>
<!-- edc_utilities_edcutils&#45;&gt;edc_utilities_tryout -->
<g id="edge7" class="edge">
<title>edc_utilities_edcutils&#45;&gt;edc_utilities_tryout</title><style>.edge>path:hover{stroke-width:8}</style>
<path fill="none" stroke="black" d="M71.59,-78.56C68.48,-70.37 64.83,-60.75 61.43,-51.79"/>
<polygon fill="#c4c431" stroke="black" points="64.69,-50.53 57.87,-42.42 58.15,-53.02 64.69,-50.53"/>
</g>
<!-- jinja2 -->
<g id="node8" class="node">
<title>jinja2</title><style>.edge>path:hover{stroke-width:8}</style>
<ellipse fill="#53b653" stroke="black" cx="672.2" cy="-178.07" rx="27" ry="18"/>
<text text-anchor="middle" x="672.2" y="-175.57" font-family="Helvetica,sans-Serif" font-size="10.00" fill="#000000">jinja2</text>
</g>
<!-- jinja2&#45;&gt;edc_utilities_edc_lineage -->
<g id="edge8" class="edge">
<title>jinja2&#45;&gt;edc_utilities_edc_lineage</title><style>.edge>path:hover{stroke-width:8}</style>
<path fill="none" stroke="black" d="M659.38,-162.14C647.18,-147.35 628.99,-123.62 617.2,-100.64"/>
</g>
<!-- metadata_utilities -->
<g id="node9" class="node">
<title>metadata_utilities</title><style>.edge>path:hover{stroke-width:8}</style>
<ellipse fill="#3bcece" stroke="black" cx="772.2" cy="-178.07" rx="54.99" ry="18"/>
<text text-anchor="middle" x="772.2" y="-175.57" font-family="Helvetica,sans-Serif" font-size="10.00" fill="#000000">metadata_utilities</text>
</g>
<!-- metadata_utilities&#45;&gt;edc_utilities_edc_lineage -->
<g id="edge9" class="edge">
<title>metadata_utilities&#45;&gt;edc_utilities_edc_lineage</title><style>.edge>path:hover{stroke-width:8}</style>
<path fill="none" stroke="black" d="M735.42,-164.67C693.38,-149.59 628.84,-123.33 617.2,-100.64"/>
</g>
<!-- metadata_utilities_generic -->
<g id="node10" class="node">
<title>metadata_utilities_generic</title><style>.edge>path:hover{stroke-width:8}</style>
<ellipse fill="#439d9d" stroke="black" cx="521.2" cy="-178.07" rx="67.76" ry="21.43"/>
<text text-anchor="middle" x="521.2" y="-181.07" font-family="Helvetica,sans-Serif" font-size="10.00" fill="#000000">metadata_utilities.</text>
<text text-anchor="middle" x="521.2" y="-170.07" font-family="Helvetica,sans-Serif" font-size="10.00" fill="#000000">generic</text>
</g>
<!-- metadata_utilities_generic&#45;&gt;edc_utilities_edc_lineage -->
<g id="edge10" class="edge">
<title>metadata_utilities_generic&#45;&gt;edc_utilities_edc_lineage</title><style>.edge>path:hover{stroke-width:8}</style>
<path fill="none" stroke="black" d="M567.01,-162.19C598.18,-149.28 631.4,-128.31 617.2,-100.64"/>
</g>
<!-- metadata_utilities_generic_settings -->
<g id="node11" class="node">
<title>metadata_utilities_generic_settings</title><style>.edge>path:hover{stroke-width:8}</style>
<ellipse fill="#3bcece" stroke="black" cx="617.2" cy="-334.92" rx="67.76" ry="21.43"/>
<text text-anchor="middle" x="617.2" y="-337.92" font-family="Helvetica,sans-Serif" font-size="10.00" fill="#000000">metadata_utilities.</text>
<text text-anchor="middle" x="617.2" y="-326.92" font-family="Helvetica,sans-Serif" font-size="10.00" fill="#000000">generic_settings</text>
</g>
<!-- metadata_utilities_generic_settings&#45;&gt;edc_utilities_edc_lineage -->
<g id="edge11" class="edge">
<title>metadata_utilities_generic_settings&#45;&gt;edc_utilities_edc_lineage</title><style>.edge>path:hover{stroke-width:8}</style>
<path fill="none" stroke="black" d="M664.09,-319.53C744.15,-292.56 893.29,-230.45 836.2,-156.85 774.61,-77.45 664.98,-189.04 617.2,-100.64"/>
</g>
<!-- metadata_utilities_generic_settings&#45;&gt;metadata_utilities_generic -->
<g id="edge12" class="edge">
<title>metadata_utilities_generic_settings&#45;&gt;metadata_utilities_generic</title><style>.edge>path:hover{stroke-width:8}</style>
<path fill="none" stroke="black" d="M582.53,-316.42C567.26,-306.98 550.49,-293.92 540.2,-277.71 527.32,-257.39 522.8,-230.32 521.38,-209.68"/>
<polygon fill="#3bcece" stroke="black" points="524.87,-209.37 520.89,-199.55 517.88,-209.7 524.87,-209.37"/>
</g>
<!-- metadata_utilities_mu_logging -->
<g id="node13" class="node">
<title>metadata_utilities_mu_logging</title><style>.edge>path:hover{stroke-width:8}</style>
<ellipse fill="#3db8b8" stroke="black" cx="617.2" cy="-256.49" rx="67.76" ry="21.43"/>
<text text-anchor="middle" x="617.2" y="-259.49" font-family="Helvetica,sans-Serif" font-size="10.00" fill="#000000">metadata_utilities.</text>
<text text-anchor="middle" x="617.2" y="-248.49" font-family="Helvetica,sans-Serif" font-size="10.00" fill="#000000">mu_logging</text>
</g>
<!-- metadata_utilities_generic_settings&#45;&gt;metadata_utilities_mu_logging -->
<g id="edge13" class="edge">
<title>metadata_utilities_generic_settings&#45;&gt;metadata_utilities_mu_logging</title><style>.edge>path:hover{stroke-width:8}</style>
<path fill="none" stroke="black" d="M617.2,-313.44C617.2,-305.58 617.2,-296.44 617.2,-287.84"/>
<polygon fill="#3bcece" stroke="black" points="620.7,-287.76 617.2,-277.76 613.7,-287.76 620.7,-287.76"/>
</g>
<!-- metadata_utilities_messages -->
<g id="node12" class="node">
<title>metadata_utilities_messages</title><style>.edge>path:hover{stroke-width:8}</style>
<ellipse fill="#47c2c2" stroke="black" cx="425.2" cy="-256.49" rx="67.76" ry="21.43"/>
<text text-anchor="middle" x="425.2" y="-259.49" font-family="Helvetica,sans-Serif" font-size="10.00" fill="#000000">metadata_utilities.</text>
<text text-anchor="middle" x="425.2" y="-248.49" font-family="Helvetica,sans-Serif" font-size="10.00" fill="#000000">messages</text>
</g>
<!-- metadata_utilities_messages&#45;&gt;edc_utilities_edc_lineage -->
<g id="edge14" class="edge">
<title>metadata_utilities_messages&#45;&gt;edc_utilities_edc_lineage</title><style>.edge>path:hover{stroke-width:8}</style>
<path fill="none" stroke="black" d="M617.2,-98.64C607.95,-81.13 595.02,-63.19 583.91,-49.1"/>
<polygon fill="#47c2c2" stroke="black" points="586.62,-46.88 577.63,-41.27 581.16,-51.26 586.62,-46.88"/>
<path fill="none" stroke="black" d="M423.48,-235.14C422.77,-213.16 425.16,-178.42 444.2,-156.85 497.72,-96.26 654.98,-172.12 617.2,-100.64"/>
</g>
<!-- metadata_utilities_messages&#45;&gt;metadata_utilities_generic -->
<g id="edge15" class="edge">
<title>metadata_utilities_messages&#45;&gt;metadata_utilities_generic</title><style>.edge>path:hover{stroke-width:8}</style>
<path fill="none" stroke="black" d="M448.93,-236.6C461.17,-226.86 476.25,-214.85 489.47,-204.33"/>
<polygon fill="#47c2c2" stroke="black" points="491.77,-206.97 497.41,-198.01 487.41,-201.5 491.77,-206.97"/>
</g>
<!-- metadata_utilities_mu_logging&#45;&gt;edc_utilities_edc_lineage -->
<g id="edge16" class="edge">
<title>metadata_utilities_mu_logging&#45;&gt;edc_utilities_edc_lineage</title><style>.edge>path:hover{stroke-width:8}</style>
<path fill="none" stroke="black" d="M622.74,-235.32C630.06,-204.41 639.6,-144.3 617.2,-100.64"/>
</g>
<!-- metadata_utilities_mu_logging&#45;&gt;metadata_utilities_generic -->
<g id="edge17" class="edge">
<title>metadata_utilities_mu_logging&#45;&gt;metadata_utilities_generic</title><style>.edge>path:hover{stroke-width:8}</style>
<path fill="none" stroke="black" d="M593.47,-236.6C581.24,-226.86 566.16,-214.85 552.94,-204.33"/>
<polygon fill="#3db8b8" stroke="black" points="555,-201.5 544.99,-198.01 550.64,-206.97 555,-201.5"/>
</g>
<!-- requests -->
<g id="node14" class="node">
<title>requests</title><style>.edge>path:hover{stroke-width:8}</style>
<ellipse fill="#3131c4" stroke="black" cx="197.2" cy="-256.49" rx="31.58" ry="18"/>
<text text-anchor="middle" x="197.2" y="-253.99" font-family="Helvetica,sans-Serif" font-size="10.00" fill="#ffffff">requests</text>
</g>
<!-- requests&#45;&gt;edc_utilities_edcSessionHelper -->
<g id="edge18" class="edge">
<title>requests&#45;&gt;edc_utilities_edcSessionHelper</title><style>.edge>path:hover{stroke-width:8}</style>
<path fill="none" stroke="black" d="M206.2,-177.07C202.14,-162.13 203.6,-145.05 206.42,-130.84"/>
<polygon fill="#3131c4" stroke="black" points="209.84,-131.59 208.65,-121.06 203.01,-130.04 209.84,-131.59"/>
</g>
<!-- requests&#45;&gt;edc_utilities_edcutils -->
<g id="edge19" class="edge">
<title>requests&#45;&gt;edc_utilities_edcutils</title><style>.edge>path:hover{stroke-width:8}</style>
<path fill="none" stroke="black" d="M202.84,-238.52C207.19,-222.85 211.64,-199.05 206.2,-179.07"/>
<path fill="none" stroke="black" d="M206.2,-177.07C201.13,-158.4 158.2,-135.29 123.64,-119.4"/>
<polygon fill="#3131c4" stroke="black" points="124.71,-116.04 114.15,-115.12 121.83,-122.43 124.71,-116.04"/>
</g>
<!-- requests_auth -->
<g id="node15" class="node">
<title>requests_auth</title><style>.edge>path:hover{stroke-width:8}</style>
<ellipse fill="#5353b6" stroke="black" cx="79.2" cy="-256.49" rx="44.98" ry="18"/>
<text text-anchor="middle" x="79.2" y="-253.99" font-family="Helvetica,sans-Serif" font-size="10.00" fill="#ffffff">requests.auth</text>
</g>
<!-- requests_auth&#45;&gt;edc_utilities_edcutils -->
<g id="edge20" class="edge">
<title>requests_auth&#45;&gt;edc_utilities_edcutils</title><style>.edge>path:hover{stroke-width:8}</style>
<path fill="none" stroke="black" d="M79.2,-238.33C79.2,-212.51 79.2,-163.28 79.2,-131.22"/>
<polygon fill="#5353b6" stroke="black" points="82.7,-131.06 79.2,-121.06 75.7,-131.06 82.7,-131.06"/>
</g>
<!-- urllib3 -->
<g id="node16" class="node">
<title>urllib3</title><style>.edge>path:hover{stroke-width:8}</style>
<ellipse fill="#cc33cc" stroke="black" cx="263.2" cy="-334.92" rx="27" ry="18"/>
<text text-anchor="middle" x="263.2" y="-332.42" font-family="Helvetica,sans-Serif" font-size="10.00" fill="#ffffff">urllib3</text>
</g>
<!-- urllib3&#45;&gt;edc_utilities_setupConnection -->
<g id="edge21" class="edge">
<title>urllib3&#45;&gt;edc_utilities_setupConnection</title><style>.edge>path:hover{stroke-width:8}</style>
<path fill="none" stroke="black" d="M278.86,-319.73C289.45,-309.2 302.82,-293.91 310.2,-277.71 344.75,-201.92 350.76,-101.91 351.45,-52.5"/>
<polygon fill="#cc33cc" stroke="black" points="354.95,-52.5 351.53,-42.47 347.95,-52.45 354.95,-52.5"/>
</g>
<!-- urllib3&#45;&gt;requests -->
<g id="edge22" class="edge">
<title>urllib3&#45;&gt;requests</title><style>.edge>path:hover{stroke-width:8}</style>
<path fill="none" stroke="black" d="M250.17,-318.82C240.8,-307.97 227.99,-293.14 217.32,-280.78"/>
<polygon fill="#cc33cc" stroke="black" points="219.86,-278.37 210.67,-273.09 214.56,-282.94 219.86,-278.37"/>
</g>
</g>
</svg>
