<?xml version="1.0" encoding="UTF-8" standalone="no"?>
<!DOCTYPE svg PUBLIC "-//W3C//DTD SVG 1.1//EN"
 "http://www.w3.org/Graphics/SVG/1.1/DTD/svg11.dtd">
<!-- Generated by graphviz version 2.44.0 (20200408.0750)
 -->
<!-- Title: G Pages: 1 -->
<svg width="1341pt" height="1137pt"
 viewBox="0.00 0.00 1341.43 1136.79" xmlns="http://www.w3.org/2000/svg" xmlns:xlink="http://www.w3.org/1999/xlink">
<g id="graph0" class="graph" transform="scale(1 1) rotate(0) translate(4 1132.79)">
<title>G</title><style>.edge>path:hover{stroke-width:8}</style>
<polygon fill="white" stroke="transparent" points="-4,4 -4,-1132.79 1337.43,-1132.79 1337.43,4 -4,4"/>
<!-- jinja2 -->
<g id="node1" class="node">
<title>jinja2</title><style>.edge>path:hover{stroke-width:8}</style>
<ellipse fill="#c24747" stroke="black" cx="446.52" cy="-802.3" rx="27" ry="18"/>
<text text-anchor="middle" x="446.52" y="-799.8" font-family="Helvetica,sans-Serif" font-size="10.00" fill="#ffffff">jinja2</text>
</g>
<!-- src_edc_utilities_edc_lineage -->
<g id="node12" class="node">
<title>src_edc_utilities_edc_lineage</title><style>.edge>path:hover{stroke-width:8}</style>
<ellipse fill="#303091" stroke="black" cx="392.52" cy="-332.38" rx="50.41" ry="28.98"/>
<text text-anchor="middle" x="392.52" y="-340.88" font-family="Helvetica,sans-Serif" font-size="10.00" fill="#ffffff">src.</text>
<text text-anchor="middle" x="392.52" y="-329.88" font-family="Helvetica,sans-Serif" font-size="10.00" fill="#ffffff">edc_utilities.</text>
<text text-anchor="middle" x="392.52" y="-318.88" font-family="Helvetica,sans-Serif" font-size="10.00" fill="#ffffff">edc_lineage</text>
</g>
<!-- jinja2&#45;&gt;src_edc_utilities_edc_lineage -->
<g id="edge1" class="edge">
<title>jinja2&#45;&gt;src_edc_utilities_edc_lineage</title><style>.edge>path:hover{stroke-width:8}</style>
<path fill="none" stroke="black" d="M433.39,-786.39C391.77,-737.35 266.94,-575.73 291.52,-427.37"/>
<path fill="none" stroke="black" d="M291.52,-425.37C296.3,-395.33 321.64,-372.3 345.74,-356.8"/>
<polygon fill="#c24747" stroke="black" points="347.82,-359.63 354.52,-351.43 344.17,-353.66 347.82,-359.63"/>
</g>
<!-- src_metadata_utilities_generic -->
<g id="node17" class="node">
<title>src_metadata_utilities_generic</title><style>.edge>path:hover{stroke-width:8}</style>
<ellipse fill="#0a0acc" stroke="black" cx="819.52" cy="-520.35" rx="67.76" ry="28.98"/>
<text text-anchor="middle" x="819.52" y="-528.85" font-family="Helvetica,sans-Serif" font-size="10.00" fill="#ffffff">src.</text>
<text text-anchor="middle" x="819.52" y="-517.85" font-family="Helvetica,sans-Serif" font-size="10.00" fill="#ffffff">metadata_utilities.</text>
<text text-anchor="middle" x="819.52" y="-506.85" font-family="Helvetica,sans-Serif" font-size="10.00" fill="#ffffff">generic</text>
</g>
<!-- jinja2&#45;&gt;src_metadata_utilities_generic -->
<g id="edge2" class="edge">
<title>jinja2&#45;&gt;src_metadata_utilities_generic</title><style>.edge>path:hover{stroke-width:8}</style>
<path fill="none" stroke="black" d="M470.21,-793.51C489.72,-787.34 518.18,-778.85 543.52,-773.31 595.99,-761.84 744.16,-774.9 782.52,-737.31 829.72,-691.04 829.89,-608.1 825.13,-559.57"/>
<polygon fill="#c24747" stroke="black" points="828.59,-559.03 824.02,-549.48 821.64,-559.8 828.59,-559.03"/>
</g>
<!-- jsonschema -->
<g id="node2" class="node">
<title>jsonschema</title><style>.edge>path:hover{stroke-width:8}</style>
<ellipse fill="#cccc33" stroke="black" cx="732.52" cy="-708.31" rx="40.74" ry="18"/>
<text text-anchor="middle" x="732.52" y="-705.81" font-family="Helvetica,sans-Serif" font-size="10.00" fill="#000000">jsonschema</text>
</g>
<!-- src_metadata_utilities_check_schema -->
<g id="node16" class="node">
<title>src_metadata_utilities_check_schema</title><style>.edge>path:hover{stroke-width:8}</style>
<ellipse fill="#3838a8" stroke="black" cx="195.52" cy="-426.37" rx="67.76" ry="28.98"/>
<text text-anchor="middle" x="195.52" y="-434.87" font-family="Helvetica,sans-Serif" font-size="10.00" fill="#ffffff">src.</text>
<text text-anchor="middle" x="195.52" y="-423.87" font-family="Helvetica,sans-Serif" font-size="10.00" fill="#ffffff">metadata_utilities.</text>
<text text-anchor="middle" x="195.52" y="-412.87" font-family="Helvetica,sans-Serif" font-size="10.00" fill="#ffffff">check_schema</text>
</g>
<!-- jsonschema&#45;&gt;src_metadata_utilities_check_schema -->
<g id="edge3" class="edge">
<title>jsonschema&#45;&gt;src_metadata_utilities_check_schema</title><style>.edge>path:hover{stroke-width:8}</style>
<path fill="none" stroke="black" d="M723.69,-690.46C700.75,-648.56 634.75,-539.57 545.52,-491.36 439.78,-434.23 394.5,-482.9 277.52,-455.36 270.19,-453.63 262.59,-451.51 255.11,-449.21"/>
<polygon fill="#cccc33" stroke="black" points="255.96,-445.81 245.37,-446.11 253.84,-452.48 255.96,-445.81"/>
</g>
<!-- src_metadata_utilities_validate_schema -->
<g id="node25" class="node">
<title>src_metadata_utilities_validate_schema</title><style>.edge>path:hover{stroke-width:8}</style>
<ellipse fill="#3d3d8f" stroke="black" cx="897.52" cy="-426.37" rx="67.76" ry="28.98"/>
<text text-anchor="middle" x="897.52" y="-434.87" font-family="Helvetica,sans-Serif" font-size="10.00" fill="#ffffff">src.</text>
<text text-anchor="middle" x="897.52" y="-423.87" font-family="Helvetica,sans-Serif" font-size="10.00" fill="#ffffff">metadata_utilities.</text>
<text text-anchor="middle" x="897.52" y="-412.87" font-family="Helvetica,sans-Serif" font-size="10.00" fill="#ffffff">validate_schema</text>
</g>
<!-- jsonschema&#45;&gt;src_metadata_utilities_validate_schema -->
<g id="edge4" class="edge">
<title>jsonschema&#45;&gt;src_metadata_utilities_validate_schema</title><style>.edge>path:hover{stroke-width:8}</style>
<path fill="none" stroke="black" d="M915.52,-519.35C915.61,-501.29 912.24,-481.61 908.39,-465.1"/>
<polygon fill="#cccc33" stroke="black" points="911.76,-464.14 905.96,-455.27 904.97,-465.82 911.76,-464.14"/>
<path fill="none" stroke="black" d="M760.23,-694.95C811.29,-670.07 915.07,-608.77 915.52,-521.35"/>
</g>
<!-- opencensus -->
<g id="node3" class="node">
<title>opencensus</title><style>.edge>path:hover{stroke-width:8}</style>
<ellipse fill="#47c247" stroke="black" cx="974.52" cy="-990.26" rx="40.74" ry="18"/>
<text text-anchor="middle" x="974.52" y="-987.76" font-family="Helvetica,sans-Serif" font-size="10.00" fill="#000000">opencensus</text>
</g>
<!-- src_metadata_utilities_mu_logging -->
<g id="node24" class="node">
<title>src_metadata_utilities_mu_logging</title><style>.edge>path:hover{stroke-width:8}</style>
<ellipse fill="#1313af" stroke="black" cx="1107.52" cy="-708.31" rx="67.76" ry="28.98"/>
<text text-anchor="middle" x="1107.52" y="-716.81" font-family="Helvetica,sans-Serif" font-size="10.00" fill="#ffffff">src.</text>
<text text-anchor="middle" x="1107.52" y="-705.81" font-family="Helvetica,sans-Serif" font-size="10.00" fill="#ffffff">metadata_utilities.</text>
<text text-anchor="middle" x="1107.52" y="-694.81" font-family="Helvetica,sans-Serif" font-size="10.00" fill="#ffffff">mu_logging</text>
</g>
<!-- opencensus&#45;&gt;src_metadata_utilities_mu_logging -->
<g id="edge5" class="edge">
<title>opencensus&#45;&gt;src_metadata_utilities_mu_logging</title><style>.edge>path:hover{stroke-width:8}</style>
<path fill="none" stroke="black" d="M1203.52,-895.28C1220.33,-843.05 1211.59,-821.03 1184.52,-773.31 1176.99,-760.04 1165.58,-748.35 1153.83,-738.71"/>
<polygon fill="#47c247" stroke="black" points="1155.72,-735.75 1145.68,-732.38 1151.43,-741.28 1155.72,-735.75"/>
<path fill="none" stroke="black" d="M996.94,-975.14C1005.11,-970.34 1014.55,-965.21 1023.52,-961.27 1101.26,-927.14 1180.52,-979.01 1203.52,-897.28"/>
</g>
<!-- opencensus_ext -->
<g id="node4" class="node">
<title>opencensus_ext</title><style>.edge>path:hover{stroke-width:8}</style>
<ellipse fill="#47c247" stroke="black" cx="1083.52" cy="-990.26" rx="50.75" ry="18"/>
<text text-anchor="middle" x="1083.52" y="-987.76" font-family="Helvetica,sans-Serif" font-size="10.00" fill="#000000">opencensus.ext</text>
</g>
<!-- opencensus_ext&#45;&gt;src_metadata_utilities_mu_logging -->
<g id="edge6" class="edge">
<title>opencensus_ext&#45;&gt;src_metadata_utilities_mu_logging</title><style>.edge>path:hover{stroke-width:8}</style>
<path fill="none" stroke="black" d="M1109,-974.54C1142.07,-954.7 1196.42,-919.33 1203.52,-897.28"/>
</g>
<!-- opencensus_ext_azure -->
<g id="node5" class="node">
<title>opencensus_ext_azure</title><style>.edge>path:hover{stroke-width:8}</style>
<ellipse fill="#47c247" stroke="black" cx="1203.52" cy="-990.26" rx="50.82" ry="28.98"/>
<text text-anchor="middle" x="1203.52" y="-998.76" font-family="Helvetica,sans-Serif" font-size="10.00" fill="#000000">opencensus.</text>
<text text-anchor="middle" x="1203.52" y="-987.76" font-family="Helvetica,sans-Serif" font-size="10.00" fill="#000000">ext.</text>
<text text-anchor="middle" x="1203.52" y="-976.76" font-family="Helvetica,sans-Serif" font-size="10.00" fill="#000000">azure</text>
</g>
<!-- opencensus_ext_azure&#45;&gt;src_metadata_utilities_mu_logging -->
<g id="edge7" class="edge">
<title>opencensus_ext_azure&#45;&gt;src_metadata_utilities_mu_logging</title><style>.edge>path:hover{stroke-width:8}</style>
<path fill="none" stroke="black" d="M1199.13,-961.2C1197.28,-942.62 1196.86,-917.95 1203.52,-897.28"/>
</g>
<!-- opencensus_ext_azure_log_exporter -->
<g id="node6" class="node">
<title>opencensus_ext_azure_log_exporter</title><style>.edge>path:hover{stroke-width:8}</style>
<ellipse fill="#46a446" stroke="black" cx="1282.52" cy="-1092.02" rx="50.82" ry="36.54"/>
<text text-anchor="middle" x="1282.52" y="-1106.02" font-family="Helvetica,sans-Serif" font-size="10.00" fill="#ffffff">opencensus.</text>
<text text-anchor="middle" x="1282.52" y="-1095.02" font-family="Helvetica,sans-Serif" font-size="10.00" fill="#ffffff">ext.</text>
<text text-anchor="middle" x="1282.52" y="-1084.02" font-family="Helvetica,sans-Serif" font-size="10.00" fill="#ffffff">azure.</text>
<text text-anchor="middle" x="1282.52" y="-1073.02" font-family="Helvetica,sans-Serif" font-size="10.00" fill="#ffffff">log_exporter</text>
</g>
<!-- opencensus_ext_azure_log_exporter&#45;&gt;src_metadata_utilities_mu_logging -->
<g id="edge8" class="edge">
<title>opencensus_ext_azure_log_exporter&#45;&gt;src_metadata_utilities_mu_logging</title><style>.edge>path:hover{stroke-width:8}</style>
<path fill="none" stroke="black" d="M1282.97,-1055.21C1281.99,-1028.16 1277.76,-990.8 1263.52,-961.27 1246.58,-926.15 1192.96,-934.81 1203.52,-897.28"/>
</g>
<!-- requests -->
<g id="node7" class="node">
<title>requests</title><style>.edge>path:hover{stroke-width:8}</style>
<ellipse fill="#24d0d0" stroke="black" cx="495.52" cy="-708.31" rx="31.58" ry="18"/>
<text text-anchor="middle" x="495.52" y="-705.81" font-family="Helvetica,sans-Serif" font-size="10.00" fill="#000000">requests</text>
</g>
<!-- src_edc_utilities_edc_custom_attributes -->
<g id="node11" class="node">
<title>src_edc_utilities_edc_custom_attributes</title><style>.edge>path:hover{stroke-width:8}</style>
<ellipse fill="#202083" stroke="black" cx="694.52" cy="-332.38" rx="82.05" ry="28.98"/>
<text text-anchor="middle" x="694.52" y="-340.88" font-family="Helvetica,sans-Serif" font-size="10.00" fill="#ffffff">src.</text>
<text text-anchor="middle" x="694.52" y="-329.88" font-family="Helvetica,sans-Serif" font-size="10.00" fill="#ffffff">edc_utilities.</text>
<text text-anchor="middle" x="694.52" y="-318.88" font-family="Helvetica,sans-Serif" font-size="10.00" fill="#ffffff">edc_custom_attributes</text>
</g>
<!-- requests&#45;&gt;src_edc_utilities_edc_custom_attributes -->
<g id="edge9" class="edge">
<title>requests&#45;&gt;src_edc_utilities_edc_custom_attributes</title><style>.edge>path:hover{stroke-width:8}</style>
<path fill="none" stroke="black" d="M531.52,-519.35C528.01,-464.6 517.16,-440.93 550.52,-397.37 560.74,-384.03 594.32,-368.76 626.48,-356.48"/>
<polygon fill="#24d0d0" stroke="black" points="627.81,-359.72 635.94,-352.93 625.35,-353.16 627.81,-359.72"/>
</g>
<!-- src_edc_utilities_edc_session_helper -->
<g id="node13" class="node">
<title>src_edc_utilities_edc_session_helper</title><style>.edge>path:hover{stroke-width:8}</style>
<ellipse fill="#2d2db4" stroke="black" cx="392.52" cy="-426.37" rx="72.66" ry="28.98"/>
<text text-anchor="middle" x="392.52" y="-434.87" font-family="Helvetica,sans-Serif" font-size="10.00" fill="#ffffff">src.</text>
<text text-anchor="middle" x="392.52" y="-423.87" font-family="Helvetica,sans-Serif" font-size="10.00" fill="#ffffff">edc_utilities.</text>
<text text-anchor="middle" x="392.52" y="-412.87" font-family="Helvetica,sans-Serif" font-size="10.00" fill="#ffffff">edc_session_helper</text>
</g>
<!-- requests&#45;&gt;src_edc_utilities_edc_session_helper -->
<g id="edge10" class="edge">
<title>requests&#45;&gt;src_edc_utilities_edc_session_helper</title><style>.edge>path:hover{stroke-width:8}</style>
<path fill="none" stroke="black" d="M531.52,-519.35C529.32,-498.79 486.27,-472.53 448.66,-453.33"/>
<polygon fill="#24d0d0" stroke="black" points="449.75,-449.96 439.24,-448.61 446.61,-456.22 449.75,-449.96"/>
<path fill="none" stroke="black" d="M502.21,-690.54C514.38,-658.11 538.27,-584.46 531.52,-521.35"/>
</g>
<!-- src_edc_utilities_edcutils -->
<g id="node14" class="node">
<title>src_edc_utilities_edcutils</title><style>.edge>path:hover{stroke-width:8}</style>
<ellipse fill="#4949ac" stroke="black" cx="609.52" cy="-426.37" rx="50.41" ry="28.98"/>
<text text-anchor="middle" x="609.52" y="-434.87" font-family="Helvetica,sans-Serif" font-size="10.00" fill="#ffffff">src.</text>
<text text-anchor="middle" x="609.52" y="-423.87" font-family="Helvetica,sans-Serif" font-size="10.00" fill="#ffffff">edc_utilities.</text>
<text text-anchor="middle" x="609.52" y="-412.87" font-family="Helvetica,sans-Serif" font-size="10.00" fill="#ffffff">edcutils</text>
</g>
<!-- requests&#45;&gt;src_edc_utilities_edcutils -->
<g id="edge11" class="edge">
<title>requests&#45;&gt;src_edc_utilities_edcutils</title><style>.edge>path:hover{stroke-width:8}</style>
<path fill="none" stroke="black" d="M531.52,-519.35C529.85,-493.27 548.34,-470.76 567.74,-454.53"/>
<polygon fill="#24d0d0" stroke="black" points="570.09,-457.14 575.76,-448.19 565.74,-451.65 570.09,-457.14"/>
</g>
<!-- requests_auth -->
<g id="node8" class="node">
<title>requests_auth</title><style>.edge>path:hover{stroke-width:8}</style>
<ellipse fill="#53b6b6" stroke="black" cx="590.52" cy="-708.31" rx="44.98" ry="18"/>
<text text-anchor="middle" x="590.52" y="-705.81" font-family="Helvetica,sans-Serif" font-size="10.00" fill="#000000">requests.auth</text>
</g>
<!-- requests_auth&#45;&gt;src_edc_utilities_edcutils -->
<g id="edge12" class="edge">
<title>requests_auth&#45;&gt;src_edc_utilities_edcutils</title><style>.edge>path:hover{stroke-width:8}</style>
<path fill="none" stroke="black" d="M591.68,-690.22C594.68,-646.01 602.75,-527.02 606.93,-465.45"/>
<polygon fill="#53b6b6" stroke="black" points="610.43,-465.58 607.62,-455.36 603.45,-465.1 610.43,-465.58"/>
</g>
<!-- src_add_custom_attributes -->
<g id="node9" class="node">
<title>src_add_custom_attributes</title><style>.edge>path:hover{stroke-width:8}</style>
<ellipse fill="#43439d" stroke="black" cx="238.52" cy="-21.21" rx="82.05" ry="21.43"/>
<text text-anchor="middle" x="238.52" y="-24.21" font-family="Helvetica,sans-Serif" font-size="10.00" fill="#ffffff">src.</text>
<text text-anchor="middle" x="238.52" y="-13.21" font-family="Helvetica,sans-Serif" font-size="10.00" fill="#ffffff">add_custom_attributes</text>
</g>
<!-- src_edc_utilities -->
<g id="node10" class="node">
<title>src_edc_utilities</title><style>.edge>path:hover{stroke-width:8}</style>
<ellipse fill="#2222e7" stroke="black" cx="546.52" cy="-332.38" rx="48.17" ry="21.43"/>
<text text-anchor="middle" x="546.52" y="-335.38" font-family="Helvetica,sans-Serif" font-size="10.00" fill="#ffffff">src.</text>
<text text-anchor="middle" x="546.52" y="-324.38" font-family="Helvetica,sans-Serif" font-size="10.00" fill="#ffffff">edc_utilities</text>
</g>
<!-- src_metadata_utilities_load_custom_attributes -->
<g id="node20" class="node">
<title>src_metadata_utilities_load_custom_attributes</title><style>.edge>path:hover{stroke-width:8}</style>
<ellipse fill="#2e2e8a" stroke="black" cx="955.52" cy="-144.42" rx="83.38" ry="28.98"/>
<text text-anchor="middle" x="955.52" y="-152.92" font-family="Helvetica,sans-Serif" font-size="10.00" fill="#ffffff">src.</text>
<text text-anchor="middle" x="955.52" y="-141.92" font-family="Helvetica,sans-Serif" font-size="10.00" fill="#ffffff">metadata_utilities.</text>
<text text-anchor="middle" x="955.52" y="-130.92" font-family="Helvetica,sans-Serif" font-size="10.00" fill="#ffffff">load_custom_attributes</text>
</g>
<!-- src_edc_utilities&#45;&gt;src_metadata_utilities_load_custom_attributes -->
<g id="edge13" class="edge">
<title>src_edc_utilities&#45;&gt;src_metadata_utilities_load_custom_attributes</title><style>.edge>path:hover{stroke-width:8}</style>
<path fill="none" stroke="black" d="M574.76,-315.21C583.7,-310.72 593.8,-306.29 603.52,-303.39 727.97,-266.25 787.21,-342.01 893.52,-267.39 908.54,-256.85 928.01,-214.6 941.09,-182.75"/>
<polygon fill="#2222e7" stroke="black" points="944.43,-183.84 944.94,-173.25 937.94,-181.21 944.43,-183.84"/>
</g>
<!-- src_metadata_utilities_load_json_metadata -->
<g id="node21" class="node">
<title>src_metadata_utilities_load_json_metadata</title><style>.edge>path:hover{stroke-width:8}</style>
<ellipse fill="#262673" stroke="black" cx="340.52" cy="-144.42" rx="73.58" ry="28.98"/>
<text text-anchor="middle" x="340.52" y="-152.92" font-family="Helvetica,sans-Serif" font-size="10.00" fill="#ffffff">src.</text>
<text text-anchor="middle" x="340.52" y="-141.92" font-family="Helvetica,sans-Serif" font-size="10.00" fill="#ffffff">metadata_utilities.</text>
<text text-anchor="middle" x="340.52" y="-130.92" font-family="Helvetica,sans-Serif" font-size="10.00" fill="#ffffff">load_json_metadata</text>
</g>
<!-- src_edc_utilities&#45;&gt;src_metadata_utilities_load_json_metadata -->
<g id="edge14" class="edge">
<title>src_edc_utilities&#45;&gt;src_metadata_utilities_load_json_metadata</title><style>.edge>path:hover{stroke-width:8}</style>
<path fill="none" stroke="black" d="M523.67,-313.49C508.68,-301.25 489.05,-284.25 473.52,-267.39 451.78,-243.8 453.43,-231.87 430.52,-209.41 417.7,-196.84 402.22,-184.91 387.74,-174.83"/>
<polygon fill="#2222e7" stroke="black" points="389.59,-171.85 379.36,-169.11 385.65,-177.64 389.59,-171.85"/>
</g>
<!-- src_edc_utilities_edc_custom_attributes&#45;&gt;src_metadata_utilities_load_custom_attributes -->
<g id="edge15" class="edge">
<title>src_edc_utilities_edc_custom_attributes&#45;&gt;src_metadata_utilities_load_custom_attributes</title><style>.edge>path:hover{stroke-width:8}</style>
<path fill="none" stroke="black" d="M768.84,-320.06C829.75,-309.25 909.39,-291.12 931.52,-267.39 952.25,-245.17 957.43,-210.49 957.9,-183.78"/>
<polygon fill="#202083" stroke="black" points="961.4,-183.6 957.87,-173.62 954.4,-183.63 961.4,-183.6"/>
</g>
<!-- src_edc_utilities_edc_custom_attributes&#45;&gt;src_metadata_utilities_load_json_metadata -->
<g id="edge16" class="edge">
<title>src_edc_utilities_edc_custom_attributes&#45;&gt;src_metadata_utilities_load_json_metadata</title><style>.edge>path:hover{stroke-width:8}</style>
<path fill="none" stroke="black" d="M879.52,-237.4C865.62,-194.06 570.07,-164.04 422.65,-151.7"/>
<polygon fill="#202083" stroke="black" points="422.55,-148.18 412.3,-150.84 421.98,-155.15 422.55,-148.18"/>
<path fill="none" stroke="black" d="M772.72,-323.33C830.27,-313.18 895.87,-290.38 879.52,-239.4"/>
</g>
<!-- src_edc_utilities_edc_lineage&#45;&gt;src_metadata_utilities_load_json_metadata -->
<g id="edge17" class="edge">
<title>src_edc_utilities_edc_lineage&#45;&gt;src_metadata_utilities_load_json_metadata</title><style>.edge>path:hover{stroke-width:8}</style>
<path fill="none" stroke="black" d="M386.93,-303.34C383.63,-285.19 379.86,-261 378.52,-239.4"/>
</g>
<!-- src_edc_utilities_edc_session_helper&#45;&gt;src_edc_utilities_edc_custom_attributes -->
<g id="edge18" class="edge">
<title>src_edc_utilities_edc_session_helper&#45;&gt;src_edc_utilities_edc_custom_attributes</title><style>.edge>path:hover{stroke-width:8}</style>
<path fill="none" stroke="black" d="M447.67,-407.36C458.23,-403.99 469.2,-400.53 479.52,-397.37 534.39,-380.58 548.54,-377.81 603.52,-361.37 610.12,-359.4 616.97,-357.33 623.84,-355.24"/>
<polygon fill="#2d2db4" stroke="black" points="625.32,-358.45 633.86,-352.19 623.28,-351.76 625.32,-358.45"/>
</g>
<!-- src_edc_utilities_edc_session_helper&#45;&gt;src_edc_utilities_edc_lineage -->
<g id="edge19" class="edge">
<title>src_edc_utilities_edc_session_helper&#45;&gt;src_edc_utilities_edc_lineage</title><style>.edge>path:hover{stroke-width:8}</style>
<path fill="none" stroke="black" d="M392.52,-397.27C392.52,-389.23 392.52,-380.33 392.52,-371.79"/>
<polygon fill="#2d2db4" stroke="black" points="396.02,-371.63 392.52,-361.63 389.02,-371.63 396.02,-371.63"/>
</g>
<!-- src_metadata_utilities -->
<g id="node15" class="node">
<title>src_metadata_utilities</title><style>.edge>path:hover{stroke-width:8}</style>
<ellipse fill="#1010f9" stroke="black" cx="423.52" cy="-614.33" rx="65.52" ry="21.43"/>
<text text-anchor="middle" x="423.52" y="-617.33" font-family="Helvetica,sans-Serif" font-size="10.00" fill="#ffffff">src.</text>
<text text-anchor="middle" x="423.52" y="-606.33" font-family="Helvetica,sans-Serif" font-size="10.00" fill="#ffffff">metadata_utilities</text>
</g>
<!-- src_metadata_utilities&#45;&gt;src_add_custom_attributes -->
<g id="edge20" class="edge">
<title>src_metadata_utilities&#45;&gt;src_add_custom_attributes</title><style>.edge>path:hover{stroke-width:8}</style>
<path fill="none" stroke="black" d="M392.52,-519.35C385.18,-473.71 442.93,-489.11 474.52,-455.36 484.79,-444.38 482.84,-437.95 493.52,-427.37"/>
<path fill="none" stroke="black" d="M493.52,-425.37C513.88,-405.18 466.9,-327.58 451.52,-303.39 419.31,-252.74 405.3,-241.42 354.52,-209.41 315.62,-184.89 293.71,-201.78 257.52,-173.41 245.69,-164.13 245.59,-158.69 238.52,-145.42"/>
</g>
<!-- src_metadata_utilities&#45;&gt;src_edc_utilities_edc_custom_attributes -->
<g id="edge21" class="edge">
<title>src_metadata_utilities&#45;&gt;src_edc_utilities_edc_custom_attributes</title><style>.edge>path:hover{stroke-width:8}</style>
<path fill="none" stroke="black" d="M493.52,-425.37C505.16,-413.83 504.03,-406.69 517.52,-397.37 535.38,-385.04 582.37,-368.27 623.44,-355"/>
<polygon fill="#1010f9" stroke="black" points="624.74,-358.26 633.19,-351.88 622.6,-351.59 624.74,-358.26"/>
</g>
<!-- src_metadata_utilities&#45;&gt;src_edc_utilities_edc_lineage -->
<g id="edge22" class="edge">
<title>src_metadata_utilities&#45;&gt;src_edc_utilities_edc_lineage</title><style>.edge>path:hover{stroke-width:8}</style>
<path fill="none" stroke="black" d="M392.52,-519.35C382.89,-459.4 281.6,-487.26 291.52,-427.37"/>
<path fill="none" stroke="black" d="M414.49,-593.01C406.88,-574.69 396.61,-546.81 392.52,-521.35"/>
</g>
<!-- src_metadata_utilities&#45;&gt;src_edc_utilities_edc_session_helper -->
<g id="edge23" class="edge">
<title>src_metadata_utilities&#45;&gt;src_edc_utilities_edc_session_helper</title><style>.edge>path:hover{stroke-width:8}</style>
<path fill="none" stroke="black" d="M392.52,-519.35C389.73,-502.02 389.34,-482.61 389.8,-466.11"/>
<polygon fill="#1010f9" stroke="black" points="393.31,-465.86 390.21,-455.73 386.32,-465.59 393.31,-465.86"/>
</g>
<!-- src_run_edc_lineage -->
<g id="node26" class="node">
<title>src_run_edc_lineage</title><style>.edge>path:hover{stroke-width:8}</style>
<ellipse fill="#4646a4" stroke="black" cx="61.52" cy="-21.21" rx="61.54" ry="21.43"/>
<text text-anchor="middle" x="61.52" y="-24.21" font-family="Helvetica,sans-Serif" font-size="10.00" fill="#ffffff">src.</text>
<text text-anchor="middle" x="61.52" y="-13.21" font-family="Helvetica,sans-Serif" font-size="10.00" fill="#ffffff">run_edc_lineage</text>
</g>
<!-- src_metadata_utilities&#45;&gt;src_run_edc_lineage -->
<g id="edge24" class="edge">
<title>src_metadata_utilities&#45;&gt;src_run_edc_lineage</title><style>.edge>path:hover{stroke-width:8}</style>
<path fill="none" stroke="black" d="M61.52,-78.43C56.7,-70.85 55.35,-61.46 55.59,-52.53"/>
<polygon fill="#1010f9" stroke="black" points="59.09,-52.68 56.49,-42.41 52.12,-52.06 59.09,-52.68"/>
<path fill="none" stroke="black" d="M373.94,-600.29C274.8,-570.89 61.52,-489.5 61.52,-333.38 61.52,-333.38 61.52,-333.38 61.52,-237.4 61.52,-167.19 99.17,-138.69 61.52,-79.43"/>
</g>
<!-- src_metadata_utilities_check_schema&#45;&gt;src_metadata_utilities_load_json_metadata -->
<g id="edge25" class="edge">
<title>src_metadata_utilities_check_schema&#45;&gt;src_metadata_utilities_load_json_metadata</title><style>.edge>path:hover{stroke-width:8}</style>
<path fill="none" stroke="black" d="M378.52,-237.4C377.33,-218.23 370,-198.36 362.1,-182.02"/>
<polygon fill="#3838a8" stroke="black" points="365.08,-180.15 357.42,-172.83 358.84,-183.33 365.08,-180.15"/>
<path fill="none" stroke="black" d="M224.77,-400.02C276.79,-354.37 379.86,-261.04 378.52,-239.4"/>
</g>
<!-- src_metadata_utilities_generic&#45;&gt;src_edc_utilities_edc_custom_attributes -->
<g id="edge26" class="edge">
<title>src_metadata_utilities_generic&#45;&gt;src_edc_utilities_edc_custom_attributes</title><style>.edge>path:hover{stroke-width:8}</style>
<path fill="none" stroke="black" d="M813.68,-491.23C809.99,-473.05 805.23,-448.85 801.52,-427.37"/>
<path fill="none" stroke="black" d="M801.52,-425.37C796.75,-397.75 774.88,-376.45 752.14,-361.34"/>
<polygon fill="#0a0acc" stroke="black" points="753.74,-358.21 743.42,-355.84 750.02,-364.13 753.74,-358.21"/>
</g>
<!-- src_metadata_utilities_generic&#45;&gt;src_edc_utilities_edc_lineage -->
<g id="edge27" class="edge">
<title>src_metadata_utilities_generic&#45;&gt;src_edc_utilities_edc_lineage</title><style>.edge>path:hover{stroke-width:8}</style>
<path fill="none" stroke="black" d="M795.18,-493.28C767.32,-465.11 719,-421.08 668.52,-397.37 595.06,-362.89 568.35,-380.64 489.52,-361.37 475.41,-357.93 460.26,-353.78 446.24,-349.74"/>
<polygon fill="#0a0acc" stroke="black" points="446.83,-346.27 436.25,-346.83 444.88,-352.99 446.83,-346.27"/>
</g>
<!-- src_metadata_utilities_generic&#45;&gt;src_metadata_utilities_load_custom_attributes -->
<g id="edge28" class="edge">
<title>src_metadata_utilities_generic&#45;&gt;src_metadata_utilities_load_custom_attributes</title><style>.edge>path:hover{stroke-width:8}</style>
<path fill="none" stroke="black" d="M1069.52,-237.4C1062.36,-209.19 1038.82,-187.82 1014.97,-172.81"/>
<polygon fill="#0a0acc" stroke="black" points="1016.58,-169.7 1006.2,-167.57 1012.99,-175.7 1016.58,-169.7"/>
<path fill="none" stroke="black" d="M879.52,-331.38C942.9,-262.21 1092.6,-330.34 1069.52,-239.4"/>
</g>
<!-- src_metadata_utilities_generic&#45;&gt;src_metadata_utilities_load_json_metadata -->
<g id="edge29" class="edge">
<title>src_metadata_utilities_generic&#45;&gt;src_metadata_utilities_load_json_metadata</title><style>.edge>path:hover{stroke-width:8}</style>
<path fill="none" stroke="black" d="M801.52,-425.37C798.87,-410.05 840.49,-375.97 879.52,-333.38"/>
<path fill="none" stroke="black" d="M879.52,-331.38C907.14,-301.24 892,-278.33 879.52,-239.4"/>
</g>
<!-- src_metadata_utilities_generic&#45;&gt;src_metadata_utilities_validate_schema -->
<g id="edge30" class="edge">
<title>src_metadata_utilities_generic&#45;&gt;src_metadata_utilities_validate_schema</title><style>.edge>path:hover{stroke-width:8}</style>
<path fill="none" stroke="black" d="M842.08,-492.74C850.33,-483.02 859.77,-471.88 868.5,-461.58"/>
<polygon fill="#0a0acc" stroke="black" points="871.21,-463.8 875.01,-453.91 865.87,-459.27 871.21,-463.8"/>
</g>
<!-- src_metadata_utilities_generic_settings -->
<g id="node18" class="node">
<title>src_metadata_utilities_generic_settings</title><style>.edge>path:hover{stroke-width:8}</style>
<ellipse fill="#0b0bd6" stroke="black" cx="1011.52" cy="-614.33" rx="67.76" ry="28.98"/>
<text text-anchor="middle" x="1011.52" y="-622.83" font-family="Helvetica,sans-Serif" font-size="10.00" fill="#ffffff">src.</text>
<text text-anchor="middle" x="1011.52" y="-611.83" font-family="Helvetica,sans-Serif" font-size="10.00" fill="#ffffff">metadata_utilities.</text>
<text text-anchor="middle" x="1011.52" y="-600.83" font-family="Helvetica,sans-Serif" font-size="10.00" fill="#ffffff">generic_settings</text>
</g>
<!-- src_metadata_utilities_generic_settings&#45;&gt;src_edc_utilities_edc_custom_attributes -->
<g id="edge31" class="edge">
<title>src_metadata_utilities_generic_settings&#45;&gt;src_edc_utilities_edc_custom_attributes</title><style>.edge>path:hover{stroke-width:8}</style>
<path fill="none" stroke="black" d="M993.52,-425.37C986.25,-412.21 986.93,-405.86 974.52,-397.37 943.18,-375.95 850.07,-357.38 779.75,-345.84"/>
<polygon fill="#0b0bd6" stroke="black" points="779.98,-342.33 769.55,-344.19 778.86,-349.24 779.98,-342.33"/>
<path fill="none" stroke="black" d="M993.52,-519.35C980.24,-480.68 1013.29,-463.15 993.52,-427.37"/>
</g>
<!-- src_metadata_utilities_generic_settings&#45;&gt;src_metadata_utilities_generic -->
<g id="edge32" class="edge">
<title>src_metadata_utilities_generic_settings&#45;&gt;src_metadata_utilities_generic</title><style>.edge>path:hover{stroke-width:8}</style>
<path fill="none" stroke="black" d="M967.47,-592.23C939.4,-578.78 902.84,-561.27 873.09,-547.02"/>
<polygon fill="#0b0bd6" stroke="black" points="874.22,-543.68 863.69,-542.51 871.2,-549.99 874.22,-543.68"/>
</g>
<!-- src_metadata_utilities_generic_settings&#45;&gt;src_metadata_utilities_load_custom_attributes -->
<g id="edge33" class="edge">
<title>src_metadata_utilities_generic_settings&#45;&gt;src_metadata_utilities_load_custom_attributes</title><style>.edge>path:hover{stroke-width:8}</style>
<path fill="none" stroke="black" d="M1023.27,-585.76C1048.26,-523.35 1101.84,-366.75 1069.52,-239.4"/>
</g>
<!-- src_metadata_utilities_generic_settings&#45;&gt;src_metadata_utilities_load_json_metadata -->
<g id="edge34" class="edge">
<title>src_metadata_utilities_generic_settings&#45;&gt;src_metadata_utilities_load_json_metadata</title><style>.edge>path:hover{stroke-width:8}</style>
<path fill="none" stroke="black" d="M993.52,-425.37C942.36,-332.79 979.22,-271.4 893.52,-209.41 820.49,-156.59 560.33,-146.77 424.48,-145.33"/>
<polygon fill="#0b0bd6" stroke="black" points="424.15,-141.82 414.12,-145.23 424.09,-148.82 424.15,-141.82"/>
</g>
<!-- src_metadata_utilities_generic_settings&#45;&gt;src_metadata_utilities_validate_schema -->
<g id="edge35" class="edge">
<title>src_metadata_utilities_generic_settings&#45;&gt;src_metadata_utilities_validate_schema</title><style>.edge>path:hover{stroke-width:8}</style>
<path fill="none" stroke="black" d="M1008.04,-585.03C1005.27,-566.57 1000.65,-542.13 993.52,-521.35"/>
<path fill="none" stroke="black" d="M993.52,-519.35C984.76,-493.83 963.98,-472.44 943.99,-456.72"/>
<polygon fill="#0b0bd6" stroke="black" points="945.9,-453.78 935.8,-450.56 941.68,-459.37 945.9,-453.78"/>
</g>
<!-- src_metadata_utilities_json_file_utilities -->
<g id="node19" class="node">
<title>src_metadata_utilities_json_file_utilities</title><style>.edge>path:hover{stroke-width:8}</style>
<ellipse fill="#4747c2" stroke="black" cx="550.52" cy="-238.4" rx="67.76" ry="28.98"/>
<text text-anchor="middle" x="550.52" y="-246.9" font-family="Helvetica,sans-Serif" font-size="10.00" fill="#ffffff">src.</text>
<text text-anchor="middle" x="550.52" y="-235.9" font-family="Helvetica,sans-Serif" font-size="10.00" fill="#ffffff">metadata_utilities.</text>
<text text-anchor="middle" x="550.52" y="-224.9" font-family="Helvetica,sans-Serif" font-size="10.00" fill="#ffffff">json_file_utilities</text>
</g>
<!-- src_metadata_utilities_json_file_utilities&#45;&gt;src_metadata_utilities_load_json_metadata -->
<g id="edge36" class="edge">
<title>src_metadata_utilities_json_file_utilities&#45;&gt;src_metadata_utilities_load_json_metadata</title><style>.edge>path:hover{stroke-width:8}</style>
<path fill="none" stroke="black" d="M504.17,-217.1C472.82,-203.37 431.19,-185.13 397.76,-170.49"/>
<polygon fill="#4747c2" stroke="black" points="399.13,-167.27 388.57,-166.46 396.32,-173.68 399.13,-167.27"/>
</g>
<!-- src_metadata_utilities_load_custom_attributes&#45;&gt;src_add_custom_attributes -->
<g id="edge37" class="edge">
<title>src_metadata_utilities_load_custom_attributes&#45;&gt;src_add_custom_attributes</title><style>.edge>path:hover{stroke-width:8}</style>
<path fill="none" stroke="black" d="M873.24,-139.17C689.17,-129.24 258.63,-103.54 238.52,-79.43"/>
</g>
<!-- src_metadata_utilities_load_json_metadata&#45;&gt;src_run_edc_lineage -->
<g id="edge38" class="edge">
<title>src_metadata_utilities_load_json_metadata&#45;&gt;src_run_edc_lineage</title><style>.edge>path:hover{stroke-width:8}</style>
<path fill="none" stroke="black" d="M268.49,-138.06C193.38,-130.66 83.54,-114.09 61.52,-79.43"/>
</g>
<!-- src_metadata_utilities_log_settings -->
<g id="node22" class="node">
<title>src_metadata_utilities_log_settings</title><style>.edge>path:hover{stroke-width:8}</style>
<ellipse fill="#3a3ab0" stroke="black" cx="1107.52" cy="-802.3" rx="67.76" ry="28.98"/>
<text text-anchor="middle" x="1107.52" y="-810.8" font-family="Helvetica,sans-Serif" font-size="10.00" fill="#ffffff">src.</text>
<text text-anchor="middle" x="1107.52" y="-799.8" font-family="Helvetica,sans-Serif" font-size="10.00" fill="#ffffff">metadata_utilities.</text>
<text text-anchor="middle" x="1107.52" y="-788.8" font-family="Helvetica,sans-Serif" font-size="10.00" fill="#ffffff">log_settings</text>
</g>
<!-- src_metadata_utilities_log_settings&#45;&gt;src_metadata_utilities_mu_logging -->
<g id="edge39" class="edge">
<title>src_metadata_utilities_log_settings&#45;&gt;src_metadata_utilities_mu_logging</title><style>.edge>path:hover{stroke-width:8}</style>
<path fill="none" stroke="black" d="M1107.52,-773.2C1107.52,-765.16 1107.52,-756.26 1107.52,-747.72"/>
<polygon fill="#3a3ab0" stroke="black" points="1111.02,-747.56 1107.52,-737.56 1104.02,-747.56 1111.02,-747.56"/>
</g>
<!-- src_metadata_utilities_messages -->
<g id="node23" class="node">
<title>src_metadata_utilities_messages</title><style>.edge>path:hover{stroke-width:8}</style>
<ellipse fill="#1010f9" stroke="black" cx="1059.52" cy="-896.28" rx="67.76" ry="28.98"/>
<text text-anchor="middle" x="1059.52" y="-904.78" font-family="Helvetica,sans-Serif" font-size="10.00" fill="#ffffff">src.</text>
<text text-anchor="middle" x="1059.52" y="-893.78" font-family="Helvetica,sans-Serif" font-size="10.00" fill="#ffffff">metadata_utilities.</text>
<text text-anchor="middle" x="1059.52" y="-882.78" font-family="Helvetica,sans-Serif" font-size="10.00" fill="#ffffff">messages</text>
</g>
<!-- src_metadata_utilities_messages&#45;&gt;src_add_custom_attributes -->
<g id="edge40" class="edge">
<title>src_metadata_utilities_messages&#45;&gt;src_add_custom_attributes</title><style>.edge>path:hover{stroke-width:8}</style>
<path fill="none" stroke="black" d="M340.52,-237.4C352.49,-192.39 289.44,-207.33 257.52,-173.41 247.21,-162.46 245.27,-158.85 238.52,-145.42"/>
<path fill="none" stroke="black" d="M329.52,-801.3C240.58,-751.62 236.16,-708.74 195.52,-615.33"/>
<path fill="none" stroke="black" d="M238.52,-143.42C225.74,-118.01 256.73,-101.27 238.52,-79.43"/>
<path fill="none" stroke="black" d="M195.52,-613.33C168.71,-560.67 132.17,-570.6 99.52,-521.35"/>
<path fill="none" stroke="black" d="M991.81,-893.49C832.9,-888.23 441.04,-868.8 329.52,-803.3"/>
<path fill="none" stroke="black" d="M99.52,-519.35C69.2,-473.62 53.62,-445.19 80.52,-397.37 113.66,-338.45 323.14,-304.74 340.52,-239.4"/>
<path fill="none" stroke="black" d="M238.52,-78.43C232.61,-71.35 231.07,-61.84 231.47,-52.66"/>
<polygon fill="#1010f9" stroke="black" points="234.96,-52.91 232.61,-42.58 228,-52.12 234.96,-52.91"/>
</g>
<!-- src_metadata_utilities_messages&#45;&gt;src_edc_utilities_edc_custom_attributes -->
<g id="edge41" class="edge">
<title>src_metadata_utilities_messages&#45;&gt;src_edc_utilities_edc_custom_attributes</title><style>.edge>path:hover{stroke-width:8}</style>
<path fill="none" stroke="black" d="M1011.52,-801.3C911.54,-671.53 821.53,-692.83 742.52,-549.34 709.35,-489.11 729.77,-464.19 713.52,-397.37 711.43,-388.8 708.9,-379.65 706.38,-371.05"/>
<polygon fill="#1010f9" stroke="black" points="709.67,-369.83 703.45,-361.25 702.97,-371.84 709.67,-369.83"/>
<path fill="none" stroke="black" d="M1045.29,-867.88C1035.77,-849.58 1022.93,-824.97 1011.52,-803.3"/>
</g>
<!-- src_metadata_utilities_messages&#45;&gt;src_edc_utilities_edc_lineage -->
<g id="edge42" class="edge">
<title>src_metadata_utilities_messages&#45;&gt;src_edc_utilities_edc_lineage</title><style>.edge>path:hover{stroke-width:8}</style>
<path fill="none" stroke="black" d="M99.52,-519.35C68.99,-473.76 81.2,-437.6 118.52,-397.37 147.14,-366.53 261.32,-348.22 332.95,-339.54"/>
<polygon fill="#1010f9" stroke="black" points="333.68,-342.98 343.2,-338.33 332.85,-336.03 333.68,-342.98"/>
</g>
<!-- src_metadata_utilities_messages&#45;&gt;src_edc_utilities_edc_session_helper -->
<g id="edge43" class="edge">
<title>src_metadata_utilities_messages&#45;&gt;src_edc_utilities_edc_session_helper</title><style>.edge>path:hover{stroke-width:8}</style>
<path fill="none" stroke="black" d="M329.52,-801.3C220.7,-727.69 319.82,-541.62 368.81,-463.15"/>
<polygon fill="#1010f9" stroke="black" points="371.85,-464.89 374.24,-454.57 365.94,-461.15 371.85,-464.89"/>
</g>
<!-- src_metadata_utilities_messages&#45;&gt;src_metadata_utilities_check_schema -->
<g id="edge44" class="edge">
<title>src_metadata_utilities_messages&#45;&gt;src_metadata_utilities_check_schema</title><style>.edge>path:hover{stroke-width:8}</style>
<path fill="none" stroke="black" d="M195.52,-613.33C176.03,-565.35 180.97,-504.48 187.37,-465.71"/>
<polygon fill="#1010f9" stroke="black" points="190.9,-465.85 189.19,-455.39 184.01,-464.63 190.9,-465.85"/>
</g>
<!-- src_metadata_utilities_messages&#45;&gt;src_metadata_utilities_generic -->
<g id="edge45" class="edge">
<title>src_metadata_utilities_messages&#45;&gt;src_metadata_utilities_generic</title><style>.edge>path:hover{stroke-width:8}</style>
<path fill="none" stroke="black" d="M1011.52,-801.3C986.57,-768.91 1011.52,-750.2 1011.52,-709.31"/>
<path fill="none" stroke="black" d="M1011.52,-707.31C1011.52,-662.82 964.42,-676.28 934.52,-643.32 924.41,-632.19 924.43,-627.44 915.52,-615.33"/>
<path fill="none" stroke="black" d="M915.52,-613.33C899.17,-591.1 877.16,-569.58 858.34,-552.95"/>
<polygon fill="#1010f9" stroke="black" points="860.61,-550.28 850.76,-546.36 856.02,-555.57 860.61,-550.28"/>
</g>
<!-- src_metadata_utilities_messages&#45;&gt;src_metadata_utilities_generic_settings -->
<g id="edge46" class="edge">
<title>src_metadata_utilities_messages&#45;&gt;src_metadata_utilities_generic_settings</title><style>.edge>path:hover{stroke-width:8}</style>
<path fill="none" stroke="black" d="M1011.52,-707.31C1011.52,-689.76 1011.52,-670.32 1011.52,-653.85"/>
<polygon fill="#1010f9" stroke="black" points="1015.02,-653.51 1011.52,-643.51 1008.02,-653.51 1015.02,-653.51"/>
</g>
<!-- src_metadata_utilities_messages&#45;&gt;src_metadata_utilities_load_custom_attributes -->
<g id="edge47" class="edge">
<title>src_metadata_utilities_messages&#45;&gt;src_metadata_utilities_load_custom_attributes</title><style>.edge>path:hover{stroke-width:8}</style>
<path fill="none" stroke="black" d="M1145.52,-331.38C1132.9,-279.88 1083.28,-290.62 1069.52,-239.4"/>
<path fill="none" stroke="black" d="M1011.52,-707.31C1011.52,-662.82 1063.61,-680.19 1088.52,-643.32 1150.64,-551.37 1110.1,-506.26 1131.52,-397.37 1137.14,-368.81 1152.45,-361.66 1145.52,-333.38"/>
</g>
<!-- src_metadata_utilities_messages&#45;&gt;src_metadata_utilities_load_json_metadata -->
<g id="edge48" class="edge">
<title>src_metadata_utilities_messages&#45;&gt;src_metadata_utilities_load_json_metadata</title><style>.edge>path:hover{stroke-width:8}</style>
<path fill="none" stroke="black" d="M340.52,-237.4C345.11,-220.15 345.69,-200.42 344.89,-183.67"/>
<polygon fill="#1010f9" stroke="black" points="348.38,-183.43 344.23,-173.68 341.39,-183.88 348.38,-183.43"/>
</g>
<!-- src_metadata_utilities_messages&#45;&gt;src_metadata_utilities_log_settings -->
<g id="edge49" class="edge">
<title>src_metadata_utilities_messages&#45;&gt;src_metadata_utilities_log_settings</title><style>.edge>path:hover{stroke-width:8}</style>
<path fill="none" stroke="black" d="M1073.92,-867.68C1078.48,-858.95 1083.59,-849.16 1088.42,-839.9"/>
<polygon fill="#1010f9" stroke="black" points="1091.6,-841.36 1093.13,-830.88 1085.4,-838.12 1091.6,-841.36"/>
</g>
<!-- src_metadata_utilities_messages&#45;&gt;src_metadata_utilities_validate_schema -->
<g id="edge50" class="edge">
<title>src_metadata_utilities_messages&#45;&gt;src_metadata_utilities_validate_schema</title><style>.edge>path:hover{stroke-width:8}</style>
<path fill="none" stroke="black" d="M915.52,-613.33C891.3,-580.4 914.38,-562.21 915.52,-521.35"/>
</g>
<!-- src_metadata_utilities_mu_logging&#45;&gt;src_edc_utilities_edc_custom_attributes -->
<g id="edge51" class="edge">
<title>src_metadata_utilities_mu_logging&#45;&gt;src_edc_utilities_edc_custom_attributes</title><style>.edge>path:hover{stroke-width:8}</style>
<path fill="none" stroke="black" d="M1145.52,-613.33C1140.94,-556.56 1054.46,-429.62 1007.52,-397.37 988.69,-384.44 864.5,-361.66 778.33,-347.05"/>
<polygon fill="#1313af" stroke="black" points="778.72,-343.57 768.28,-345.36 777.56,-350.47 778.72,-343.57"/>
<path fill="none" stroke="black" d="M1124.02,-679.87C1133.34,-662.16 1143.52,-638.22 1145.52,-615.33"/>
</g>
<!-- src_metadata_utilities_mu_logging&#45;&gt;src_metadata_utilities_generic_settings -->
<g id="edge52" class="edge">
<title>src_metadata_utilities_mu_logging&#45;&gt;src_metadata_utilities_generic_settings</title><style>.edge>path:hover{stroke-width:8}</style>
<path fill="none" stroke="black" d="M1080.52,-681.45C1069.69,-671.07 1057.09,-659 1045.64,-648.03"/>
<polygon fill="#1313af" stroke="black" points="1047.95,-645.4 1038.31,-641 1043.11,-650.45 1047.95,-645.4"/>
</g>
<!-- src_metadata_utilities_mu_logging&#45;&gt;src_metadata_utilities_load_custom_attributes -->
<g id="edge53" class="edge">
<title>src_metadata_utilities_mu_logging&#45;&gt;src_metadata_utilities_load_custom_attributes</title><style>.edge>path:hover{stroke-width:8}</style>
<path fill="none" stroke="black" d="M1145.52,-425.37C1141.45,-384.69 1155.25,-373.09 1145.52,-333.38"/>
</g>
<!-- src_metadata_utilities_mu_logging&#45;&gt;src_metadata_utilities_load_json_metadata -->
<g id="edge54" class="edge">
<title>src_metadata_utilities_mu_logging&#45;&gt;src_metadata_utilities_load_json_metadata</title><style>.edge>path:hover{stroke-width:8}</style>
<path fill="none" stroke="black" d="M1145.52,-613.33C1152.72,-530.99 1153.75,-509.61 1145.52,-427.37"/>
<path fill="none" stroke="black" d="M1145.52,-425.37C1128.5,-291.32 1053.25,-268.05 931.52,-209.41 843.93,-167.22 565.14,-152.47 424.04,-147.62"/>
<polygon fill="#1313af" stroke="black" points="423.82,-144.11 413.71,-147.28 423.59,-151.11 423.82,-144.11"/>
</g>
<!-- urllib3 -->
<g id="node27" class="node">
<title>urllib3</title><style>.edge>path:hover{stroke-width:8}</style>
<ellipse fill="#cc33cc" stroke="black" cx="579.52" cy="-802.3" rx="27" ry="18"/>
<text text-anchor="middle" x="579.52" y="-799.8" font-family="Helvetica,sans-Serif" font-size="10.00" fill="#ffffff">urllib3</text>
</g>
<!-- urllib3&#45;&gt;requests -->
<g id="edge55" class="edge">
<title>urllib3&#45;&gt;requests</title><style>.edge>path:hover{stroke-width:8}</style>
<path fill="none" stroke="black" d="M566.02,-786.52C552.71,-771.94 532.17,-749.44 516.68,-732.49"/>
<polygon fill="#cc33cc" stroke="black" points="518.87,-729.69 509.54,-724.67 513.7,-734.41 518.87,-729.69"/>
</g>
<!-- urllib3&#45;&gt;src_edc_utilities_edc_custom_attributes -->
<g id="edge56" class="edge">
<title>urllib3&#45;&gt;src_edc_utilities_edc_custom_attributes</title><style>.edge>path:hover{stroke-width:8}</style>
<path fill="none" stroke="black" d="M597.71,-788.88C612.95,-777.41 633.87,-758.89 644.52,-737.31 704.99,-614.69 702.62,-446.69 697.85,-371.95"/>
<polygon fill="#cc33cc" stroke="black" points="701.32,-371.35 697.13,-361.61 694.33,-371.83 701.32,-371.35"/>
</g>
</g>
</svg>
