<?xml version="1.0" encoding="UTF-8" standalone="no"?>
<!DOCTYPE svg PUBLIC "-//W3C//DTD SVG 1.1//EN"
 "http://www.w3.org/Graphics/SVG/1.1/DTD/svg11.dtd">
<!-- Generated by graphviz version 2.44.1 (20200629.0846)
 -->
<!-- Title: G Pages: 1 -->
<svg width="1456pt" height="1137pt"
 viewBox="0.00 0.00 1455.65 1136.79" xmlns="http://www.w3.org/2000/svg" xmlns:xlink="http://www.w3.org/1999/xlink">
<g id="graph0" class="graph" transform="scale(1 1) rotate(0) translate(4 1132.79)">
<title>G</title><style>.edge>path:hover{stroke-width:8}</style>
<polygon fill="white" stroke="transparent" points="-4,4 -4,-1132.79 1451.65,-1132.79 1451.65,4 -4,4"/>
<!-- jinja2 -->
<g id="node1" class="node">
<title>jinja2</title><style>.edge>path:hover{stroke-width:8}</style>
<ellipse fill="#c24747" stroke="black" cx="574.63" cy="-802.3" rx="27" ry="18"/>
<text text-anchor="middle" x="574.63" y="-799.8" font-family="Helvetica,sans-Serif" font-size="10.00" fill="#ffffff">jinja2</text>
</g>
<!-- src_edc_utilities_edc_lineage -->
<g id="node12" class="node">
<title>src_edc_utilities_edc_lineage</title><style>.edge>path:hover{stroke-width:8}</style>
<ellipse fill="#2b2b82" stroke="black" cx="845.63" cy="-332.38" rx="50.41" ry="28.98"/>
<text text-anchor="middle" x="845.63" y="-340.88" font-family="Helvetica,sans-Serif" font-size="10.00" fill="#ffffff">src.</text>
<text text-anchor="middle" x="845.63" y="-329.88" font-family="Helvetica,sans-Serif" font-size="10.00" fill="#ffffff">edc_utilities.</text>
<text text-anchor="middle" x="845.63" y="-318.88" font-family="Helvetica,sans-Serif" font-size="10.00" fill="#ffffff">edc_lineage</text>
</g>
<!-- jinja2&#45;&gt;src_edc_utilities_edc_lineage -->
<g id="edge1" class="edge">
<title>jinja2&#45;&gt;src_edc_utilities_edc_lineage</title><style>.edge>path:hover{stroke-width:8}</style>
<path fill="none" stroke="black" d="M561.1,-786.3C551.06,-774.09 538.18,-755.89 532.63,-737.31 518.12,-688.76 502.92,-455.19 556.63,-397.37 591.09,-360.27 733.04,-375.63 781.63,-361.37 787.22,-359.73 792.96,-357.72 798.61,-355.54"/>
<polygon fill="#c24747" stroke="black" points="800.03,-358.74 807.97,-351.73 797.39,-352.26 800.03,-358.74"/>
</g>
<!-- src_metadata_utilities_generic -->
<g id="node17" class="node">
<title>src_metadata_utilities_generic</title><style>.edge>path:hover{stroke-width:8}</style>
<ellipse fill="#0a0acc" stroke="black" cx="747.63" cy="-520.35" rx="67.76" ry="28.98"/>
<text text-anchor="middle" x="747.63" y="-528.85" font-family="Helvetica,sans-Serif" font-size="10.00" fill="#ffffff">src.</text>
<text text-anchor="middle" x="747.63" y="-517.85" font-family="Helvetica,sans-Serif" font-size="10.00" fill="#ffffff">metadata_utilities.</text>
<text text-anchor="middle" x="747.63" y="-506.85" font-family="Helvetica,sans-Serif" font-size="10.00" fill="#ffffff">generic</text>
</g>
<!-- jinja2&#45;&gt;src_metadata_utilities_generic -->
<g id="edge2" class="edge">
<title>jinja2&#45;&gt;src_metadata_utilities_generic</title><style>.edge>path:hover{stroke-width:8}</style>
<path fill="none" stroke="black" d="M651.63,-613.33C659.55,-587.54 680.26,-566.12 700.42,-550.47"/>
<polygon fill="#c24747" stroke="black" points="702.74,-553.1 708.68,-544.32 698.57,-547.48 702.74,-553.1"/>
<path fill="none" stroke="black" d="M591.24,-787.91C604.69,-776.08 622.93,-757.6 632.63,-737.31 656.26,-687.79 635.5,-667.77 651.63,-615.33"/>
</g>
<!-- jsonschema -->
<g id="node2" class="node">
<title>jsonschema</title><style>.edge>path:hover{stroke-width:8}</style>
<ellipse fill="#cccc33" stroke="black" cx="582.63" cy="-708.31" rx="40.74" ry="18"/>
<text text-anchor="middle" x="582.63" y="-705.81" font-family="Helvetica,sans-Serif" font-size="10.00" fill="#000000">jsonschema</text>
</g>
<!-- src_metadata_utilities_check_schema -->
<g id="node16" class="node">
<title>src_metadata_utilities_check_schema</title><style>.edge>path:hover{stroke-width:8}</style>
<ellipse fill="#3838a8" stroke="black" cx="441.63" cy="-426.37" rx="67.76" ry="28.98"/>
<text text-anchor="middle" x="441.63" y="-434.87" font-family="Helvetica,sans-Serif" font-size="10.00" fill="#ffffff">src.</text>
<text text-anchor="middle" x="441.63" y="-423.87" font-family="Helvetica,sans-Serif" font-size="10.00" fill="#ffffff">metadata_utilities.</text>
<text text-anchor="middle" x="441.63" y="-412.87" font-family="Helvetica,sans-Serif" font-size="10.00" fill="#ffffff">check_schema</text>
</g>
<!-- jsonschema&#45;&gt;src_metadata_utilities_check_schema -->
<g id="edge3" class="edge">
<title>jsonschema&#45;&gt;src_metadata_utilities_check_schema</title><style>.edge>path:hover{stroke-width:8}</style>
<path fill="none" stroke="black" d="M575.63,-613.33C556.13,-543.78 463.64,-590.15 441.63,-521.35"/>
<path fill="none" stroke="black" d="M583.31,-690.01C583.59,-671.26 582.71,-640.62 575.63,-615.33"/>
</g>
<!-- src_metadata_utilities_validate_schema -->
<g id="node25" class="node">
<title>src_metadata_utilities_validate_schema</title><style>.edge>path:hover{stroke-width:8}</style>
<ellipse fill="#3d3d8f" stroke="black" cx="633.63" cy="-426.37" rx="67.76" ry="28.98"/>
<text text-anchor="middle" x="633.63" y="-434.87" font-family="Helvetica,sans-Serif" font-size="10.00" fill="#ffffff">src.</text>
<text text-anchor="middle" x="633.63" y="-423.87" font-family="Helvetica,sans-Serif" font-size="10.00" fill="#ffffff">metadata_utilities.</text>
<text text-anchor="middle" x="633.63" y="-412.87" font-family="Helvetica,sans-Serif" font-size="10.00" fill="#ffffff">validate_schema</text>
</g>
<!-- jsonschema&#45;&gt;src_metadata_utilities_validate_schema -->
<g id="edge4" class="edge">
<title>jsonschema&#45;&gt;src_metadata_utilities_validate_schema</title><style>.edge>path:hover{stroke-width:8}</style>
<path fill="none" stroke="black" d="M575.63,-613.33C563.69,-570.74 604.64,-564.66 613.63,-521.35"/>
<path fill="none" stroke="black" d="M613.63,-519.35C617.31,-501.59 621.56,-481.95 625.19,-465.39"/>
<polygon fill="#cccc33" stroke="black" points="628.63,-466.04 627.36,-455.52 621.79,-464.53 628.63,-466.04"/>
</g>
<!-- opencensus -->
<g id="node3" class="node">
<title>opencensus</title><style>.edge>path:hover{stroke-width:8}</style>
<ellipse fill="#47c247" stroke="black" cx="318.63" cy="-990.26" rx="40.74" ry="18"/>
<text text-anchor="middle" x="318.63" y="-987.76" font-family="Helvetica,sans-Serif" font-size="10.00" fill="#000000">opencensus</text>
</g>
<!-- src_metadata_utilities_mu_logging -->
<g id="node24" class="node">
<title>src_metadata_utilities_mu_logging</title><style>.edge>path:hover{stroke-width:8}</style>
<ellipse fill="#0909b8" stroke="black" cx="345.63" cy="-708.31" rx="67.76" ry="28.98"/>
<text text-anchor="middle" x="345.63" y="-716.81" font-family="Helvetica,sans-Serif" font-size="10.00" fill="#ffffff">src.</text>
<text text-anchor="middle" x="345.63" y="-705.81" font-family="Helvetica,sans-Serif" font-size="10.00" fill="#ffffff">metadata_utilities.</text>
<text text-anchor="middle" x="345.63" y="-694.81" font-family="Helvetica,sans-Serif" font-size="10.00" fill="#ffffff">mu_logging</text>
</g>
<!-- opencensus&#45;&gt;src_metadata_utilities_mu_logging -->
<g id="edge5" class="edge">
<title>opencensus&#45;&gt;src_metadata_utilities_mu_logging</title><style>.edge>path:hover{stroke-width:8}</style>
<path fill="none" stroke="black" d="M295.95,-975.04C272.79,-958.51 241.31,-929.36 249.63,-897.28"/>
</g>
<!-- opencensus_ext -->
<g id="node4" class="node">
<title>opencensus_ext</title><style>.edge>path:hover{stroke-width:8}</style>
<ellipse fill="#47c247" stroke="black" cx="50.63" cy="-990.26" rx="50.75" ry="18"/>
<text text-anchor="middle" x="50.63" y="-987.76" font-family="Helvetica,sans-Serif" font-size="10.00" fill="#000000">opencensus.ext</text>
</g>
<!-- opencensus_ext&#45;&gt;src_metadata_utilities_mu_logging -->
<g id="edge6" class="edge">
<title>opencensus_ext&#45;&gt;src_metadata_utilities_mu_logging</title><style>.edge>path:hover{stroke-width:8}</style>
<path fill="none" stroke="black" d="M79.91,-975.57C89.67,-971.01 100.61,-965.91 110.63,-961.27 172.33,-932.67 232.56,-963.11 249.63,-897.28"/>
<path fill="none" stroke="black" d="M249.63,-895.28C263.4,-842.17 241.56,-821.03 268.63,-773.31 276.15,-760.04 287.56,-748.35 299.32,-738.71"/>
<polygon fill="#47c247" stroke="black" points="301.72,-741.28 307.46,-732.38 297.42,-735.75 301.72,-741.28"/>
</g>
<!-- opencensus_ext_azure -->
<g id="node5" class="node">
<title>opencensus_ext_azure</title><style>.edge>path:hover{stroke-width:8}</style>
<ellipse fill="#47c247" stroke="black" cx="170.63" cy="-990.26" rx="50.82" ry="28.98"/>
<text text-anchor="middle" x="170.63" y="-998.76" font-family="Helvetica,sans-Serif" font-size="10.00" fill="#000000">opencensus.</text>
<text text-anchor="middle" x="170.63" y="-987.76" font-family="Helvetica,sans-Serif" font-size="10.00" fill="#000000">ext.</text>
<text text-anchor="middle" x="170.63" y="-976.76" font-family="Helvetica,sans-Serif" font-size="10.00" fill="#000000">azure</text>
</g>
<!-- opencensus_ext_azure&#45;&gt;src_metadata_utilities_mu_logging -->
<g id="edge7" class="edge">
<title>opencensus_ext_azure&#45;&gt;src_metadata_utilities_mu_logging</title><style>.edge>path:hover{stroke-width:8}</style>
<path fill="none" stroke="black" d="M200.86,-966.57C219.95,-949.93 242.33,-925.4 249.63,-897.28"/>
</g>
<!-- opencensus_ext_azure_log_exporter -->
<g id="node6" class="node">
<title>opencensus_ext_azure_log_exporter</title><style>.edge>path:hover{stroke-width:8}</style>
<ellipse fill="#46a446" stroke="black" cx="249.63" cy="-1092.02" rx="50.82" ry="36.54"/>
<text text-anchor="middle" x="249.63" y="-1106.02" font-family="Helvetica,sans-Serif" font-size="10.00" fill="#ffffff">opencensus.</text>
<text text-anchor="middle" x="249.63" y="-1095.02" font-family="Helvetica,sans-Serif" font-size="10.00" fill="#ffffff">ext.</text>
<text text-anchor="middle" x="249.63" y="-1084.02" font-family="Helvetica,sans-Serif" font-size="10.00" fill="#ffffff">azure.</text>
<text text-anchor="middle" x="249.63" y="-1073.02" font-family="Helvetica,sans-Serif" font-size="10.00" fill="#ffffff">log_exporter</text>
</g>
<!-- opencensus_ext_azure_log_exporter&#45;&gt;src_metadata_utilities_mu_logging -->
<g id="edge8" class="edge">
<title>opencensus_ext_azure_log_exporter&#45;&gt;src_metadata_utilities_mu_logging</title><style>.edge>path:hover{stroke-width:8}</style>
<path fill="none" stroke="black" d="M243.12,-1055.33C237.35,-1015.65 232.26,-950.17 249.63,-897.28"/>
</g>
<!-- requests -->
<g id="node7" class="node">
<title>requests</title><style>.edge>path:hover{stroke-width:8}</style>
<ellipse fill="#24d0d0" stroke="black" cx="957.63" cy="-708.31" rx="31.58" ry="18"/>
<text text-anchor="middle" x="957.63" y="-705.81" font-family="Helvetica,sans-Serif" font-size="10.00" fill="#000000">requests</text>
</g>
<!-- src_edc_utilities_edc_custom_attributes -->
<g id="node11" class="node">
<title>src_edc_utilities_edc_custom_attributes</title><style>.edge>path:hover{stroke-width:8}</style>
<ellipse fill="#202083" stroke="black" cx="1048.63" cy="-332.38" rx="82.05" ry="28.98"/>
<text text-anchor="middle" x="1048.63" y="-340.88" font-family="Helvetica,sans-Serif" font-size="10.00" fill="#ffffff">src.</text>
<text text-anchor="middle" x="1048.63" y="-329.88" font-family="Helvetica,sans-Serif" font-size="10.00" fill="#ffffff">edc_utilities.</text>
<text text-anchor="middle" x="1048.63" y="-318.88" font-family="Helvetica,sans-Serif" font-size="10.00" fill="#ffffff">edc_custom_attributes</text>
</g>
<!-- requests&#45;&gt;src_edc_utilities_edc_custom_attributes -->
<g id="edge9" class="edge">
<title>requests&#45;&gt;src_edc_utilities_edc_custom_attributes</title><style>.edge>path:hover{stroke-width:8}</style>
<path fill="none" stroke="black" d="M989.29,-705.1C1035.72,-700.46 1123.21,-686.26 1182.63,-643.32 1194.81,-634.52 1194.99,-628.82 1201.63,-615.33"/>
<path fill="none" stroke="black" d="M1201.63,-613.33C1244.26,-526.68 1232.99,-476.5 1177.63,-397.37 1164.14,-378.1 1143.15,-364.35 1121.98,-354.67"/>
<polygon fill="#24d0d0" stroke="black" points="1123.17,-351.37 1112.6,-350.63 1120.4,-357.8 1123.17,-351.37"/>
</g>
<!-- src_edc_utilities_edc_session_helper -->
<g id="node13" class="node">
<title>src_edc_utilities_edc_session_helper</title><style>.edge>path:hover{stroke-width:8}</style>
<ellipse fill="#2d2db4" stroke="black" cx="1062.63" cy="-426.37" rx="72.66" ry="28.98"/>
<text text-anchor="middle" x="1062.63" y="-434.87" font-family="Helvetica,sans-Serif" font-size="10.00" fill="#ffffff">src.</text>
<text text-anchor="middle" x="1062.63" y="-423.87" font-family="Helvetica,sans-Serif" font-size="10.00" fill="#ffffff">edc_utilities.</text>
<text text-anchor="middle" x="1062.63" y="-412.87" font-family="Helvetica,sans-Serif" font-size="10.00" fill="#ffffff">edc_session_helper</text>
</g>
<!-- requests&#45;&gt;src_edc_utilities_edc_session_helper -->
<g id="edge10" class="edge">
<title>requests&#45;&gt;src_edc_utilities_edc_session_helper</title><style>.edge>path:hover{stroke-width:8}</style>
<path fill="none" stroke="black" d="M956.06,-690.24C954.73,-671.68 953.6,-641.21 957.63,-615.33"/>
</g>
<!-- src_edc_utilities_edcutils -->
<g id="node14" class="node">
<title>src_edc_utilities_edcutils</title><style>.edge>path:hover{stroke-width:8}</style>
<ellipse fill="#4949ac" stroke="black" cx="921.63" cy="-426.37" rx="50.41" ry="28.98"/>
<text text-anchor="middle" x="921.63" y="-434.87" font-family="Helvetica,sans-Serif" font-size="10.00" fill="#ffffff">src.</text>
<text text-anchor="middle" x="921.63" y="-423.87" font-family="Helvetica,sans-Serif" font-size="10.00" fill="#ffffff">edc_utilities.</text>
<text text-anchor="middle" x="921.63" y="-412.87" font-family="Helvetica,sans-Serif" font-size="10.00" fill="#ffffff">edcutils</text>
</g>
<!-- requests&#45;&gt;src_edc_utilities_edcutils -->
<g id="edge11" class="edge">
<title>requests&#45;&gt;src_edc_utilities_edcutils</title><style>.edge>path:hover{stroke-width:8}</style>
<path fill="none" stroke="black" d="M945.28,-691.72C932.64,-673.96 915.42,-643.7 919.63,-615.33"/>
</g>
<!-- requests_auth -->
<g id="node8" class="node">
<title>requests_auth</title><style>.edge>path:hover{stroke-width:8}</style>
<ellipse fill="#53b6b6" stroke="black" cx="824.63" cy="-708.31" rx="44.98" ry="18"/>
<text text-anchor="middle" x="824.63" y="-705.81" font-family="Helvetica,sans-Serif" font-size="10.00" fill="#000000">requests.auth</text>
</g>
<!-- requests_auth&#45;&gt;src_edc_utilities_edcutils -->
<g id="edge12" class="edge">
<title>requests_auth&#45;&gt;src_edc_utilities_edcutils</title><style>.edge>path:hover{stroke-width:8}</style>
<path fill="none" stroke="black" d="M851.92,-693.82C878.03,-678.85 914.2,-651.89 919.63,-615.33"/>
<path fill="none" stroke="black" d="M919.63,-613.33C927.14,-562.68 926.11,-503.42 924.24,-465.65"/>
<polygon fill="#53b6b6" stroke="black" points="927.73,-465.39 923.7,-455.59 920.74,-465.77 927.73,-465.39"/>
</g>
<!-- src_add_custom_attributes -->
<g id="node9" class="node">
<title>src_add_custom_attributes</title><style>.edge>path:hover{stroke-width:8}</style>
<ellipse fill="#43439d" stroke="black" cx="1365.63" cy="-21.21" rx="82.05" ry="21.43"/>
<text text-anchor="middle" x="1365.63" y="-24.21" font-family="Helvetica,sans-Serif" font-size="10.00" fill="#ffffff">src.</text>
<text text-anchor="middle" x="1365.63" y="-13.21" font-family="Helvetica,sans-Serif" font-size="10.00" fill="#ffffff">add_custom_attributes</text>
</g>
<!-- src_edc_utilities -->
<g id="node10" class="node">
<title>src_edc_utilities</title><style>.edge>path:hover{stroke-width:8}</style>
<ellipse fill="#2222e7" stroke="black" cx="691.63" cy="-332.38" rx="48.17" ry="21.43"/>
<text text-anchor="middle" x="691.63" y="-335.38" font-family="Helvetica,sans-Serif" font-size="10.00" fill="#ffffff">src.</text>
<text text-anchor="middle" x="691.63" y="-324.38" font-family="Helvetica,sans-Serif" font-size="10.00" fill="#ffffff">edc_utilities</text>
</g>
<!-- src_metadata_utilities_load_custom_attributes -->
<g id="node20" class="node">
<title>src_metadata_utilities_load_custom_attributes</title><style>.edge>path:hover{stroke-width:8}</style>
<ellipse fill="#2e2e8a" stroke="black" cx="790.63" cy="-144.42" rx="83.38" ry="28.98"/>
<text text-anchor="middle" x="790.63" y="-152.92" font-family="Helvetica,sans-Serif" font-size="10.00" fill="#ffffff">src.</text>
<text text-anchor="middle" x="790.63" y="-141.92" font-family="Helvetica,sans-Serif" font-size="10.00" fill="#ffffff">metadata_utilities.</text>
<text text-anchor="middle" x="790.63" y="-130.92" font-family="Helvetica,sans-Serif" font-size="10.00" fill="#ffffff">load_custom_attributes</text>
</g>
<!-- src_edc_utilities&#45;&gt;src_metadata_utilities_load_custom_attributes -->
<g id="edge13" class="edge">
<title>src_edc_utilities&#45;&gt;src_metadata_utilities_load_custom_attributes</title><style>.edge>path:hover{stroke-width:8}</style>
<path fill="none" stroke="black" d="M691.63,-237.4C693.26,-210.51 713.35,-189.24 735.01,-173.95"/>
<polygon fill="#2222e7" stroke="black" points="736.97,-176.85 743.35,-168.39 733.09,-171.02 736.97,-176.85"/>
</g>
<!-- src_metadata_utilities_load_json_metadata -->
<g id="node21" class="node">
<title>src_metadata_utilities_load_json_metadata</title><style>.edge>path:hover{stroke-width:8}</style>
<ellipse fill="#262673" stroke="black" cx="615.63" cy="-144.42" rx="73.58" ry="28.98"/>
<text text-anchor="middle" x="615.63" y="-152.92" font-family="Helvetica,sans-Serif" font-size="10.00" fill="#ffffff">src.</text>
<text text-anchor="middle" x="615.63" y="-141.92" font-family="Helvetica,sans-Serif" font-size="10.00" fill="#ffffff">metadata_utilities.</text>
<text text-anchor="middle" x="615.63" y="-130.92" font-family="Helvetica,sans-Serif" font-size="10.00" fill="#ffffff">load_json_metadata</text>
</g>
<!-- src_edc_utilities&#45;&gt;src_metadata_utilities_load_json_metadata -->
<g id="edge14" class="edge">
<title>src_edc_utilities&#45;&gt;src_metadata_utilities_load_json_metadata</title><style>.edge>path:hover{stroke-width:8}</style>
<path fill="none" stroke="black" d="M691.63,-237.4C693.08,-213.55 677.8,-192.52 660.56,-176.61"/>
<polygon fill="#2222e7" stroke="black" points="662.41,-173.58 652.56,-169.67 657.82,-178.87 662.41,-173.58"/>
<path fill="none" stroke="black" d="M690.91,-310.9C690.43,-292.25 690.13,-263.95 691.63,-239.4"/>
</g>
<!-- src_edc_utilities_edc_custom_attributes&#45;&gt;src_metadata_utilities_load_custom_attributes -->
<g id="edge15" class="edge">
<title>src_edc_utilities_edc_custom_attributes&#45;&gt;src_metadata_utilities_load_custom_attributes</title><style>.edge>path:hover{stroke-width:8}</style>
<path fill="none" stroke="black" d="M1057.92,-303.35C1062.79,-282.79 1064.82,-255.73 1048.63,-239.4"/>
</g>
<!-- src_edc_utilities_edc_custom_attributes&#45;&gt;src_metadata_utilities_load_json_metadata -->
<g id="edge16" class="edge">
<title>src_edc_utilities_edc_custom_attributes&#45;&gt;src_metadata_utilities_load_json_metadata</title><style>.edge>path:hover{stroke-width:8}</style>
<path fill="none" stroke="black" d="M997.68,-309.5C916.66,-274.71 758.92,-206.96 673.66,-170.34"/>
<polygon fill="#202083" stroke="black" points="674.95,-167.09 664.38,-166.36 672.19,-173.52 674.95,-167.09"/>
</g>
<!-- src_edc_utilities_edc_lineage&#45;&gt;src_metadata_utilities_load_json_metadata -->
<g id="edge17" class="edge">
<title>src_edc_utilities_edc_lineage&#45;&gt;src_metadata_utilities_load_json_metadata</title><style>.edge>path:hover{stroke-width:8}</style>
<path fill="none" stroke="black" d="M819.71,-307.43C792.09,-282.24 746.77,-241.83 705.63,-209.41 691.15,-198 674.85,-186.14 660.15,-175.77"/>
<polygon fill="#2b2b82" stroke="black" points="661.9,-172.72 651.7,-169.85 657.88,-178.46 661.9,-172.72"/>
</g>
<!-- src_edc_utilities_edc_session_helper&#45;&gt;src_edc_utilities_edc_custom_attributes -->
<g id="edge18" class="edge">
<title>src_edc_utilities_edc_session_helper&#45;&gt;src_edc_utilities_edc_custom_attributes</title><style>.edge>path:hover{stroke-width:8}</style>
<path fill="none" stroke="black" d="M1058.35,-397.27C1057.13,-389.23 1055.77,-380.33 1054.47,-371.79"/>
<polygon fill="#2d2db4" stroke="black" points="1057.89,-370.99 1052.92,-361.63 1050.97,-372.04 1057.89,-370.99"/>
</g>
<!-- src_edc_utilities_edc_session_helper&#45;&gt;src_edc_utilities_edc_lineage -->
<g id="edge19" class="edge">
<title>src_edc_utilities_edc_session_helper&#45;&gt;src_edc_utilities_edc_lineage</title><style>.edge>path:hover{stroke-width:8}</style>
<path fill="none" stroke="black" d="M1013.93,-404.72C978.37,-389.65 930.34,-369.29 894.7,-354.18"/>
<polygon fill="#2d2db4" stroke="black" points="896.03,-350.95 885.46,-350.27 893.3,-357.39 896.03,-350.95"/>
</g>
<!-- src_metadata_utilities -->
<g id="node15" class="node">
<title>src_metadata_utilities</title><style>.edge>path:hover{stroke-width:8}</style>
<ellipse fill="#1010f9" stroke="black" cx="1107.63" cy="-614.33" rx="65.52" ry="21.43"/>
<text text-anchor="middle" x="1107.63" y="-617.33" font-family="Helvetica,sans-Serif" font-size="10.00" fill="#ffffff">src.</text>
<text text-anchor="middle" x="1107.63" y="-606.33" font-family="Helvetica,sans-Serif" font-size="10.00" fill="#ffffff">metadata_utilities</text>
</g>
<!-- src_metadata_utilities&#45;&gt;src_add_custom_attributes -->
<g id="edge20" class="edge">
<title>src_metadata_utilities&#45;&gt;src_add_custom_attributes</title><style>.edge>path:hover{stroke-width:8}</style>
<path fill="none" stroke="black" d="M1139.26,-595.49C1202.8,-557.13 1340.97,-459.89 1353.63,-333.38"/>
<path fill="none" stroke="black" d="M1353.63,-331.38C1364.2,-219.9 1275.38,-159.54 1353.63,-79.43"/>
</g>
<!-- src_metadata_utilities&#45;&gt;src_edc_utilities_edc_custom_attributes -->
<g id="edge21" class="edge">
<title>src_metadata_utilities&#45;&gt;src_edc_utilities_edc_custom_attributes</title><style>.edge>path:hover{stroke-width:8}</style>
<path fill="none" stroke="black" d="M1163.63,-425.37C1155.38,-412.79 1155.3,-407.96 1144.63,-397.37 1131.67,-384.52 1115.77,-372.71 1100.67,-362.83"/>
<polygon fill="#1010f9" stroke="black" points="1102.21,-359.67 1091.9,-357.24 1098.45,-365.57 1102.21,-359.67"/>
</g>
<!-- src_metadata_utilities&#45;&gt;src_edc_utilities_edc_lineage -->
<g id="edge22" class="edge">
<title>src_metadata_utilities&#45;&gt;src_edc_utilities_edc_lineage</title><style>.edge>path:hover{stroke-width:8}</style>
<path fill="none" stroke="black" d="M1163.63,-519.35C1164.53,-478.48 1186.05,-461.55 1163.63,-427.37"/>
<path fill="none" stroke="black" d="M1163.63,-425.37C1155.38,-412.79 1157.18,-405.64 1144.63,-397.37 1073.94,-350.83 1040.27,-379.64 957.63,-361.37 938.97,-357.25 918.67,-352.32 900.55,-347.75"/>
<polygon fill="#1010f9" stroke="black" points="901.28,-344.32 890.72,-345.25 899.55,-351.11 901.28,-344.32"/>
</g>
<!-- src_metadata_utilities&#45;&gt;src_edc_utilities_edc_session_helper -->
<g id="edge23" class="edge">
<title>src_metadata_utilities&#45;&gt;src_edc_utilities_edc_session_helper</title><style>.edge>path:hover{stroke-width:8}</style>
<path fill="none" stroke="black" d="M1163.63,-519.35C1164.25,-491.05 1142.34,-469.15 1118.78,-453.83"/>
<polygon fill="#1010f9" stroke="black" points="1120.41,-450.72 1110.06,-448.48 1116.75,-456.69 1120.41,-450.72"/>
<path fill="none" stroke="black" d="M1127.84,-593.85C1143.63,-576.5 1163,-549.57 1163.63,-521.35"/>
</g>
<!-- src_run_edc_lineage -->
<g id="node26" class="node">
<title>src_run_edc_lineage</title><style>.edge>path:hover{stroke-width:8}</style>
<ellipse fill="#4646a4" stroke="black" cx="1203.63" cy="-21.21" rx="61.54" ry="21.43"/>
<text text-anchor="middle" x="1203.63" y="-24.21" font-family="Helvetica,sans-Serif" font-size="10.00" fill="#ffffff">src.</text>
<text text-anchor="middle" x="1203.63" y="-13.21" font-family="Helvetica,sans-Serif" font-size="10.00" fill="#ffffff">run_edc_lineage</text>
</g>
<!-- src_metadata_utilities&#45;&gt;src_run_edc_lineage -->
<g id="edge24" class="edge">
<title>src_metadata_utilities&#45;&gt;src_run_edc_lineage</title><style>.edge>path:hover{stroke-width:8}</style>
<path fill="none" stroke="black" d="M1136.2,-594.91C1151.16,-583.65 1168.26,-567.85 1177.63,-549.34 1272.39,-361.9 1130.09,-265.44 1227.63,-79.43"/>
</g>
<!-- src_metadata_utilities_check_schema&#45;&gt;src_metadata_utilities_load_json_metadata -->
<g id="edge25" class="edge">
<title>src_metadata_utilities_check_schema&#45;&gt;src_metadata_utilities_load_json_metadata</title><style>.edge>path:hover{stroke-width:8}</style>
<path fill="none" stroke="black" d="M493.71,-407.4C542.37,-389.12 608.58,-359.79 615.63,-333.38"/>
</g>
<!-- src_metadata_utilities_generic&#45;&gt;src_edc_utilities_edc_custom_attributes -->
<g id="edge26" class="edge">
<title>src_metadata_utilities_generic&#45;&gt;src_edc_utilities_edc_custom_attributes</title><style>.edge>path:hover{stroke-width:8}</style>
<path fill="none" stroke="black" d="M767.63,-425.37C775.07,-405.39 891.21,-372.6 971.82,-352.04"/>
<polygon fill="#0a0acc" stroke="black" points="973.12,-355.32 981.96,-349.47 971.4,-348.54 973.12,-355.32"/>
</g>
<!-- src_metadata_utilities_generic&#45;&gt;src_edc_utilities_edc_lineage -->
<g id="edge27" class="edge">
<title>src_metadata_utilities_generic&#45;&gt;src_edc_utilities_edc_lineage</title><style>.edge>path:hover{stroke-width:8}</style>
<path fill="none" stroke="black" d="M767.63,-425.37C776.37,-401.88 793.98,-380.26 810.26,-363.88"/>
<polygon fill="#0a0acc" stroke="black" points="812.88,-366.22 817.61,-356.74 808,-361.2 812.88,-366.22"/>
</g>
<!-- src_metadata_utilities_generic&#45;&gt;src_metadata_utilities_load_custom_attributes -->
<g id="edge28" class="edge">
<title>src_metadata_utilities_generic&#45;&gt;src_metadata_utilities_load_custom_attributes</title><style>.edge>path:hover{stroke-width:8}</style>
<path fill="none" stroke="black" d="M767.63,-425.37C781.89,-387.06 744.38,-367.01 767.63,-333.38"/>
</g>
<!-- src_metadata_utilities_generic&#45;&gt;src_metadata_utilities_load_json_metadata -->
<g id="edge29" class="edge">
<title>src_metadata_utilities_generic&#45;&gt;src_metadata_utilities_load_json_metadata</title><style>.edge>path:hover{stroke-width:8}</style>
<path fill="none" stroke="black" d="M767.63,-425.37C795.18,-351.37 595.27,-409.68 615.63,-333.38"/>
<path fill="none" stroke="black" d="M751.58,-491.39C754.71,-472.85 759.87,-448.19 767.63,-427.37"/>
</g>
<!-- src_metadata_utilities_generic&#45;&gt;src_metadata_utilities_validate_schema -->
<g id="edge30" class="edge">
<title>src_metadata_utilities_generic&#45;&gt;src_metadata_utilities_validate_schema</title><style>.edge>path:hover{stroke-width:8}</style>
<path fill="none" stroke="black" d="M716.77,-494.46C703.09,-483.41 686.83,-470.3 672.34,-458.61"/>
<polygon fill="#0a0acc" stroke="black" points="674.48,-455.83 664.5,-452.28 670.08,-461.28 674.48,-455.83"/>
</g>
<!-- src_metadata_utilities_generic_settings -->
<g id="node18" class="node">
<title>src_metadata_utilities_generic_settings</title><style>.edge>path:hover{stroke-width:8}</style>
<ellipse fill="#0505db" stroke="black" cx="747.63" cy="-614.33" rx="67.76" ry="28.98"/>
<text text-anchor="middle" x="747.63" y="-622.83" font-family="Helvetica,sans-Serif" font-size="10.00" fill="#ffffff">src.</text>
<text text-anchor="middle" x="747.63" y="-611.83" font-family="Helvetica,sans-Serif" font-size="10.00" fill="#ffffff">metadata_utilities.</text>
<text text-anchor="middle" x="747.63" y="-600.83" font-family="Helvetica,sans-Serif" font-size="10.00" fill="#ffffff">generic_settings</text>
</g>
<!-- src_metadata_utilities_generic_settings&#45;&gt;src_edc_utilities_edc_custom_attributes -->
<g id="edge31" class="edge">
<title>src_metadata_utilities_generic_settings&#45;&gt;src_edc_utilities_edc_custom_attributes</title><style>.edge>path:hover{stroke-width:8}</style>
<path fill="none" stroke="black" d="M843.63,-425.37C850.84,-412.17 850.68,-406.51 862.63,-397.37 880.85,-383.44 931.16,-366.51 974.87,-353.56"/>
<polygon fill="#0505db" stroke="black" points="976.05,-356.87 984.66,-350.7 974.08,-350.15 976.05,-356.87"/>
</g>
<!-- src_metadata_utilities_generic_settings&#45;&gt;src_edc_utilities_edc_lineage -->
<g id="edge32" class="edge">
<title>src_metadata_utilities_generic_settings&#45;&gt;src_edc_utilities_edc_lineage</title><style>.edge>path:hover{stroke-width:8}</style>
<path fill="none" stroke="black" d="M805.63,-425.37C804.2,-405.43 812.09,-384.89 821.23,-368.29"/>
<polygon fill="#0505db" stroke="black" points="824.34,-369.89 826.38,-359.5 818.31,-366.35 824.34,-369.89"/>
<path fill="none" stroke="black" d="M843.63,-519.35C856.62,-477.07 808.78,-471.49 805.63,-427.37"/>
<path fill="none" stroke="black" d="M786.57,-590.36C809.04,-574.37 834.6,-550.69 843.63,-521.35"/>
</g>
<!-- src_metadata_utilities_generic_settings&#45;&gt;src_metadata_utilities_generic -->
<g id="edge33" class="edge">
<title>src_metadata_utilities_generic_settings&#45;&gt;src_metadata_utilities_generic</title><style>.edge>path:hover{stroke-width:8}</style>
<path fill="none" stroke="black" d="M747.63,-585.23C747.63,-577.2 747.63,-568.29 747.63,-559.75"/>
<polygon fill="#0505db" stroke="black" points="751.13,-559.59 747.63,-549.59 744.13,-559.59 751.13,-559.59"/>
</g>
<!-- src_metadata_utilities_generic_settings&#45;&gt;src_metadata_utilities_load_custom_attributes -->
<g id="edge34" class="edge">
<title>src_metadata_utilities_generic_settings&#45;&gt;src_metadata_utilities_load_custom_attributes</title><style>.edge>path:hover{stroke-width:8}</style>
<path fill="none" stroke="black" d="M843.63,-425.37C850.84,-412.17 852.61,-408.59 862.63,-397.37 879.01,-379.04 886.97,-378.48 904.63,-361.37 929.7,-337.08 931.41,-326.45 957.63,-303.39 994.75,-270.73 1083.44,-274.51 1048.63,-239.4"/>
<path fill="none" stroke="black" d="M843.63,-519.35C855.64,-480.27 824.02,-463.24 843.63,-427.37"/>
<path fill="none" stroke="black" d="M1048.63,-237.4C1003.3,-191.69 933.77,-168.6 878.3,-156.99"/>
<polygon fill="#0505db" stroke="black" points="878.96,-153.55 868.47,-155.02 877.59,-160.42 878.96,-153.55"/>
</g>
<!-- src_metadata_utilities_generic_settings&#45;&gt;src_metadata_utilities_load_json_metadata -->
<g id="edge35" class="edge">
<title>src_metadata_utilities_generic_settings&#45;&gt;src_metadata_utilities_load_json_metadata</title><style>.edge>path:hover{stroke-width:8}</style>
<path fill="none" stroke="black" d="M651.63,-519.35C647.7,-503.54 707.22,-463 710.63,-455.36 721.11,-431.82 724.41,-419.15 710.63,-397.37 683.4,-354.36 602.5,-382.57 615.63,-333.38"/>
</g>
<!-- src_metadata_utilities_generic_settings&#45;&gt;src_metadata_utilities_validate_schema -->
<g id="edge36" class="edge">
<title>src_metadata_utilities_generic_settings&#45;&gt;src_metadata_utilities_validate_schema</title><style>.edge>path:hover{stroke-width:8}</style>
<path fill="none" stroke="black" d="M707.82,-590.85C684.84,-574.98 659.05,-551.25 651.63,-521.35"/>
<path fill="none" stroke="black" d="M651.63,-519.35C647.24,-501.69 643.25,-481.92 640.15,-465.24"/>
<polygon fill="#0505db" stroke="black" points="643.57,-464.51 638.34,-455.3 636.69,-465.77 643.57,-464.51"/>
</g>
<!-- src_metadata_utilities_json_file_utilities -->
<g id="node19" class="node">
<title>src_metadata_utilities_json_file_utilities</title><style>.edge>path:hover{stroke-width:8}</style>
<ellipse fill="#4747c2" stroke="black" cx="519.63" cy="-238.4" rx="67.76" ry="28.98"/>
<text text-anchor="middle" x="519.63" y="-246.9" font-family="Helvetica,sans-Serif" font-size="10.00" fill="#ffffff">src.</text>
<text text-anchor="middle" x="519.63" y="-235.9" font-family="Helvetica,sans-Serif" font-size="10.00" fill="#ffffff">metadata_utilities.</text>
<text text-anchor="middle" x="519.63" y="-224.9" font-family="Helvetica,sans-Serif" font-size="10.00" fill="#ffffff">json_file_utilities</text>
</g>
<!-- src_metadata_utilities_json_file_utilities&#45;&gt;src_metadata_utilities_load_json_metadata -->
<g id="edge37" class="edge">
<title>src_metadata_utilities_json_file_utilities&#45;&gt;src_metadata_utilities_load_json_metadata</title><style>.edge>path:hover{stroke-width:8}</style>
<path fill="none" stroke="black" d="M546.62,-211.53C557.36,-201.25 569.84,-189.29 581.21,-178.39"/>
<polygon fill="#4747c2" stroke="black" points="583.7,-180.86 588.5,-171.41 578.86,-175.8 583.7,-180.86"/>
</g>
<!-- src_metadata_utilities_load_custom_attributes&#45;&gt;src_add_custom_attributes -->
<g id="edge38" class="edge">
<title>src_metadata_utilities_load_custom_attributes&#45;&gt;src_add_custom_attributes</title><style>.edge>path:hover{stroke-width:8}</style>
<path fill="none" stroke="black" d="M872.99,-139.72C1021.22,-132.26 1320.68,-113.16 1353.63,-79.43"/>
<path fill="none" stroke="black" d="M1353.63,-78.43C1360.26,-71.63 1363.62,-62.12 1365.23,-52.85"/>
<polygon fill="#2e2e8a" stroke="black" points="1368.73,-52.97 1366.37,-42.64 1361.78,-52.19 1368.73,-52.97"/>
</g>
<!-- src_metadata_utilities_load_json_metadata&#45;&gt;src_run_edc_lineage -->
<g id="edge39" class="edge">
<title>src_metadata_utilities_load_json_metadata&#45;&gt;src_run_edc_lineage</title><style>.edge>path:hover{stroke-width:8}</style>
<path fill="none" stroke="black" d="M1227.63,-78.43C1232.28,-69.55 1230.23,-59.56 1225.79,-50.5"/>
<polygon fill="#262673" stroke="black" points="1228.78,-48.68 1220.71,-41.82 1222.74,-52.22 1228.78,-48.68"/>
<path fill="none" stroke="black" d="M667.31,-123.71C677.56,-120.45 688.33,-117.48 698.63,-115.43 756.4,-103.92 1200.27,-131.6 1227.63,-79.43"/>
</g>
<!-- src_metadata_utilities_log_settings -->
<g id="node22" class="node">
<title>src_metadata_utilities_log_settings</title><style>.edge>path:hover{stroke-width:8}</style>
<ellipse fill="#3a3ab0" stroke="black" cx="345.63" cy="-802.3" rx="67.76" ry="28.98"/>
<text text-anchor="middle" x="345.63" y="-810.8" font-family="Helvetica,sans-Serif" font-size="10.00" fill="#ffffff">src.</text>
<text text-anchor="middle" x="345.63" y="-799.8" font-family="Helvetica,sans-Serif" font-size="10.00" fill="#ffffff">metadata_utilities.</text>
<text text-anchor="middle" x="345.63" y="-788.8" font-family="Helvetica,sans-Serif" font-size="10.00" fill="#ffffff">log_settings</text>
</g>
<!-- src_metadata_utilities_log_settings&#45;&gt;src_metadata_utilities_mu_logging -->
<g id="edge40" class="edge">
<title>src_metadata_utilities_log_settings&#45;&gt;src_metadata_utilities_mu_logging</title><style>.edge>path:hover{stroke-width:8}</style>
<path fill="none" stroke="black" d="M345.63,-773.2C345.63,-765.16 345.63,-756.26 345.63,-747.72"/>
<polygon fill="#3a3ab0" stroke="black" points="349.13,-747.56 345.63,-737.56 342.13,-747.56 349.13,-747.56"/>
</g>
<!-- src_metadata_utilities_messages -->
<g id="node23" class="node">
<title>src_metadata_utilities_messages</title><style>.edge>path:hover{stroke-width:8}</style>
<ellipse fill="#1010f9" stroke="black" cx="441.63" cy="-896.28" rx="67.76" ry="28.98"/>
<text text-anchor="middle" x="441.63" y="-904.78" font-family="Helvetica,sans-Serif" font-size="10.00" fill="#ffffff">src.</text>
<text text-anchor="middle" x="441.63" y="-893.78" font-family="Helvetica,sans-Serif" font-size="10.00" fill="#ffffff">metadata_utilities.</text>
<text text-anchor="middle" x="441.63" y="-882.78" font-family="Helvetica,sans-Serif" font-size="10.00" fill="#ffffff">messages</text>
</g>
<!-- src_metadata_utilities_messages&#45;&gt;src_add_custom_attributes -->
<g id="edge41" class="edge">
<title>src_metadata_utilities_messages&#45;&gt;src_add_custom_attributes</title><style>.edge>path:hover{stroke-width:8}</style>
<path fill="none" stroke="black" d="M1353.63,-425.37C1341.88,-386.21 1352.57,-374.25 1353.63,-333.38"/>
</g>
<!-- src_metadata_utilities_messages&#45;&gt;src_edc_utilities_edc_custom_attributes -->
<g id="edge42" class="edge">
<title>src_metadata_utilities_messages&#45;&gt;src_edc_utilities_edc_custom_attributes</title><style>.edge>path:hover{stroke-width:8}</style>
<path fill="none" stroke="black" d="M509.39,-894.24C658.08,-891.08 1008.23,-878.7 1115.63,-831.29 1246.29,-773.6 1380.9,-755.54 1353.63,-615.33"/>
<path fill="none" stroke="black" d="M1353.63,-613.33C1347.99,-555.68 1252.69,-433.78 1207.63,-397.37 1183.19,-377.64 1151.87,-363.29 1123.5,-353.26"/>
<polygon fill="#1010f9" stroke="black" points="1124.6,-349.93 1114,-350.02 1122.34,-356.56 1124.6,-349.93"/>
</g>
<!-- src_metadata_utilities_messages&#45;&gt;src_edc_utilities_edc_lineage -->
<g id="edge43" class="edge">
<title>src_metadata_utilities_messages&#45;&gt;src_edc_utilities_edc_lineage</title><style>.edge>path:hover{stroke-width:8}</style>
<path fill="none" stroke="black" d="M689.63,-707.31C699.04,-641.59 780.2,-692.67 824.63,-643.32 870.87,-591.96 880.75,-556.49 857.63,-491.36 845.36,-456.82 808.24,-463.92 805.63,-427.37"/>
</g>
<!-- src_metadata_utilities_messages&#45;&gt;src_edc_utilities_edc_session_helper -->
<g id="edge44" class="edge">
<title>src_metadata_utilities_messages&#45;&gt;src_edc_utilities_edc_session_helper</title><style>.edge>path:hover{stroke-width:8}</style>
<path fill="none" stroke="black" d="M957.63,-613.33C966.71,-555 1005.12,-497.28 1032.85,-461.99"/>
<polygon fill="#1010f9" stroke="black" points="1035.78,-463.93 1039.3,-453.94 1030.32,-459.56 1035.78,-463.93"/>
<path fill="none" stroke="black" d="M689.63,-801.3C765.3,-755.05 808.63,-791.77 878.63,-737.31 879.42,-736.69 957.29,-616.28 957.63,-615.33"/>
</g>
<!-- src_metadata_utilities_messages&#45;&gt;src_metadata_utilities_check_schema -->
<g id="edge45" class="edge">
<title>src_metadata_utilities_messages&#45;&gt;src_metadata_utilities_check_schema</title><style>.edge>path:hover{stroke-width:8}</style>
<path fill="none" stroke="black" d="M441.63,-519.35C436.14,-502.22 435.49,-482.36 436.47,-465.48"/>
<polygon fill="#1010f9" stroke="black" points="439.96,-465.66 437.26,-455.42 432.99,-465.11 439.96,-465.66"/>
<path fill="none" stroke="black" d="M441.63,-613.33C429.17,-574.39 454.08,-560.29 441.63,-521.35"/>
</g>
<!-- src_metadata_utilities_messages&#45;&gt;src_metadata_utilities_generic -->
<g id="edge46" class="edge">
<title>src_metadata_utilities_messages&#45;&gt;src_metadata_utilities_generic</title><style>.edge>path:hover{stroke-width:8}</style>
<path fill="none" stroke="black" d="M689.63,-707.31C695.25,-663.44 637.32,-657.19 651.63,-615.33"/>
</g>
<!-- src_metadata_utilities_messages&#45;&gt;src_metadata_utilities_generic_settings -->
<g id="edge47" class="edge">
<title>src_metadata_utilities_messages&#45;&gt;src_metadata_utilities_generic_settings</title><style>.edge>path:hover{stroke-width:8}</style>
<path fill="none" stroke="black" d="M689.63,-707.31C692.34,-686.11 704.01,-665.66 716.17,-649.45"/>
<polygon fill="#1010f9" stroke="black" points="719.09,-651.4 722.53,-641.38 713.6,-647.07 719.09,-651.4"/>
</g>
<!-- src_metadata_utilities_messages&#45;&gt;src_metadata_utilities_load_custom_attributes -->
<g id="edge48" class="edge">
<title>src_metadata_utilities_messages&#45;&gt;src_metadata_utilities_load_custom_attributes</title><style>.edge>path:hover{stroke-width:8}</style>
<path fill="none" stroke="black" d="M1353.63,-613.33C1351.94,-530.7 1371.58,-508.04 1353.63,-427.37"/>
<path fill="none" stroke="black" d="M1353.63,-425.37C1315.04,-271.36 1160.41,-352.14 1048.63,-239.4"/>
</g>
<!-- src_metadata_utilities_messages&#45;&gt;src_metadata_utilities_load_json_metadata -->
<g id="edge49" class="edge">
<title>src_metadata_utilities_messages&#45;&gt;src_metadata_utilities_load_json_metadata</title><style>.edge>path:hover{stroke-width:8}</style>
<path fill="none" stroke="black" d="M441.63,-613.33C410.57,-516.28 302.1,-477.84 364.63,-397.37 435.26,-306.47 584.42,-444.2 615.63,-333.38"/>
<path fill="none" stroke="black" d="M615.63,-331.38C627.1,-281.33 624.32,-221.69 620.56,-183.7"/>
<polygon fill="#1010f9" stroke="black" points="624.03,-183.16 619.49,-173.58 617.07,-183.89 624.03,-183.16"/>
<path fill="none" stroke="black" d="M444.28,-867.27C448.49,-816.66 454.95,-706.71 441.63,-615.33"/>
</g>
<!-- src_metadata_utilities_messages&#45;&gt;src_metadata_utilities_log_settings -->
<g id="edge50" class="edge">
<title>src_metadata_utilities_messages&#45;&gt;src_metadata_utilities_log_settings</title><style>.edge>path:hover{stroke-width:8}</style>
<path fill="none" stroke="black" d="M414.63,-869.41C403.8,-859.04 391.2,-846.96 379.75,-835.99"/>
<polygon fill="#1010f9" stroke="black" points="382.06,-833.36 372.42,-828.97 377.22,-838.42 382.06,-833.36"/>
</g>
<!-- src_metadata_utilities_messages&#45;&gt;src_metadata_utilities_validate_schema -->
<g id="edge51" class="edge">
<title>src_metadata_utilities_messages&#45;&gt;src_metadata_utilities_validate_schema</title><style>.edge>path:hover{stroke-width:8}</style>
<path fill="none" stroke="black" d="M689.63,-707.31C694.29,-670.96 653.18,-676.51 637.63,-643.32 614.18,-593.3 602.4,-575.45 613.63,-521.35"/>
<path fill="none" stroke="black" d="M689.63,-801.3C724.51,-779.98 683.83,-749.78 689.63,-709.31"/>
<path fill="none" stroke="black" d="M499.12,-880.81C551.29,-866.14 629.09,-840.29 689.63,-803.3"/>
</g>
<!-- src_metadata_utilities_mu_logging&#45;&gt;src_edc_utilities_edc_custom_attributes -->
<g id="edge52" class="edge">
<title>src_metadata_utilities_mu_logging&#45;&gt;src_edc_utilities_edc_custom_attributes</title><style>.edge>path:hover{stroke-width:8}</style>
<path fill="none" stroke="black" d="M269.63,-613.33C265.76,-587.4 343.16,-412.42 364.63,-397.37 413.86,-362.85 844.99,-369.13 904.63,-361.37 925.99,-358.6 948.96,-354.6 970.14,-350.49"/>
<polygon fill="#0909b8" stroke="black" points="970.93,-353.9 980.06,-348.53 969.57,-347.03 970.93,-353.9"/>
</g>
<!-- src_metadata_utilities_mu_logging&#45;&gt;src_edc_utilities_edc_lineage -->
<g id="edge53" class="edge">
<title>src_metadata_utilities_mu_logging&#45;&gt;src_edc_utilities_edc_lineage</title><style>.edge>path:hover{stroke-width:8}</style>
<path fill="none" stroke="black" d="M269.63,-425.37C288.09,-401.43 302.35,-404.91 331.63,-397.37 525.93,-347.36 587.03,-410.25 781.63,-361.37 787.35,-359.94 793.21,-358.03 798.96,-355.89"/>
<polygon fill="#0909b8" stroke="black" points="800.46,-359.06 808.46,-352.11 797.87,-352.56 800.46,-359.06"/>
</g>
<!-- src_metadata_utilities_mu_logging&#45;&gt;src_metadata_utilities_generic_settings -->
<g id="edge54" class="edge">
<title>src_metadata_utilities_mu_logging&#45;&gt;src_metadata_utilities_generic_settings</title><style>.edge>path:hover{stroke-width:8}</style>
<path fill="none" stroke="black" d="M408.43,-697.27C473.37,-686.3 577.41,-667.09 665.63,-643.32 672.62,-641.44 679.87,-639.28 687.06,-637"/>
<polygon fill="#0909b8" stroke="black" points="688.34,-640.27 696.77,-633.85 686.17,-633.61 688.34,-640.27"/>
</g>
<!-- src_metadata_utilities_mu_logging&#45;&gt;src_metadata_utilities_load_custom_attributes -->
<g id="edge55" class="edge">
<title>src_metadata_utilities_mu_logging&#45;&gt;src_metadata_utilities_load_custom_attributes</title><style>.edge>path:hover{stroke-width:8}</style>
<path fill="none" stroke="black" d="M269.63,-425.37C289.57,-405.39 299.43,-404.92 326.63,-397.37 417.31,-372.2 667.41,-408.94 748.63,-361.37 761.6,-353.78 759.07,-345.75 767.63,-333.38"/>
<path fill="none" stroke="black" d="M767.63,-331.38C797.92,-287.57 798.87,-223.72 795.62,-183.39"/>
<polygon fill="#0909b8" stroke="black" points="799.1,-183.06 794.69,-173.42 792.13,-183.71 799.1,-183.06"/>
</g>
<!-- src_metadata_utilities_mu_logging&#45;&gt;src_metadata_utilities_load_json_metadata -->
<g id="edge56" class="edge">
<title>src_metadata_utilities_mu_logging&#45;&gt;src_metadata_utilities_load_json_metadata</title><style>.edge>path:hover{stroke-width:8}</style>
<path fill="none" stroke="black" d="M314.72,-682.46C296.9,-665.76 276.66,-641.97 269.63,-615.33"/>
<path fill="none" stroke="black" d="M269.63,-613.33C248.51,-533.42 219.14,-492.81 269.63,-427.37"/>
<path fill="none" stroke="black" d="M269.63,-425.37C312.74,-381.52 392.75,-245.38 442.63,-209.41 472.4,-187.93 510.2,-172.86 542.87,-162.76"/>
<polygon fill="#0909b8" stroke="black" points="544.25,-166 552.83,-159.78 542.24,-159.29 544.25,-166"/>
</g>
<!-- urllib3 -->
<g id="node27" class="node">
<title>urllib3</title><style>.edge>path:hover{stroke-width:8}</style>
<ellipse fill="#cc33cc" stroke="black" cx="1079.63" cy="-802.3" rx="27" ry="18"/>
<text text-anchor="middle" x="1079.63" y="-799.8" font-family="Helvetica,sans-Serif" font-size="10.00" fill="#ffffff">urllib3</text>
</g>
<!-- urllib3&#45;&gt;requests -->
<g id="edge57" class="edge">
<title>urllib3&#45;&gt;requests</title><style>.edge>path:hover{stroke-width:8}</style>
<path fill="none" stroke="black" d="M1062.4,-788.31C1042.05,-772.96 1007.94,-747.25 984.19,-729.34"/>
<polygon fill="#cc33cc" stroke="black" points="986.05,-726.36 975.95,-723.13 981.83,-731.95 986.05,-726.36"/>
</g>
<!-- urllib3&#45;&gt;src_edc_utilities_edc_custom_attributes -->
<g id="edge58" class="edge">
<title>urllib3&#45;&gt;src_edc_utilities_edc_custom_attributes</title><style>.edge>path:hover{stroke-width:8}</style>
<path fill="none" stroke="black" d="M1090.05,-785.37C1111.11,-753.2 1160.22,-678.22 1201.63,-615.33"/>
</g>
</g>
</svg>
