<?xml version="1.0" encoding="UTF-8" standalone="no"?>
<!DOCTYPE svg PUBLIC "-//W3C//DTD SVG 1.1//EN"
 "http://www.w3.org/Graphics/SVG/1.1/DTD/svg11.dtd">
<!-- Generated by graphviz version 2.44.0 (20200408.0750)
 -->
<!-- Title: G Pages: 1 -->
<svg width="772pt" height="881pt"
 viewBox="0.00 0.00 771.74 881.36" xmlns="http://www.w3.org/2000/svg" xmlns:xlink="http://www.w3.org/1999/xlink">
<g id="graph0" class="graph" transform="scale(1 1) rotate(0) translate(4 877.36)">
<title>G</title><style>.edge>path:hover{stroke-width:8}</style>
<polygon fill="white" stroke="transparent" points="-4,4 -4,-877.36 767.74,-877.36 767.74,4 -4,4"/>
<!-- edc_utilities -->
<g id="node1" class="node">
<title>edc_utilities</title><style>.edge>path:hover{stroke-width:8}</style>
<ellipse fill="#c24747" stroke="black" cx="168.82" cy="-178.07" rx="40.06" ry="18"/>
<text text-anchor="middle" x="168.82" y="-175.57" font-family="Helvetica,sans-Serif" font-size="10.00" fill="#ffffff">edc_utilities</text>
</g>
<!-- metadata_utilities_load_json_metadata -->
<g id="node9" class="node">
<title>metadata_utilities_load_json_metadata</title><style>.edge>path:hover{stroke-width:8}</style>
<ellipse fill="#347979" stroke="black" cx="323.82" cy="-21.21" rx="73.58" ry="21.43"/>
<text text-anchor="middle" x="323.82" y="-24.21" font-family="Helvetica,sans-Serif" font-size="10.00" fill="#ffffff">metadata_utilities.</text>
<text text-anchor="middle" x="323.82" y="-13.21" font-family="Helvetica,sans-Serif" font-size="10.00" fill="#ffffff">load_json_metadata</text>
</g>
<!-- edc_utilities&#45;&gt;metadata_utilities_load_json_metadata -->
<g id="edge1" class="edge">
<title>edc_utilities&#45;&gt;metadata_utilities_load_json_metadata</title><style>.edge>path:hover{stroke-width:8}</style>
<path fill="none" stroke="black" d="M275.82,-98.64C280.47,-81.08 290.75,-63.75 300.61,-50.04"/>
<polygon fill="#c24747" stroke="black" points="303.44,-52.11 306.65,-42.01 297.84,-47.9 303.44,-52.11"/>
<path fill="none" stroke="black" d="M194.2,-163.91C224.23,-147.59 270.8,-119.62 275.82,-100.64"/>
</g>
<!-- edc_utilities_edc_lineage -->
<g id="node2" class="node">
<title>edc_utilities_edc_lineage</title><style>.edge>path:hover{stroke-width:8}</style>
<ellipse fill="#964040" stroke="black" cx="314.82" cy="-178.07" rx="50.41" ry="21.43"/>
<text text-anchor="middle" x="314.82" y="-181.07" font-family="Helvetica,sans-Serif" font-size="10.00" fill="#ffffff">edc_utilities.</text>
<text text-anchor="middle" x="314.82" y="-170.07" font-family="Helvetica,sans-Serif" font-size="10.00" fill="#ffffff">edc_lineage</text>
</g>
<!-- edc_utilities_edc_lineage&#45;&gt;metadata_utilities_load_json_metadata -->
<g id="edge2" class="edge">
<title>edc_utilities_edc_lineage&#45;&gt;metadata_utilities_load_json_metadata</title><style>.edge>path:hover{stroke-width:8}</style>
<path fill="none" stroke="black" d="M296.07,-158.2C283.54,-143.27 270.3,-121.52 275.82,-100.64"/>
</g>
<!-- jsonschema -->
<g id="node3" class="node">
<title>jsonschema</title><style>.edge>path:hover{stroke-width:8}</style>
<ellipse fill="#80cc33" stroke="black" cx="175.82" cy="-491.77" rx="40.74" ry="18"/>
<text text-anchor="middle" x="175.82" y="-489.27" font-family="Helvetica,sans-Serif" font-size="10.00" fill="#000000">jsonschema</text>
</g>
<!-- metadata_utilities_check_schema -->
<g id="node5" class="node">
<title>metadata_utilities_check_schema</title><style>.edge>path:hover{stroke-width:8}</style>
<ellipse fill="#35a1a1" stroke="black" cx="102.82" cy="-334.92" rx="67.76" ry="21.43"/>
<text text-anchor="middle" x="102.82" y="-337.92" font-family="Helvetica,sans-Serif" font-size="10.00" fill="#000000">metadata_utilities.</text>
<text text-anchor="middle" x="102.82" y="-326.92" font-family="Helvetica,sans-Serif" font-size="10.00" fill="#000000">check_schema</text>
</g>
<!-- jsonschema&#45;&gt;metadata_utilities_check_schema -->
<g id="edge3" class="edge">
<title>jsonschema&#45;&gt;metadata_utilities_check_schema</title><style>.edge>path:hover{stroke-width:8}</style>
<path fill="none" stroke="black" d="M171.95,-473.73C167.25,-456.65 157.78,-430.61 140.82,-414.35"/>
<path fill="none" stroke="black" d="M140.82,-412.35C127.58,-399.64 118.26,-381.33 112.16,-365.83"/>
<polygon fill="#80cc33" stroke="black" points="115.33,-364.31 108.61,-356.12 108.76,-366.72 115.33,-364.31"/>
</g>
<!-- metadata_utilities_validate_schema -->
<g id="node13" class="node">
<title>metadata_utilities_validate_schema</title><style>.edge>path:hover{stroke-width:8}</style>
<ellipse fill="#409696" stroke="black" cx="102.82" cy="-256.49" rx="67.76" ry="21.43"/>
<text text-anchor="middle" x="102.82" y="-259.49" font-family="Helvetica,sans-Serif" font-size="10.00" fill="#ffffff">metadata_utilities.</text>
<text text-anchor="middle" x="102.82" y="-248.49" font-family="Helvetica,sans-Serif" font-size="10.00" fill="#ffffff">validate_schema</text>
</g>
<!-- jsonschema&#45;&gt;metadata_utilities_validate_schema -->
<g id="edge4" class="edge">
<title>jsonschema&#45;&gt;metadata_utilities_validate_schema</title><style>.edge>path:hover{stroke-width:8}</style>
<path fill="none" stroke="black" d="M181.24,-473.75C190.7,-440.77 206.78,-366.75 179.82,-313.71 172.82,-299.92 160.67,-288.71 148.06,-280.03"/>
<polygon fill="#80cc33" stroke="black" points="149.63,-276.87 139.32,-274.42 145.85,-282.77 149.63,-276.87"/>
</g>
<!-- metadata_utilities -->
<g id="node4" class="node">
<title>metadata_utilities</title><style>.edge>path:hover{stroke-width:8}</style>
<ellipse fill="#10f9f9" stroke="black" cx="473.82" cy="-334.92" rx="54.99" ry="18"/>
<text text-anchor="middle" x="473.82" y="-332.42" font-family="Helvetica,sans-Serif" font-size="10.00" fill="#000000">metadata_utilities</text>
</g>
<!-- metadata_utilities&#45;&gt;edc_utilities_edc_lineage -->
<g id="edge5" class="edge">
<title>metadata_utilities&#45;&gt;edc_utilities_edc_lineage</title><style>.edge>path:hover{stroke-width:8}</style>
<path fill="none" stroke="black" d="M507.72,-320.76C535.4,-307.71 568.24,-285.63 556.82,-257.49"/>
<path fill="none" stroke="black" d="M556.82,-255.49C556.82,-255.49 434.27,-216.79 363.59,-194.47"/>
<polygon fill="#10f9f9" stroke="black" points="364.56,-191.1 353.97,-191.43 362.46,-197.78 364.56,-191.1"/>
</g>
<!-- metadata_utilities_check_schema&#45;&gt;metadata_utilities_load_json_metadata -->
<g id="edge6" class="edge">
<title>metadata_utilities_check_schema&#45;&gt;metadata_utilities_load_json_metadata</title><style>.edge>path:hover{stroke-width:8}</style>
<path fill="none" stroke="black" d="M57.18,-319.14C27.65,-306.64 -3.52,-286.15 6.82,-257.49"/>
</g>
<!-- metadata_utilities_generic -->
<g id="node6" class="node">
<title>metadata_utilities_generic</title><style>.edge>path:hover{stroke-width:8}</style>
<ellipse fill="#21bfbf" stroke="black" cx="332.82" cy="-334.92" rx="67.76" ry="21.43"/>
<text text-anchor="middle" x="332.82" y="-337.92" font-family="Helvetica,sans-Serif" font-size="10.00" fill="#000000">metadata_utilities.</text>
<text text-anchor="middle" x="332.82" y="-326.92" font-family="Helvetica,sans-Serif" font-size="10.00" fill="#000000">generic</text>
</g>
<!-- metadata_utilities_generic&#45;&gt;edc_utilities_edc_lineage -->
<g id="edge7" class="edge">
<title>metadata_utilities_generic&#45;&gt;edc_utilities_edc_lineage</title><style>.edge>path:hover{stroke-width:8}</style>
<path fill="none" stroke="black" d="M274.82,-255.49C269.21,-238.1 278.04,-219.92 288.82,-205.66"/>
<polygon fill="#21bfbf" stroke="black" points="291.67,-207.7 295.3,-197.75 286.25,-203.27 291.67,-207.7"/>
</g>
<!-- metadata_utilities_generic&#45;&gt;metadata_utilities_load_json_metadata -->
<g id="edge8" class="edge">
<title>metadata_utilities_generic&#45;&gt;metadata_utilities_load_json_metadata</title><style>.edge>path:hover{stroke-width:8}</style>
<path fill="none" stroke="black" d="M274.82,-255.49C263.18,-219.39 216.26,-210.94 236.82,-179.07"/>
<path fill="none" stroke="black" d="M312.01,-314.43C298.42,-300.17 281.93,-279.53 274.82,-257.49"/>
</g>
<!-- metadata_utilities_generic&#45;&gt;metadata_utilities_validate_schema -->
<g id="edge9" class="edge">
<title>metadata_utilities_generic&#45;&gt;metadata_utilities_validate_schema</title><style>.edge>path:hover{stroke-width:8}</style>
<path fill="none" stroke="black" d="M287.93,-319C250.61,-306.6 197.37,-288.91 157.55,-275.68"/>
<polygon fill="#21bfbf" stroke="black" points="158.59,-272.33 148,-272.5 156.38,-278.98 158.59,-272.33"/>
</g>
<!-- metadata_utilities_generic_settings -->
<g id="node7" class="node">
<title>metadata_utilities_generic_settings</title><style>.edge>path:hover{stroke-width:8}</style>
<ellipse fill="#17d3d3" stroke="black" cx="274.82" cy="-413.35" rx="67.76" ry="21.43"/>
<text text-anchor="middle" x="274.82" y="-416.35" font-family="Helvetica,sans-Serif" font-size="10.00" fill="#000000">metadata_utilities.</text>
<text text-anchor="middle" x="274.82" y="-405.35" font-family="Helvetica,sans-Serif" font-size="10.00" fill="#000000">generic_settings</text>
</g>
<!-- metadata_utilities_generic_settings&#45;&gt;metadata_utilities_check_schema -->
<g id="edge10" class="edge">
<title>metadata_utilities_generic_settings&#45;&gt;metadata_utilities_check_schema</title><style>.edge>path:hover{stroke-width:8}</style>
<path fill="none" stroke="black" d="M237.08,-395.57C211.43,-384.17 177.3,-369.01 149.88,-356.83"/>
<polygon fill="#17d3d3" stroke="black" points="151.04,-353.51 140.48,-352.65 148.2,-359.91 151.04,-353.51"/>
</g>
<!-- metadata_utilities_generic_settings&#45;&gt;metadata_utilities_generic -->
<g id="edge11" class="edge">
<title>metadata_utilities_generic_settings&#45;&gt;metadata_utilities_generic</title><style>.edge>path:hover{stroke-width:8}</style>
<path fill="none" stroke="black" d="M290.06,-392.27C296.66,-383.58 304.49,-373.26 311.63,-363.84"/>
<polygon fill="#17d3d3" stroke="black" points="314.43,-365.95 317.69,-355.86 308.85,-361.71 314.43,-365.95"/>
</g>
<!-- metadata_utilities_generic_settings&#45;&gt;metadata_utilities_load_json_metadata -->
<g id="edge12" class="edge">
<title>metadata_utilities_generic_settings&#45;&gt;metadata_utilities_load_json_metadata</title><style>.edge>path:hover{stroke-width:8}</style>
<path fill="none" stroke="black" d="M236.82,-333.92C199.16,-276.32 199.51,-236.9 236.82,-179.07"/>
</g>
<!-- metadata_utilities_generic_settings&#45;&gt;metadata_utilities_validate_schema -->
<g id="edge13" class="edge">
<title>metadata_utilities_generic_settings&#45;&gt;metadata_utilities_validate_schema</title><style>.edge>path:hover{stroke-width:8}</style>
<path fill="none" stroke="black" d="M236.82,-333.92C218.85,-306.43 187.35,-287.74 159.4,-275.73"/>
<polygon fill="#17d3d3" stroke="black" points="160.66,-272.46 150.08,-271.9 158.01,-278.94 160.66,-272.46"/>
<path fill="none" stroke="black" d="M266.36,-392.17C259.36,-376.34 248.66,-354.03 236.82,-335.92"/>
</g>
<!-- metadata_utilities_json_file_utilities -->
<g id="node8" class="node">
<title>metadata_utilities_json_file_utilities</title><style>.edge>path:hover{stroke-width:8}</style>
<ellipse fill="#47c2c2" stroke="black" cx="371.82" cy="-99.64" rx="67.76" ry="21.43"/>
<text text-anchor="middle" x="371.82" y="-102.64" font-family="Helvetica,sans-Serif" font-size="10.00" fill="#000000">metadata_utilities.</text>
<text text-anchor="middle" x="371.82" y="-91.64" font-family="Helvetica,sans-Serif" font-size="10.00" fill="#000000">json_file_utilities</text>
</g>
<!-- metadata_utilities_json_file_utilities&#45;&gt;metadata_utilities_load_json_metadata -->
<g id="edge14" class="edge">
<title>metadata_utilities_json_file_utilities&#45;&gt;metadata_utilities_load_json_metadata</title><style>.edge>path:hover{stroke-width:8}</style>
<path fill="none" stroke="black" d="M359.21,-78.56C353.87,-70.05 347.54,-59.97 341.72,-50.71"/>
<polygon fill="#47c2c2" stroke="black" points="344.63,-48.77 336.35,-42.16 338.71,-52.49 344.63,-48.77"/>
</g>
<!-- metadata_utilities_log_settings -->
<g id="node10" class="node">
<title>metadata_utilities_log_settings</title><style>.edge>path:hover{stroke-width:8}</style>
<ellipse fill="#3db8b8" stroke="black" cx="428.82" cy="-570.2" rx="67.76" ry="21.43"/>
<text text-anchor="middle" x="428.82" y="-573.2" font-family="Helvetica,sans-Serif" font-size="10.00" fill="#000000">metadata_utilities.</text>
<text text-anchor="middle" x="428.82" y="-562.2" font-family="Helvetica,sans-Serif" font-size="10.00" fill="#000000">log_settings</text>
</g>
<!-- metadata_utilities_mu_logging -->
<g id="node12" class="node">
<title>metadata_utilities_mu_logging</title><style>.edge>path:hover{stroke-width:8}</style>
<ellipse fill="#0ac2c2" stroke="black" cx="466.82" cy="-491.77" rx="67.76" ry="21.43"/>
<text text-anchor="middle" x="466.82" y="-494.77" font-family="Helvetica,sans-Serif" font-size="10.00" fill="#000000">metadata_utilities.</text>
<text text-anchor="middle" x="466.82" y="-483.77" font-family="Helvetica,sans-Serif" font-size="10.00" fill="#000000">mu_logging</text>
</g>
<!-- metadata_utilities_log_settings&#45;&gt;metadata_utilities_mu_logging -->
<g id="edge15" class="edge">
<title>metadata_utilities_log_settings&#45;&gt;metadata_utilities_mu_logging</title><style>.edge>path:hover{stroke-width:8}</style>
<path fill="none" stroke="black" d="M438.81,-549.12C442.92,-540.85 447.77,-531.1 452.26,-522.06"/>
<polygon fill="#3db8b8" stroke="black" points="455.46,-523.5 456.78,-512.98 449.19,-520.38 455.46,-523.5"/>
</g>
<!-- metadata_utilities_messages -->
<g id="node11" class="node">
<title>metadata_utilities_messages</title><style>.edge>path:hover{stroke-width:8}</style>
<ellipse fill="#10f9f9" stroke="black" cx="398.82" cy="-648.62" rx="67.76" ry="21.43"/>
<text text-anchor="middle" x="398.82" y="-651.62" font-family="Helvetica,sans-Serif" font-size="10.00" fill="#000000">metadata_utilities.</text>
<text text-anchor="middle" x="398.82" y="-640.62" font-family="Helvetica,sans-Serif" font-size="10.00" fill="#000000">messages</text>
</g>
<!-- metadata_utilities_messages&#45;&gt;edc_utilities_edc_lineage -->
<g id="edge16" class="edge">
<title>metadata_utilities_messages&#45;&gt;edc_utilities_edc_lineage</title><style>.edge>path:hover{stroke-width:8}</style>
<path fill="none" stroke="black" d="M442.51,-632.21C463.71,-622.99 488.31,-609.5 505.82,-591.41 586.36,-508.21 547.32,-451.32 556.82,-335.92"/>
</g>
<!-- metadata_utilities_messages&#45;&gt;metadata_utilities_check_schema -->
<g id="edge17" class="edge">
<title>metadata_utilities_messages&#45;&gt;metadata_utilities_check_schema</title><style>.edge>path:hover{stroke-width:8}</style>
<path fill="none" stroke="black" d="M102.82,-412.35C98.48,-397.64 98.06,-380.64 98.9,-366.41"/>
<polygon fill="#10f9f9" stroke="black" points="102.41,-366.41 99.75,-356.16 95.44,-365.84 102.41,-366.41"/>
</g>
<!-- metadata_utilities_messages&#45;&gt;metadata_utilities_generic -->
<g id="edge18" class="edge">
<title>metadata_utilities_messages&#45;&gt;metadata_utilities_generic</title><style>.edge>path:hover{stroke-width:8}</style>
<path fill="none" stroke="black" d="M370.82,-490.77C368.64,-446.31 354.21,-396.6 343.77,-365.78"/>
<polygon fill="#10f9f9" stroke="black" points="346.99,-364.39 340.41,-356.09 340.38,-366.68 346.99,-364.39"/>
</g>
<!-- metadata_utilities_messages&#45;&gt;metadata_utilities_generic_settings -->
<g id="edge19" class="edge">
<title>metadata_utilities_messages&#45;&gt;metadata_utilities_generic_settings</title><style>.edge>path:hover{stroke-width:8}</style>
<path fill="none" stroke="black" d="M370.82,-490.77C369.58,-465.34 348.57,-446.99 326.52,-434.66"/>
<polygon fill="#10f9f9" stroke="black" points="327.88,-431.43 317.39,-429.91 324.64,-437.63 327.88,-431.43"/>
<path fill="none" stroke="black" d="M332.82,-569.2C305.87,-542.5 372.68,-530.66 370.82,-492.77"/>
</g>
<!-- metadata_utilities_messages&#45;&gt;metadata_utilities_load_json_metadata -->
<g id="edge20" class="edge">
<title>metadata_utilities_messages&#45;&gt;metadata_utilities_load_json_metadata</title><style>.edge>path:hover{stroke-width:8}</style>
<path fill="none" stroke="black" d="M6.82,-255.49C11.01,-243.9 15.01,-241.2 25.82,-235.28 110.95,-188.68 181.68,-258.92 236.82,-179.07"/>
<path fill="none" stroke="black" d="M236.82,-177.07C258.49,-145.69 268.59,-138.08 275.82,-100.64"/>
<path fill="none" stroke="black" d="M332.82,-569.2C265.1,-502.11 192.01,-581.6 125.82,-512.98 94.57,-480.58 115.58,-457.52 102.82,-414.35"/>
<path fill="none" stroke="black" d="M102.82,-412.35C83.46,-361.36 15.96,-389.68 6.82,-335.92"/>
<path fill="none" stroke="black" d="M6.82,-333.92C1.13,-300.43 -4.71,-289.44 6.82,-257.49"/>
<path fill="none" stroke="black" d="M382.92,-627.88C369.93,-612.09 350.84,-589.63 332.82,-571.2"/>
</g>
<!-- metadata_utilities_messages&#45;&gt;metadata_utilities_log_settings -->
<g id="edge21" class="edge">
<title>metadata_utilities_messages&#45;&gt;metadata_utilities_log_settings</title><style>.edge>path:hover{stroke-width:8}</style>
<path fill="none" stroke="black" d="M406.71,-627.54C409.92,-619.36 413.7,-609.73 417.22,-600.77"/>
<polygon fill="#10f9f9" stroke="black" points="420.49,-602 420.89,-591.41 413.98,-599.44 420.49,-602"/>
</g>
<!-- metadata_utilities_messages&#45;&gt;metadata_utilities_validate_schema -->
<g id="edge22" class="edge">
<title>metadata_utilities_messages&#45;&gt;metadata_utilities_validate_schema</title><style>.edge>path:hover{stroke-width:8}</style>
<path fill="none" stroke="black" d="M6.82,-333.92C2.43,-308.03 24.52,-289.36 48.61,-276.95"/>
<polygon fill="#10f9f9" stroke="black" points="50.39,-279.98 57.89,-272.5 47.36,-273.67 50.39,-279.98"/>
</g>
<!-- metadata_utilities_mu_logging&#45;&gt;edc_utilities_edc_lineage -->
<g id="edge23" class="edge">
<title>metadata_utilities_mu_logging&#45;&gt;edc_utilities_edc_lineage</title><style>.edge>path:hover{stroke-width:8}</style>
<path fill="none" stroke="black" d="M556.82,-333.92C559.61,-300.07 569.59,-288.97 556.82,-257.49"/>
<path fill="none" stroke="black" d="M524.82,-412.35C529.81,-375.86 553.8,-372.62 556.82,-335.92"/>
</g>
<!-- metadata_utilities_mu_logging&#45;&gt;metadata_utilities_check_schema -->
<g id="edge24" class="edge">
<title>metadata_utilities_mu_logging&#45;&gt;metadata_utilities_check_schema</title><style>.edge>path:hover{stroke-width:8}</style>
<path fill="none" stroke="black" d="M415.74,-477.75C405.52,-475.27 394.85,-472.76 384.82,-470.56 276.12,-446.71 221.12,-491.39 140.82,-414.35"/>
</g>
<!-- metadata_utilities_mu_logging&#45;&gt;metadata_utilities_generic -->
<g id="edge25" class="edge">
<title>metadata_utilities_mu_logging&#45;&gt;metadata_utilities_generic</title><style>.edge>path:hover{stroke-width:8}</style>
<path fill="none" stroke="black" d="M490.13,-471.85C504.86,-457.85 521.69,-437.29 524.82,-414.35"/>
<path fill="none" stroke="black" d="M524.82,-412.35C526.81,-397.81 447.9,-370.66 390.65,-352.94"/>
<polygon fill="#0ac2c2" stroke="black" points="391.53,-349.55 380.95,-349.96 389.48,-356.24 391.53,-349.55"/>
</g>
<!-- metadata_utilities_mu_logging&#45;&gt;metadata_utilities_generic_settings -->
<g id="edge26" class="edge">
<title>metadata_utilities_mu_logging&#45;&gt;metadata_utilities_generic_settings</title><style>.edge>path:hover{stroke-width:8}</style>
<path fill="none" stroke="black" d="M426.11,-474.56C396.58,-462.81 356.46,-446.84 324.96,-434.3"/>
<polygon fill="#0ac2c2" stroke="black" points="326.07,-430.98 315.48,-430.53 323.48,-437.48 326.07,-430.98"/>
</g>
<!-- metadata_utilities_mu_logging&#45;&gt;metadata_utilities_load_json_metadata -->
<g id="edge27" class="edge">
<title>metadata_utilities_mu_logging&#45;&gt;metadata_utilities_load_json_metadata</title><style>.edge>path:hover{stroke-width:8}</style>
<path fill="none" stroke="black" d="M524.82,-412.35C529.19,-380.36 559.97,-386.54 570.82,-356.13 588.88,-305.55 600.66,-279.94 570.82,-235.28 550.81,-205.32 266.61,-135.47 275.82,-100.64"/>
</g>
<!-- opencensus -->
<g id="node14" class="node">
<title>opencensus</title><style>.edge>path:hover{stroke-width:8}</style>
<ellipse fill="#8547c2" stroke="black" cx="524.82" cy="-648.62" rx="40.74" ry="18"/>
<text text-anchor="middle" x="524.82" y="-646.12" font-family="Helvetica,sans-Serif" font-size="10.00" fill="#ffffff">opencensus</text>
</g>
<!-- opencensus&#45;&gt;metadata_utilities_mu_logging -->
<g id="edge28" class="edge">
<title>opencensus&#45;&gt;metadata_utilities_mu_logging</title><style>.edge>path:hover{stroke-width:8}</style>
<path fill="none" stroke="black" d="M523.69,-630.6C521.88,-610.44 517.26,-576.15 505.82,-548.98 501.68,-539.13 495.63,-529.26 489.52,-520.6"/>
<polygon fill="#8547c2" stroke="black" points="492.22,-518.36 483.47,-512.39 486.58,-522.51 492.22,-518.36"/>
</g>
<!-- opencensus_ext -->
<g id="node15" class="node">
<title>opencensus_ext</title><style>.edge>path:hover{stroke-width:8}</style>
<ellipse fill="#8547c2" stroke="black" cx="633.82" cy="-648.62" rx="50.75" ry="18"/>
<text text-anchor="middle" x="633.82" y="-646.12" font-family="Helvetica,sans-Serif" font-size="10.00" fill="#ffffff">opencensus.ext</text>
</g>
<!-- opencensus_ext&#45;&gt;metadata_utilities_mu_logging -->
<g id="edge29" class="edge">
<title>opencensus_ext&#45;&gt;metadata_utilities_mu_logging</title><style>.edge>path:hover{stroke-width:8}</style>
<path fill="none" stroke="black" d="M665.59,-634.44C692.29,-621.16 724.39,-598.73 712.82,-571.2"/>
<path fill="none" stroke="black" d="M712.82,-569.2C698.9,-536.06 605.47,-514.4 537.87,-502.88"/>
<polygon fill="#8547c2" stroke="black" points="538.11,-499.37 527.68,-501.18 536.97,-506.27 538.11,-499.37"/>
</g>
<!-- opencensus_ext_azure -->
<g id="node16" class="node">
<title>opencensus_ext_azure</title><style>.edge>path:hover{stroke-width:8}</style>
<ellipse fill="#8547c2" stroke="black" cx="633.82" cy="-734.83" rx="50.82" ry="28.98"/>
<text text-anchor="middle" x="633.82" y="-743.33" font-family="Helvetica,sans-Serif" font-size="10.00" fill="#ffffff">opencensus.</text>
<text text-anchor="middle" x="633.82" y="-732.33" font-family="Helvetica,sans-Serif" font-size="10.00" fill="#ffffff">ext.</text>
<text text-anchor="middle" x="633.82" y="-721.33" font-family="Helvetica,sans-Serif" font-size="10.00" fill="#ffffff">azure</text>
</g>
<!-- opencensus_ext_azure&#45;&gt;metadata_utilities_mu_logging -->
<g id="edge30" class="edge">
<title>opencensus_ext_azure&#45;&gt;metadata_utilities_mu_logging</title><style>.edge>path:hover{stroke-width:8}</style>
<path fill="none" stroke="black" d="M666.65,-712.57C685.72,-697.71 707.1,-675.87 712.82,-649.62"/>
<path fill="none" stroke="black" d="M712.82,-647.62C720.07,-614.44 725.98,-602.51 712.82,-571.2"/>
</g>
<!-- opencensus_ext_azure_log_exporter -->
<g id="node17" class="node">
<title>opencensus_ext_azure_log_exporter</title><style>.edge>path:hover{stroke-width:8}</style>
<ellipse fill="#7546a4" stroke="black" cx="712.82" cy="-836.59" rx="50.82" ry="36.54"/>
<text text-anchor="middle" x="712.82" y="-850.59" font-family="Helvetica,sans-Serif" font-size="10.00" fill="#ffffff">opencensus.</text>
<text text-anchor="middle" x="712.82" y="-839.59" font-family="Helvetica,sans-Serif" font-size="10.00" fill="#ffffff">ext.</text>
<text text-anchor="middle" x="712.82" y="-828.59" font-family="Helvetica,sans-Serif" font-size="10.00" fill="#ffffff">azure.</text>
<text text-anchor="middle" x="712.82" y="-817.59" font-family="Helvetica,sans-Serif" font-size="10.00" fill="#ffffff">log_exporter</text>
</g>
<!-- opencensus_ext_azure_log_exporter&#45;&gt;metadata_utilities_mu_logging -->
<g id="edge31" class="edge">
<title>opencensus_ext_azure_log_exporter&#45;&gt;metadata_utilities_mu_logging</title><style>.edge>path:hover{stroke-width:8}</style>
<path fill="none" stroke="black" d="M708.35,-799.8C704.65,-762 701.64,-700.88 712.82,-649.62"/>
</g>
</g>
</svg>
