<?xml version="1.0" encoding="UTF-8" standalone="no"?>
<!DOCTYPE svg PUBLIC "-//W3C//DTD SVG 1.1//EN"
 "http://www.w3.org/Graphics/SVG/1.1/DTD/svg11.dtd">
<!-- Generated by graphviz version 2.44.1 (20200629.0846)
 -->
<!-- Title: G Pages: 1 -->
<svg width="772pt" height="797pt"
 viewBox="0.00 0.00 771.91 796.51" xmlns="http://www.w3.org/2000/svg" xmlns:xlink="http://www.w3.org/1999/xlink">
<g id="graph0" class="graph" transform="scale(1 1) rotate(0) translate(4 792.51)">
<title>G</title><style>.edge>path:hover{stroke-width:8}</style>
<polygon fill="white" stroke="transparent" points="-4,4 -4,-792.51 767.91,-792.51 767.91,4 -4,4"/>
<!-- edc_utilities -->
<g id="node1" class="node">
<title>edc_utilities</title><style>.edge>path:hover{stroke-width:8}</style>
<ellipse fill="#c24747" stroke="black" cx="202.62" cy="-178.07" rx="40.06" ry="18"/>
<text text-anchor="middle" x="202.62" y="-175.57" font-family="Helvetica,sans-Serif" font-size="10.00" fill="#ffffff">edc_utilities</text>
</g>
<!-- metadata_utilities_load_json_metadata -->
<g id="node9" class="node">
<title>metadata_utilities_load_json_metadata</title><style>.edge>path:hover{stroke-width:8}</style>
<ellipse fill="#347979" stroke="black" cx="357.62" cy="-21.21" rx="73.58" ry="21.43"/>
<text text-anchor="middle" x="357.62" y="-24.21" font-family="Helvetica,sans-Serif" font-size="10.00" fill="#ffffff">metadata_utilities.</text>
<text text-anchor="middle" x="357.62" y="-13.21" font-family="Helvetica,sans-Serif" font-size="10.00" fill="#ffffff">load_json_metadata</text>
</g>
<!-- edc_utilities&#45;&gt;metadata_utilities_load_json_metadata -->
<g id="edge1" class="edge">
<title>edc_utilities&#45;&gt;metadata_utilities_load_json_metadata</title><style>.edge>path:hover{stroke-width:8}</style>
<path fill="none" stroke="black" d="M309.62,-98.64C309.29,-80.48 319.1,-63.09 329.94,-49.5"/>
<polygon fill="#c24747" stroke="black" points="332.89,-51.43 336.74,-41.56 327.58,-46.88 332.89,-51.43"/>
<path fill="none" stroke="black" d="M229.18,-164.4C260.99,-148.34 309.98,-120.38 309.62,-100.64"/>
</g>
<!-- edc_utilities_edc_lineage -->
<g id="node2" class="node">
<title>edc_utilities_edc_lineage</title><style>.edge>path:hover{stroke-width:8}</style>
<ellipse fill="#8f3d3d" stroke="black" cx="348.62" cy="-178.07" rx="50.41" ry="21.43"/>
<text text-anchor="middle" x="348.62" y="-181.07" font-family="Helvetica,sans-Serif" font-size="10.00" fill="#ffffff">edc_utilities.</text>
<text text-anchor="middle" x="348.62" y="-170.07" font-family="Helvetica,sans-Serif" font-size="10.00" fill="#ffffff">edc_lineage</text>
</g>
<!-- edc_utilities_edc_lineage&#45;&gt;metadata_utilities_load_json_metadata -->
<g id="edge2" class="edge">
<title>edc_utilities_edc_lineage&#45;&gt;metadata_utilities_load_json_metadata</title><style>.edge>path:hover{stroke-width:8}</style>
<path fill="none" stroke="black" d="M332.53,-157.68C321.96,-142.99 310,-121.79 309.62,-100.64"/>
</g>
<!-- jsonschema -->
<g id="node3" class="node">
<title>jsonschema</title><style>.edge>path:hover{stroke-width:8}</style>
<ellipse fill="#80cc33" stroke="black" cx="40.62" cy="-491.77" rx="40.74" ry="18"/>
<text text-anchor="middle" x="40.62" y="-489.27" font-family="Helvetica,sans-Serif" font-size="10.00" fill="#000000">jsonschema</text>
</g>
<!-- metadata_utilities_check_schema -->
<g id="node5" class="node">
<title>metadata_utilities_check_schema</title><style>.edge>path:hover{stroke-width:8}</style>
<ellipse fill="#35a1a1" stroke="black" cx="174.62" cy="-334.92" rx="67.76" ry="21.43"/>
<text text-anchor="middle" x="174.62" y="-337.92" font-family="Helvetica,sans-Serif" font-size="10.00" fill="#000000">metadata_utilities.</text>
<text text-anchor="middle" x="174.62" y="-326.92" font-family="Helvetica,sans-Serif" font-size="10.00" fill="#000000">check_schema</text>
</g>
<!-- jsonschema&#45;&gt;metadata_utilities_check_schema -->
<g id="edge3" class="edge">
<title>jsonschema&#45;&gt;metadata_utilities_check_schema</title><style>.edge>path:hover{stroke-width:8}</style>
<path fill="none" stroke="black" d="M40.62,-412.35C51.91,-381.74 82.8,-362.95 112.08,-351.67"/>
<polygon fill="#80cc33" stroke="black" points="113.28,-354.96 121.5,-348.27 110.9,-348.37 113.28,-354.96"/>
</g>
<!-- metadata_utilities_validate_schema -->
<g id="node13" class="node">
<title>metadata_utilities_validate_schema</title><style>.edge>path:hover{stroke-width:8}</style>
<ellipse fill="#409696" stroke="black" cx="366.62" cy="-256.49" rx="67.76" ry="21.43"/>
<text text-anchor="middle" x="366.62" y="-259.49" font-family="Helvetica,sans-Serif" font-size="10.00" fill="#ffffff">metadata_utilities.</text>
<text text-anchor="middle" x="366.62" y="-248.49" font-family="Helvetica,sans-Serif" font-size="10.00" fill="#ffffff">validate_schema</text>
</g>
<!-- jsonschema&#45;&gt;metadata_utilities_validate_schema -->
<g id="edge4" class="edge">
<title>jsonschema&#45;&gt;metadata_utilities_validate_schema</title><style>.edge>path:hover{stroke-width:8}</style>
<path fill="none" stroke="black" d="M37.34,-473.79C35.02,-457.9 33.45,-433.76 40.62,-414.35"/>
<path fill="none" stroke="black" d="M40.62,-412.35C58.15,-364.84 56.36,-343.06 97.62,-313.71 166.58,-264.63 201.95,-295.84 284.62,-277.71 291.35,-276.23 298.38,-274.61 305.37,-272.96"/>
<polygon fill="#80cc33" stroke="black" points="306.63,-276.25 315.53,-270.52 304.99,-269.45 306.63,-276.25"/>
</g>
<!-- metadata_utilities -->
<g id="node4" class="node">
<title>metadata_utilities</title><style>.edge>path:hover{stroke-width:8}</style>
<ellipse fill="#10f9f9" stroke="black" cx="545.62" cy="-334.92" rx="54.99" ry="18"/>
<text text-anchor="middle" x="545.62" y="-332.42" font-family="Helvetica,sans-Serif" font-size="10.00" fill="#000000">metadata_utilities</text>
</g>
<!-- metadata_utilities&#45;&gt;edc_utilities_edc_lineage -->
<g id="edge5" class="edge">
<title>metadata_utilities&#45;&gt;edc_utilities_edc_lineage</title><style>.edge>path:hover{stroke-width:8}</style>
<path fill="none" stroke="black" d="M586.62,-255.49C546.33,-200.17 465.38,-184.01 409.14,-179.75"/>
<polygon fill="#10f9f9" stroke="black" points="409.15,-176.24 398.94,-179.08 408.69,-183.23 409.15,-176.24"/>
<path fill="none" stroke="black" d="M564.57,-317.95C581.24,-301.95 600.8,-276.97 586.62,-257.49"/>
</g>
<!-- metadata_utilities_check_schema&#45;&gt;metadata_utilities_load_json_metadata -->
<g id="edge6" class="edge">
<title>metadata_utilities_check_schema&#45;&gt;metadata_utilities_load_json_metadata</title><style>.edge>path:hover{stroke-width:8}</style>
<path fill="none" stroke="black" d="M167.97,-313.51C163.81,-296.47 161.44,-272.59 174.62,-257.49"/>
</g>
<!-- metadata_utilities_generic -->
<g id="node6" class="node">
<title>metadata_utilities_generic</title><style>.edge>path:hover{stroke-width:8}</style>
<ellipse fill="#21bfbf" stroke="black" cx="404.62" cy="-334.92" rx="67.76" ry="21.43"/>
<text text-anchor="middle" x="404.62" y="-337.92" font-family="Helvetica,sans-Serif" font-size="10.00" fill="#000000">metadata_utilities.</text>
<text text-anchor="middle" x="404.62" y="-326.92" font-family="Helvetica,sans-Serif" font-size="10.00" fill="#000000">generic</text>
</g>
<!-- metadata_utilities_generic&#45;&gt;edc_utilities_edc_lineage -->
<g id="edge7" class="edge">
<title>metadata_utilities_generic&#45;&gt;edc_utilities_edc_lineage</title><style>.edge>path:hover{stroke-width:8}</style>
<path fill="none" stroke="black" d="M462.62,-255.49C455.52,-225.19 425.99,-205.92 398.77,-194.3"/>
<polygon fill="#21bfbf" stroke="black" points="399.86,-190.97 389.28,-190.51 397.26,-197.47 399.86,-190.97"/>
</g>
<!-- metadata_utilities_generic&#45;&gt;metadata_utilities_load_json_metadata -->
<g id="edge8" class="edge">
<title>metadata_utilities_generic&#45;&gt;metadata_utilities_load_json_metadata</title><style>.edge>path:hover{stroke-width:8}</style>
<path fill="none" stroke="black" d="M432.46,-315.35C449.84,-301.22 467.98,-280.36 462.62,-257.49"/>
<path fill="none" stroke="black" d="M462.62,-255.49C441.66,-166.07 267.22,-270.85 270.62,-179.07"/>
</g>
<!-- metadata_utilities_generic&#45;&gt;metadata_utilities_validate_schema -->
<g id="edge9" class="edge">
<title>metadata_utilities_generic&#45;&gt;metadata_utilities_validate_schema</title><style>.edge>path:hover{stroke-width:8}</style>
<path fill="none" stroke="black" d="M394.63,-313.84C390.52,-305.57 385.67,-295.82 381.18,-286.78"/>
<polygon fill="#21bfbf" stroke="black" points="384.25,-285.1 376.67,-277.7 377.99,-288.22 384.25,-285.1"/>
</g>
<!-- metadata_utilities_generic_settings -->
<g id="node7" class="node">
<title>metadata_utilities_generic_settings</title><style>.edge>path:hover{stroke-width:8}</style>
<ellipse fill="#10f9f9" stroke="black" cx="404.62" cy="-491.77" rx="67.76" ry="21.43"/>
<text text-anchor="middle" x="404.62" y="-494.77" font-family="Helvetica,sans-Serif" font-size="10.00" fill="#000000">metadata_utilities.</text>
<text text-anchor="middle" x="404.62" y="-483.77" font-family="Helvetica,sans-Serif" font-size="10.00" fill="#000000">generic_settings</text>
</g>
<!-- metadata_utilities_generic_settings&#45;&gt;edc_utilities_edc_lineage -->
<g id="edge10" class="edge">
<title>metadata_utilities_generic_settings&#45;&gt;edc_utilities_edc_lineage</title><style>.edge>path:hover{stroke-width:8}</style>
<path fill="none" stroke="black" d="M404.62,-412.35C407.98,-400.48 412.82,-398.08 423.62,-392.13 497.36,-351.49 556.03,-421.08 609.62,-356.13 638.27,-321.41 613.12,-293.88 586.62,-257.49"/>
</g>
<!-- metadata_utilities_generic_settings&#45;&gt;metadata_utilities_check_schema -->
<g id="edge11" class="edge">
<title>metadata_utilities_generic_settings&#45;&gt;metadata_utilities_check_schema</title><style>.edge>path:hover{stroke-width:8}</style>
<path fill="none" stroke="black" d="M78.62,-412.35C68.07,-386.88 92.7,-367.64 119.65,-354.83"/>
<polygon fill="#10f9f9" stroke="black" points="121.12,-358 128.83,-350.73 118.27,-351.61 121.12,-358"/>
</g>
<!-- metadata_utilities_generic_settings&#45;&gt;metadata_utilities_generic -->
<g id="edge12" class="edge">
<title>metadata_utilities_generic_settings&#45;&gt;metadata_utilities_generic</title><style>.edge>path:hover{stroke-width:8}</style>
<path fill="none" stroke="black" d="M404.62,-412.35C408.37,-397.59 408.76,-380.71 408.05,-366.57"/>
<polygon fill="#10f9f9" stroke="black" points="411.52,-366.1 407.32,-356.37 404.54,-366.59 411.52,-366.1"/>
</g>
<!-- metadata_utilities_generic_settings&#45;&gt;metadata_utilities_load_json_metadata -->
<g id="edge13" class="edge">
<title>metadata_utilities_generic_settings&#45;&gt;metadata_utilities_load_json_metadata</title><style>.edge>path:hover{stroke-width:8}</style>
<path fill="none" stroke="black" d="M338.16,-487.15C248.71,-480.47 98.45,-462.21 78.62,-414.35"/>
<path fill="none" stroke="black" d="M270.62,-177.07C272.03,-138.96 302.03,-138.01 309.62,-100.64"/>
<path fill="none" stroke="black" d="M78.62,-412.35C61.53,-371.1 73.7,-351.41 97.62,-313.71 120.31,-277.92 146.76,-289.42 174.62,-257.49"/>
<path fill="none" stroke="black" d="M174.62,-255.49C209.69,-213.73 268.6,-233.57 270.62,-179.07"/>
</g>
<!-- metadata_utilities_mu_logging -->
<g id="node11" class="node">
<title>metadata_utilities_mu_logging</title><style>.edge>path:hover{stroke-width:8}</style>
<ellipse fill="#14b8b8" stroke="black" cx="500.62" cy="-413.35" rx="67.76" ry="21.43"/>
<text text-anchor="middle" x="500.62" y="-416.35" font-family="Helvetica,sans-Serif" font-size="10.00" fill="#000000">metadata_utilities.</text>
<text text-anchor="middle" x="500.62" y="-405.35" font-family="Helvetica,sans-Serif" font-size="10.00" fill="#000000">mu_logging</text>
</g>
<!-- metadata_utilities_generic_settings&#45;&gt;metadata_utilities_mu_logging -->
<g id="edge14" class="edge">
<title>metadata_utilities_generic_settings&#45;&gt;metadata_utilities_mu_logging</title><style>.edge>path:hover{stroke-width:8}</style>
<path fill="none" stroke="black" d="M428.35,-471.88C440.58,-462.14 455.66,-450.13 468.88,-439.61"/>
<polygon fill="#10f9f9" stroke="black" points="471.18,-442.25 476.83,-433.28 466.82,-436.77 471.18,-442.25"/>
</g>
<!-- metadata_utilities_generic_settings&#45;&gt;metadata_utilities_validate_schema -->
<g id="edge15" class="edge">
<title>metadata_utilities_generic_settings&#45;&gt;metadata_utilities_validate_schema</title><style>.edge>path:hover{stroke-width:8}</style>
<path fill="none" stroke="black" d="M404.62,-412.35C415.06,-371.28 346.81,-393.91 327.62,-356.13 315.87,-333 328.86,-305.46 342.92,-285.36"/>
<polygon fill="#10f9f9" stroke="black" points="345.8,-287.36 348.94,-277.24 340.18,-283.19 345.8,-287.36"/>
<path fill="none" stroke="black" d="M401.66,-470.57C400.07,-454.92 399.37,-432.86 404.62,-414.35"/>
</g>
<!-- metadata_utilities_json_file_utilities -->
<g id="node8" class="node">
<title>metadata_utilities_json_file_utilities</title><style>.edge>path:hover{stroke-width:8}</style>
<ellipse fill="#47c2c2" stroke="black" cx="405.62" cy="-99.64" rx="67.76" ry="21.43"/>
<text text-anchor="middle" x="405.62" y="-102.64" font-family="Helvetica,sans-Serif" font-size="10.00" fill="#000000">metadata_utilities.</text>
<text text-anchor="middle" x="405.62" y="-91.64" font-family="Helvetica,sans-Serif" font-size="10.00" fill="#000000">json_file_utilities</text>
</g>
<!-- metadata_utilities_json_file_utilities&#45;&gt;metadata_utilities_load_json_metadata -->
<g id="edge16" class="edge">
<title>metadata_utilities_json_file_utilities&#45;&gt;metadata_utilities_load_json_metadata</title><style>.edge>path:hover{stroke-width:8}</style>
<path fill="none" stroke="black" d="M393.01,-78.56C387.66,-70.05 381.33,-59.97 375.52,-50.71"/>
<polygon fill="#47c2c2" stroke="black" points="378.43,-48.77 370.14,-42.16 372.5,-52.49 378.43,-48.77"/>
</g>
<!-- metadata_utilities_messages -->
<g id="node10" class="node">
<title>metadata_utilities_messages</title><style>.edge>path:hover{stroke-width:8}</style>
<ellipse fill="#16f3f3" stroke="black" cx="270.62" cy="-413.35" rx="67.76" ry="21.43"/>
<text text-anchor="middle" x="270.62" y="-416.35" font-family="Helvetica,sans-Serif" font-size="10.00" fill="#000000">metadata_utilities.</text>
<text text-anchor="middle" x="270.62" y="-405.35" font-family="Helvetica,sans-Serif" font-size="10.00" fill="#000000">messages</text>
</g>
<!-- metadata_utilities_messages&#45;&gt;edc_utilities_edc_lineage -->
<g id="edge17" class="edge">
<title>metadata_utilities_messages&#45;&gt;edc_utilities_edc_lineage</title><style>.edge>path:hover{stroke-width:8}</style>
<path fill="none" stroke="black" d="M270.62,-255.49C275.91,-232.97 293.88,-214.55 311.24,-201.45"/>
<polygon fill="#16f3f3" stroke="black" points="313.55,-204.1 319.65,-195.44 309.48,-198.4 313.55,-204.1"/>
</g>
<!-- metadata_utilities_messages&#45;&gt;metadata_utilities_check_schema -->
<g id="edge18" class="edge">
<title>metadata_utilities_messages&#45;&gt;metadata_utilities_check_schema</title><style>.edge>path:hover{stroke-width:8}</style>
<path fill="none" stroke="black" d="M246.89,-393.45C234.66,-383.72 219.57,-371.71 206.35,-361.18"/>
<polygon fill="#16f3f3" stroke="black" points="208.41,-358.35 198.41,-354.86 204.05,-363.82 208.41,-358.35"/>
</g>
<!-- metadata_utilities_messages&#45;&gt;metadata_utilities_generic -->
<g id="edge19" class="edge">
<title>metadata_utilities_messages&#45;&gt;metadata_utilities_generic</title><style>.edge>path:hover{stroke-width:8}</style>
<path fill="none" stroke="black" d="M302.03,-394.43C320.55,-383.87 344.17,-370.39 364.08,-359.04"/>
<polygon fill="#16f3f3" stroke="black" points="365.98,-361.98 372.93,-353.99 362.51,-355.9 365.98,-361.98"/>
</g>
<!-- metadata_utilities_messages&#45;&gt;metadata_utilities_load_json_metadata -->
<g id="edge20" class="edge">
<title>metadata_utilities_messages&#45;&gt;metadata_utilities_load_json_metadata</title><style>.edge>path:hover{stroke-width:8}</style>
<path fill="none" stroke="black" d="M270.62,-333.92C279.83,-301.22 262.85,-290.56 270.62,-257.49"/>
<path fill="none" stroke="black" d="M270.62,-255.49C278.39,-222.43 269.36,-213.01 270.62,-179.07"/>
<path fill="none" stroke="black" d="M267.68,-392.14C266.09,-376.5 265.4,-354.44 270.62,-335.92"/>
</g>
<!-- metadata_utilities_messages&#45;&gt;metadata_utilities_validate_schema -->
<g id="edge21" class="edge">
<title>metadata_utilities_messages&#45;&gt;metadata_utilities_validate_schema</title><style>.edge>path:hover{stroke-width:8}</style>
<path fill="none" stroke="black" d="M270.62,-333.92C277.44,-309.7 298.41,-291.56 319.01,-279.04"/>
<polygon fill="#16f3f3" stroke="black" points="320.84,-282.03 327.78,-274.02 317.36,-275.95 320.84,-282.03"/>
</g>
<!-- metadata_utilities_mu_logging&#45;&gt;edc_utilities_edc_lineage -->
<g id="edge22" class="edge">
<title>metadata_utilities_mu_logging&#45;&gt;edc_utilities_edc_lineage</title><style>.edge>path:hover{stroke-width:8}</style>
<path fill="none" stroke="black" d="M624.62,-255.49C568.06,-197.5 471.7,-182.37 409.11,-179.03"/>
<polygon fill="#14b8b8" stroke="black" points="409.13,-175.53 398.98,-178.58 408.81,-182.52 409.13,-175.53"/>
<path fill="none" stroke="black" d="M550.71,-399C587.08,-388.17 631.74,-372.14 642.62,-356.13 667.67,-319.27 655.73,-289.4 624.62,-257.49"/>
</g>
<!-- metadata_utilities_mu_logging&#45;&gt;metadata_utilities_check_schema -->
<g id="edge23" class="edge">
<title>metadata_utilities_mu_logging&#45;&gt;metadata_utilities_check_schema</title><style>.edge>path:hover{stroke-width:8}</style>
<path fill="none" stroke="black" d="M449.05,-399.44C438.97,-396.97 428.47,-394.44 418.62,-392.13 346.81,-375.3 328.43,-372.96 256.62,-356.13 250,-354.58 243.09,-352.93 236.21,-351.26"/>
<polygon fill="#14b8b8" stroke="black" points="236.73,-347.79 226.19,-348.82 235.08,-354.59 236.73,-347.79"/>
</g>
<!-- metadata_utilities_mu_logging&#45;&gt;metadata_utilities_generic -->
<g id="edge24" class="edge">
<title>metadata_utilities_mu_logging&#45;&gt;metadata_utilities_generic</title><style>.edge>path:hover{stroke-width:8}</style>
<path fill="none" stroke="black" d="M476.89,-393.45C464.66,-383.72 449.57,-371.71 436.35,-361.18"/>
<polygon fill="#14b8b8" stroke="black" points="438.41,-358.35 428.41,-354.86 434.05,-363.82 438.41,-358.35"/>
</g>
<!-- metadata_utilities_mu_logging&#45;&gt;metadata_utilities_load_json_metadata -->
<g id="edge25" class="edge">
<title>metadata_utilities_mu_logging&#45;&gt;metadata_utilities_load_json_metadata</title><style>.edge>path:hover{stroke-width:8}</style>
<path fill="none" stroke="black" d="M624.62,-255.49C615.9,-244.61 612.51,-242.56 600.62,-235.28 572.65,-218.17 355.54,-139.56 328.62,-120.85 318.49,-113.82 309.84,-112.97 309.62,-100.64"/>
</g>
<!-- metadata_utilities_tryout -->
<g id="node12" class="node">
<title>metadata_utilities_tryout</title><style>.edge>path:hover{stroke-width:8}</style>
<ellipse fill="#439d9d" stroke="black" cx="654.62" cy="-413.35" rx="67.76" ry="21.43"/>
<text text-anchor="middle" x="654.62" y="-416.35" font-family="Helvetica,sans-Serif" font-size="10.00" fill="#000000">metadata_utilities.</text>
<text text-anchor="middle" x="654.62" y="-405.35" font-family="Helvetica,sans-Serif" font-size="10.00" fill="#000000">tryout</text>
</g>
<!-- opencensus -->
<g id="node14" class="node">
<title>opencensus</title><style>.edge>path:hover{stroke-width:8}</style>
<ellipse fill="#853bce" stroke="black" cx="569.62" cy="-566.98" rx="40.74" ry="18"/>
<text text-anchor="middle" x="569.62" y="-564.48" font-family="Helvetica,sans-Serif" font-size="10.00" fill="#ffffff">opencensus</text>
</g>
<!-- opencensus&#45;&gt;metadata_utilities_mu_logging -->
<g id="edge26" class="edge">
<title>opencensus&#45;&gt;metadata_utilities_mu_logging</title><style>.edge>path:hover{stroke-width:8}</style>
<path fill="none" stroke="black" d="M577.5,-549.28C583.73,-534.72 591.53,-512.86 592.62,-492.77"/>
<path fill="none" stroke="black" d="M592.62,-490.77C593.96,-465.81 573.69,-447.42 551.84,-434.94"/>
<polygon fill="#853bce" stroke="black" points="553.24,-431.72 542.77,-430.12 549.95,-437.91 553.24,-431.72"/>
</g>
<!-- opencensus&#45;&gt;metadata_utilities_tryout -->
<g id="edge27" class="edge">
<title>opencensus&#45;&gt;metadata_utilities_tryout</title><style>.edge>path:hover{stroke-width:8}</style>
<path fill="none" stroke="black" d="M592.62,-490.77C593.69,-470.91 606.61,-453.3 620.38,-440.01"/>
<polygon fill="#853bce" stroke="black" points="622.98,-442.38 628.05,-433.08 618.29,-437.19 622.98,-442.38"/>
</g>
<!-- opencensus_ext -->
<g id="node15" class="node">
<title>opencensus_ext</title><style>.edge>path:hover{stroke-width:8}</style>
<ellipse fill="#853bce" stroke="black" cx="678.62" cy="-566.98" rx="50.75" ry="18"/>
<text text-anchor="middle" x="678.62" y="-564.48" font-family="Helvetica,sans-Serif" font-size="10.00" fill="#ffffff">opencensus.ext</text>
</g>
<!-- opencensus_ext&#45;&gt;metadata_utilities_mu_logging -->
<g id="edge28" class="edge">
<title>opencensus_ext&#45;&gt;metadata_utilities_mu_logging</title><style>.edge>path:hover{stroke-width:8}</style>
<path fill="none" stroke="black" d="M654.62,-490.77C643.17,-471.78 593.13,-449.09 553.15,-433.39"/>
<polygon fill="#853bce" stroke="black" points="554.35,-430.1 543.76,-429.75 551.82,-436.63 554.35,-430.1"/>
<path fill="none" stroke="black" d="M675.29,-548.78C671.78,-533.32 665.25,-510.41 654.62,-492.77"/>
</g>
<!-- opencensus_ext&#45;&gt;metadata_utilities_tryout -->
<g id="edge29" class="edge">
<title>opencensus_ext&#45;&gt;metadata_utilities_tryout</title><style>.edge>path:hover{stroke-width:8}</style>
<path fill="none" stroke="black" d="M654.62,-490.77C646.46,-477.24 645.89,-459.76 647.62,-444.93"/>
<polygon fill="#853bce" stroke="black" points="651.13,-445.11 649.2,-434.7 644.21,-444.04 651.13,-445.11"/>
</g>
<!-- opencensus_ext_azure -->
<g id="node16" class="node">
<title>opencensus_ext_azure</title><style>.edge>path:hover{stroke-width:8}</style>
<ellipse fill="#853bce" stroke="black" cx="540.62" cy="-649.98" rx="50.82" ry="28.98"/>
<text text-anchor="middle" x="540.62" y="-658.48" font-family="Helvetica,sans-Serif" font-size="10.00" fill="#ffffff">opencensus.</text>
<text text-anchor="middle" x="540.62" y="-647.48" font-family="Helvetica,sans-Serif" font-size="10.00" fill="#ffffff">ext.</text>
<text text-anchor="middle" x="540.62" y="-636.48" font-family="Helvetica,sans-Serif" font-size="10.00" fill="#ffffff">azure</text>
</g>
<!-- opencensus_ext_azure&#45;&gt;metadata_utilities_mu_logging -->
<g id="edge30" class="edge">
<title>opencensus_ext_azure&#45;&gt;metadata_utilities_mu_logging</title><style>.edge>path:hover{stroke-width:8}</style>
<path fill="none" stroke="black" d="M520.43,-623.18C510.52,-607.99 500.68,-587.9 500.62,-567.98"/>
</g>
<!-- opencensus_ext_azure&#45;&gt;metadata_utilities_tryout -->
<g id="edge31" class="edge">
<title>opencensus_ext_azure&#45;&gt;metadata_utilities_tryout</title><style>.edge>path:hover{stroke-width:8}</style>
<path fill="none" stroke="black" d="M591.75,-648.14C646.08,-644.02 728.14,-627.65 757.62,-567.98"/>
<path fill="none" stroke="black" d="M757.62,-565.98C781.27,-518.11 729.66,-467.84 691.29,-438.89"/>
<polygon fill="#853bce" stroke="black" points="692.98,-435.79 682.85,-432.7 688.84,-441.43 692.98,-435.79"/>
</g>
<!-- opencensus_ext_azure_log_exporter -->
<g id="node17" class="node">
<title>opencensus_ext_azure_log_exporter</title><style>.edge>path:hover{stroke-width:8}</style>
<ellipse fill="#753ab0" stroke="black" cx="609.62" cy="-751.74" rx="50.82" ry="36.54"/>
<text text-anchor="middle" x="609.62" y="-765.74" font-family="Helvetica,sans-Serif" font-size="10.00" fill="#ffffff">opencensus.</text>
<text text-anchor="middle" x="609.62" y="-754.74" font-family="Helvetica,sans-Serif" font-size="10.00" fill="#ffffff">ext.</text>
<text text-anchor="middle" x="609.62" y="-743.74" font-family="Helvetica,sans-Serif" font-size="10.00" fill="#ffffff">azure.</text>
<text text-anchor="middle" x="609.62" y="-732.74" font-family="Helvetica,sans-Serif" font-size="10.00" fill="#ffffff">log_exporter</text>
</g>
<!-- opencensus_ext_azure_log_exporter&#45;&gt;metadata_utilities_mu_logging -->
<g id="edge32" class="edge">
<title>opencensus_ext_azure_log_exporter&#45;&gt;metadata_utilities_mu_logging</title><style>.edge>path:hover{stroke-width:8}</style>
<path fill="none" stroke="black" d="M562.16,-737.78C533.07,-727.12 498.15,-708.79 480.62,-678.97 467.56,-656.75 475.99,-646.34 480.62,-620.98 485.14,-596.22 500.69,-593.16 500.62,-567.98"/>
<path fill="none" stroke="black" d="M500.62,-565.98C498.6,-524.11 499.1,-475.67 499.75,-445.02"/>
<polygon fill="#753ab0" stroke="black" points="503.25,-445.04 499.99,-434.96 496.26,-444.88 503.25,-445.04"/>
</g>
<!-- opencensus_ext_azure_log_exporter&#45;&gt;metadata_utilities_tryout -->
<g id="edge33" class="edge">
<title>opencensus_ext_azure_log_exporter&#45;&gt;metadata_utilities_tryout</title><style>.edge>path:hover{stroke-width:8}</style>
<path fill="none" stroke="black" d="M642.12,-722.96C677.91,-690.12 733.57,-631.78 757.62,-567.98"/>
</g>
</g>
</svg>
