<?xml version="1.0" encoding="UTF-8" standalone="no"?>
<!DOCTYPE svg PUBLIC "-//W3C//DTD SVG 1.1//EN"
 "http://www.w3.org/Graphics/SVG/1.1/DTD/svg11.dtd">
<!-- Generated by graphviz version 2.44.0 (20200408.0750)
 -->
<!-- Title: G Pages: 1 -->
<svg width="886pt" height="755pt"
 viewBox="0.00 0.00 885.76 755.08" xmlns="http://www.w3.org/2000/svg" xmlns:xlink="http://www.w3.org/1999/xlink">
<g id="graph0" class="graph" transform="scale(1 1) rotate(0) translate(4 751.08)">
<title>G</title><style>.edge>path:hover{stroke-width:8}</style>
<polygon fill="white" stroke="transparent" points="-4,4 -4,-751.08 881.76,-751.08 881.76,4 -4,4"/>
<!-- edc_utilities -->
<g id="node1" class="node">
<title>edc_utilities</title><style>.edge>path:hover{stroke-width:8}</style>
<ellipse fill="#c24747" stroke="black" cx="287.88" cy="-178.07" rx="40.06" ry="18"/>
<text text-anchor="middle" x="287.88" y="-175.57" font-family="Helvetica,sans-Serif" font-size="10.00" fill="#ffffff">edc_utilities</text>
</g>
<!-- metadata_utilities_load_json_metadata -->
<g id="node9" class="node">
<title>metadata_utilities_load_json_metadata</title><style>.edge>path:hover{stroke-width:8}</style>
<ellipse fill="#347979" stroke="black" cx="442.88" cy="-21.21" rx="73.58" ry="21.43"/>
<text text-anchor="middle" x="442.88" y="-24.21" font-family="Helvetica,sans-Serif" font-size="10.00" fill="#ffffff">metadata_utilities.</text>
<text text-anchor="middle" x="442.88" y="-13.21" font-family="Helvetica,sans-Serif" font-size="10.00" fill="#ffffff">load_json_metadata</text>
</g>
<!-- edc_utilities&#45;&gt;metadata_utilities_load_json_metadata -->
<g id="edge1" class="edge">
<title>edc_utilities&#45;&gt;metadata_utilities_load_json_metadata</title><style>.edge>path:hover{stroke-width:8}</style>
<path fill="none" stroke="black" d="M394.88,-98.64C399.53,-81.08 409.81,-63.75 419.67,-50.04"/>
<polygon fill="#c24747" stroke="black" points="422.5,-52.11 425.7,-42.01 416.9,-47.9 422.5,-52.11"/>
<path fill="none" stroke="black" d="M313.26,-163.91C343.29,-147.59 389.86,-119.62 394.88,-100.64"/>
</g>
<!-- edc_utilities_edc_lineage -->
<g id="node2" class="node">
<title>edc_utilities_edc_lineage</title><style>.edge>path:hover{stroke-width:8}</style>
<ellipse fill="#8f3d3d" stroke="black" cx="433.88" cy="-178.07" rx="50.41" ry="21.43"/>
<text text-anchor="middle" x="433.88" y="-181.07" font-family="Helvetica,sans-Serif" font-size="10.00" fill="#ffffff">edc_utilities.</text>
<text text-anchor="middle" x="433.88" y="-170.07" font-family="Helvetica,sans-Serif" font-size="10.00" fill="#ffffff">edc_lineage</text>
</g>
<!-- edc_utilities_edc_lineage&#45;&gt;metadata_utilities_load_json_metadata -->
<g id="edge2" class="edge">
<title>edc_utilities_edc_lineage&#45;&gt;metadata_utilities_load_json_metadata</title><style>.edge>path:hover{stroke-width:8}</style>
<path fill="none" stroke="black" d="M415.13,-158.2C402.6,-143.27 389.36,-121.52 394.88,-100.64"/>
</g>
<!-- jsonschema -->
<g id="node3" class="node">
<title>jsonschema</title><style>.edge>path:hover{stroke-width:8}</style>
<ellipse fill="#80cc33" stroke="black" cx="132.88" cy="-450.35" rx="40.74" ry="18"/>
<text text-anchor="middle" x="132.88" y="-447.85" font-family="Helvetica,sans-Serif" font-size="10.00" fill="#000000">jsonschema</text>
</g>
<!-- metadata_utilities_check_schema -->
<g id="node5" class="node">
<title>metadata_utilities_check_schema</title><style>.edge>path:hover{stroke-width:8}</style>
<ellipse fill="#35a1a1" stroke="black" cx="259.88" cy="-293.49" rx="67.76" ry="21.43"/>
<text text-anchor="middle" x="259.88" y="-296.49" font-family="Helvetica,sans-Serif" font-size="10.00" fill="#000000">metadata_utilities.</text>
<text text-anchor="middle" x="259.88" y="-285.49" font-family="Helvetica,sans-Serif" font-size="10.00" fill="#000000">check_schema</text>
</g>
<!-- jsonschema&#45;&gt;metadata_utilities_check_schema -->
<g id="edge3" class="edge">
<title>jsonschema&#45;&gt;metadata_utilities_check_schema</title><style>.edge>path:hover{stroke-width:8}</style>
<path fill="none" stroke="black" d="M132.88,-370.92C138.74,-340.15 167.75,-321.36 196.56,-310.11"/>
<polygon fill="#80cc33" stroke="black" points="198.09,-313.28 206.29,-306.58 195.7,-306.7 198.09,-313.28"/>
</g>
<!-- metadata_utilities_validate_schema -->
<g id="node13" class="node">
<title>metadata_utilities_validate_schema</title><style>.edge>path:hover{stroke-width:8}</style>
<ellipse fill="#4cb3b3" stroke="black" cx="67.88" cy="-293.49" rx="67.76" ry="21.43"/>
<text text-anchor="middle" x="67.88" y="-296.49" font-family="Helvetica,sans-Serif" font-size="10.00" fill="#000000">metadata_utilities.</text>
<text text-anchor="middle" x="67.88" y="-285.49" font-family="Helvetica,sans-Serif" font-size="10.00" fill="#000000">validate_schema</text>
</g>
<!-- jsonschema&#45;&gt;metadata_utilities_validate_schema -->
<g id="edge4" class="edge">
<title>jsonschema&#45;&gt;metadata_utilities_validate_schema</title><style>.edge>path:hover{stroke-width:8}</style>
<path fill="none" stroke="black" d="M132.88,-370.92C136.8,-350.33 122.68,-332.22 106.61,-318.79"/>
<polygon fill="#80cc33" stroke="black" points="108.68,-315.97 98.64,-312.59 104.38,-321.49 108.68,-315.97"/>
<path fill="none" stroke="black" d="M131.06,-432.17C129.84,-416.57 129.06,-392.99 132.88,-372.92"/>
</g>
<!-- metadata_utilities -->
<g id="node4" class="node">
<title>metadata_utilities</title><style>.edge>path:hover{stroke-width:8}</style>
<ellipse fill="#16f3f3" stroke="black" cx="438.88" cy="-293.49" rx="54.99" ry="18"/>
<text text-anchor="middle" x="438.88" y="-290.99" font-family="Helvetica,sans-Serif" font-size="10.00" fill="#000000">metadata_utilities</text>
</g>
<!-- metadata_utilities&#45;&gt;edc_utilities_edc_lineage -->
<g id="edge5" class="edge">
<title>metadata_utilities&#45;&gt;edc_utilities_edc_lineage</title><style>.edge>path:hover{stroke-width:8}</style>
<path fill="none" stroke="black" d="M521.88,-235.28C506.84,-222.28 488.53,-210.1 472.52,-200.42"/>
<polygon fill="#16f3f3" stroke="black" points="474.28,-197.4 463.89,-195.32 470.71,-203.42 474.28,-197.4"/>
<path fill="none" stroke="black" d="M478.46,-280.87C508.67,-270.26 541.97,-253.63 521.88,-236.28"/>
</g>
<!-- metadata_utilities_check_schema&#45;&gt;metadata_utilities_load_json_metadata -->
<g id="edge6" class="edge">
<title>metadata_utilities_check_schema&#45;&gt;metadata_utilities_load_json_metadata</title><style>.edge>path:hover{stroke-width:8}</style>
<path fill="none" stroke="black" d="M309.08,-278.79C328.71,-270.28 348.43,-256.89 355.88,-236.28"/>
<path fill="none" stroke="black" d="M355.88,-235.28C364.38,-211.78 346.39,-202.18 355.88,-179.07"/>
</g>
<!-- metadata_utilities_generic -->
<g id="node6" class="node">
<title>metadata_utilities_generic</title><style>.edge>path:hover{stroke-width:8}</style>
<ellipse fill="#2db4b4" stroke="black" cx="617.88" cy="-293.49" rx="67.76" ry="21.43"/>
<text text-anchor="middle" x="617.88" y="-296.49" font-family="Helvetica,sans-Serif" font-size="10.00" fill="#000000">metadata_utilities.</text>
<text text-anchor="middle" x="617.88" y="-285.49" font-family="Helvetica,sans-Serif" font-size="10.00" fill="#000000">generic</text>
</g>
<!-- metadata_utilities_generic&#45;&gt;edc_utilities_edc_lineage -->
<g id="edge7" class="edge">
<title>metadata_utilities_generic&#45;&gt;edc_utilities_edc_lineage</title><style>.edge>path:hover{stroke-width:8}</style>
<path fill="none" stroke="black" d="M581.63,-275.32C562.72,-265.39 539.86,-251.81 521.88,-236.28"/>
</g>
<!-- metadata_utilities_generic&#45;&gt;metadata_utilities_load_json_metadata -->
<g id="edge8" class="edge">
<title>metadata_utilities_generic&#45;&gt;metadata_utilities_load_json_metadata</title><style>.edge>path:hover{stroke-width:8}</style>
<path fill="none" stroke="black" d="M673.76,-281.32C698.64,-273.07 720.95,-259.16 713.88,-236.28"/>
<path fill="none" stroke="black" d="M713.88,-235.28C671.8,-98.92 532.43,-200.29 413.88,-120.85 403.64,-113.99 391.73,-112.56 394.88,-100.64"/>
</g>
<!-- metadata_utilities_generic_settings -->
<g id="node7" class="node">
<title>metadata_utilities_generic_settings</title><style>.edge>path:hover{stroke-width:8}</style>
<ellipse fill="#16f3f3" stroke="black" cx="372.88" cy="-450.35" rx="67.76" ry="21.43"/>
<text text-anchor="middle" x="372.88" y="-453.35" font-family="Helvetica,sans-Serif" font-size="10.00" fill="#000000">metadata_utilities.</text>
<text text-anchor="middle" x="372.88" y="-442.35" font-family="Helvetica,sans-Serif" font-size="10.00" fill="#000000">generic_settings</text>
</g>
<!-- metadata_utilities_generic_settings&#45;&gt;edc_utilities_edc_lineage -->
<g id="edge9" class="edge">
<title>metadata_utilities_generic_settings&#45;&gt;edc_utilities_edc_lineage</title><style>.edge>path:hover{stroke-width:8}</style>
<path fill="none" stroke="black" d="M713.88,-292.49C670.11,-215.1 589.71,-293.77 521.88,-236.28"/>
<path fill="none" stroke="black" d="M713.88,-370.92C727.04,-339.6 730.61,-324.06 713.88,-294.49"/>
</g>
<!-- metadata_utilities_generic_settings&#45;&gt;metadata_utilities_check_schema -->
<g id="edge10" class="edge">
<title>metadata_utilities_generic_settings&#45;&gt;metadata_utilities_check_schema</title><style>.edge>path:hover{stroke-width:8}</style>
<path fill="none" stroke="black" d="M373.64,-428.97C373.43,-407.61 370.19,-373.99 353.88,-350.71 343.3,-335.6 327.25,-323.88 311.39,-315.14"/>
<polygon fill="#16f3f3" stroke="black" points="312.61,-311.82 302.12,-310.33 309.39,-318.04 312.61,-311.82"/>
</g>
<!-- metadata_utilities_generic_settings&#45;&gt;metadata_utilities_generic -->
<g id="edge11" class="edge">
<title>metadata_utilities_generic_settings&#45;&gt;metadata_utilities_generic</title><style>.edge>path:hover{stroke-width:8}</style>
<path fill="none" stroke="black" d="M713.88,-370.92C724.56,-345.51 699.93,-326.26 672.94,-313.44"/>
<polygon fill="#16f3f3" stroke="black" points="674.31,-310.22 663.75,-309.34 671.46,-316.61 674.31,-310.22"/>
<path fill="none" stroke="black" d="M434.13,-441C529.3,-427.26 703,-398.82 713.88,-372.92"/>
</g>
<!-- metadata_utilities_generic_settings&#45;&gt;metadata_utilities_load_json_metadata -->
<g id="edge12" class="edge">
<title>metadata_utilities_generic_settings&#45;&gt;metadata_utilities_load_json_metadata</title><style>.edge>path:hover{stroke-width:8}</style>
<path fill="none" stroke="black" d="M713.88,-292.49C701.58,-270.75 715.95,-261.18 713.88,-236.28"/>
</g>
<!-- metadata_utilities_mu_logging -->
<g id="node11" class="node">
<title>metadata_utilities_mu_logging</title><style>.edge>path:hover{stroke-width:8}</style>
<ellipse fill="#14b8b8" stroke="black" cx="276.88" cy="-371.92" rx="67.76" ry="21.43"/>
<text text-anchor="middle" x="276.88" y="-374.92" font-family="Helvetica,sans-Serif" font-size="10.00" fill="#000000">metadata_utilities.</text>
<text text-anchor="middle" x="276.88" y="-363.92" font-family="Helvetica,sans-Serif" font-size="10.00" fill="#000000">mu_logging</text>
</g>
<!-- metadata_utilities_generic_settings&#45;&gt;metadata_utilities_mu_logging -->
<g id="edge13" class="edge">
<title>metadata_utilities_generic_settings&#45;&gt;metadata_utilities_mu_logging</title><style>.edge>path:hover{stroke-width:8}</style>
<path fill="none" stroke="black" d="M349.15,-430.45C336.92,-420.72 321.84,-408.71 308.62,-398.18"/>
<polygon fill="#16f3f3" stroke="black" points="310.68,-395.35 300.67,-391.86 306.32,-400.82 310.68,-395.35"/>
</g>
<!-- metadata_utilities_json_file_utilities -->
<g id="node8" class="node">
<title>metadata_utilities_json_file_utilities</title><style>.edge>path:hover{stroke-width:8}</style>
<ellipse fill="#47c2c2" stroke="black" cx="490.88" cy="-99.64" rx="67.76" ry="21.43"/>
<text text-anchor="middle" x="490.88" y="-102.64" font-family="Helvetica,sans-Serif" font-size="10.00" fill="#000000">metadata_utilities.</text>
<text text-anchor="middle" x="490.88" y="-91.64" font-family="Helvetica,sans-Serif" font-size="10.00" fill="#000000">json_file_utilities</text>
</g>
<!-- metadata_utilities_json_file_utilities&#45;&gt;metadata_utilities_load_json_metadata -->
<g id="edge14" class="edge">
<title>metadata_utilities_json_file_utilities&#45;&gt;metadata_utilities_load_json_metadata</title><style>.edge>path:hover{stroke-width:8}</style>
<path fill="none" stroke="black" d="M478.27,-78.56C472.92,-70.05 466.6,-59.97 460.78,-50.71"/>
<polygon fill="#47c2c2" stroke="black" points="463.69,-48.77 455.41,-42.16 457.76,-52.49 463.69,-48.77"/>
</g>
<!-- metadata_utilities_messages -->
<g id="node10" class="node">
<title>metadata_utilities_messages</title><style>.edge>path:hover{stroke-width:8}</style>
<ellipse fill="#22e7e7" stroke="black" cx="486.88" cy="-371.92" rx="67.76" ry="21.43"/>
<text text-anchor="middle" x="486.88" y="-374.92" font-family="Helvetica,sans-Serif" font-size="10.00" fill="#000000">metadata_utilities.</text>
<text text-anchor="middle" x="486.88" y="-363.92" font-family="Helvetica,sans-Serif" font-size="10.00" fill="#000000">messages</text>
</g>
<!-- metadata_utilities_messages&#45;&gt;edc_utilities_edc_lineage -->
<g id="edge15" class="edge">
<title>metadata_utilities_messages&#45;&gt;edc_utilities_edc_lineage</title><style>.edge>path:hover{stroke-width:8}</style>
<path fill="none" stroke="black" d="M502.3,-350.88C523.42,-320.94 555.14,-265.02 521.88,-236.28"/>
</g>
<!-- metadata_utilities_messages&#45;&gt;metadata_utilities_check_schema -->
<g id="edge16" class="edge">
<title>metadata_utilities_messages&#45;&gt;metadata_utilities_check_schema</title><style>.edge>path:hover{stroke-width:8}</style>
<path fill="none" stroke="black" d="M442.31,-355.91C405.64,-343.57 353.54,-326.03 314.4,-312.85"/>
<polygon fill="#22e7e7" stroke="black" points="315.34,-309.47 304.74,-309.6 313.11,-316.1 315.34,-309.47"/>
</g>
<!-- metadata_utilities_messages&#45;&gt;metadata_utilities_generic -->
<g id="edge17" class="edge">
<title>metadata_utilities_messages&#45;&gt;metadata_utilities_generic</title><style>.edge>path:hover{stroke-width:8}</style>
<path fill="none" stroke="black" d="M517.6,-353C535.7,-342.44 558.79,-328.97 578.25,-317.61"/>
<polygon fill="#22e7e7" stroke="black" points="580.03,-320.63 586.91,-312.56 576.51,-314.58 580.03,-320.63"/>
</g>
<!-- metadata_utilities_messages&#45;&gt;metadata_utilities_load_json_metadata -->
<g id="edge18" class="edge">
<title>metadata_utilities_messages&#45;&gt;metadata_utilities_load_json_metadata</title><style>.edge>path:hover{stroke-width:8}</style>
<path fill="none" stroke="black" d="M438.26,-357.04C415.9,-348.31 390.86,-334.8 374.88,-314.71 352.56,-286.63 343.69,-270.01 355.88,-236.28"/>
</g>
<!-- metadata_utilities_mu_logging&#45;&gt;edc_utilities_edc_lineage -->
<g id="edge19" class="edge">
<title>metadata_utilities_mu_logging&#45;&gt;edc_utilities_edc_lineage</title><style>.edge>path:hover{stroke-width:8}</style>
<path fill="none" stroke="black" d="M317.88,-235.28C341.84,-222.16 369.33,-208.77 391.53,-198.36"/>
<polygon fill="#14b8b8" stroke="black" points="393.11,-201.48 400.69,-194.08 390.15,-195.14 393.11,-201.48"/>
</g>
<!-- metadata_utilities_mu_logging&#45;&gt;metadata_utilities_check_schema -->
<g id="edge20" class="edge">
<title>metadata_utilities_mu_logging&#45;&gt;metadata_utilities_check_schema</title><style>.edge>path:hover{stroke-width:8}</style>
<path fill="none" stroke="black" d="M272.33,-350.44C270.56,-342.49 268.5,-333.23 266.57,-324.56"/>
<polygon fill="#14b8b8" stroke="black" points="269.98,-323.77 264.39,-314.76 263.15,-325.29 269.98,-323.77"/>
</g>
<!-- metadata_utilities_mu_logging&#45;&gt;metadata_utilities_generic -->
<g id="edge21" class="edge">
<title>metadata_utilities_mu_logging&#45;&gt;metadata_utilities_generic</title><style>.edge>path:hover{stroke-width:8}</style>
<path fill="none" stroke="black" d="M330.54,-358.89C391.16,-345.31 489.75,-323.21 554.22,-308.76"/>
<polygon fill="#14b8b8" stroke="black" points="555.27,-312.11 564.26,-306.51 553.73,-305.28 555.27,-312.11"/>
</g>
<!-- metadata_utilities_mu_logging&#45;&gt;metadata_utilities_load_json_metadata -->
<g id="edge22" class="edge">
<title>metadata_utilities_mu_logging&#45;&gt;metadata_utilities_load_json_metadata</title><style>.edge>path:hover{stroke-width:8}</style>
<path fill="none" stroke="black" d="M317.88,-235.28C344.33,-220.8 344.42,-206.96 355.88,-179.07"/>
<path fill="none" stroke="black" d="M355.88,-177.07C370.37,-141.79 392.67,-138.71 394.88,-100.64"/>
<path fill="none" stroke="black" d="M232.07,-355.62C213.39,-346.77 193.58,-333.56 182.88,-314.71 173.58,-298.3 171.39,-287.23 182.88,-272.28 220.71,-223.04 263.41,-266.1 317.88,-236.28"/>
</g>
<!-- metadata_utilities_tryout -->
<g id="node12" class="node">
<title>metadata_utilities_tryout</title><style>.edge>path:hover{stroke-width:8}</style>
<ellipse fill="#439d9d" stroke="black" cx="809.88" cy="-371.92" rx="67.76" ry="21.43"/>
<text text-anchor="middle" x="809.88" y="-374.92" font-family="Helvetica,sans-Serif" font-size="10.00" fill="#000000">metadata_utilities.</text>
<text text-anchor="middle" x="809.88" y="-363.92" font-family="Helvetica,sans-Serif" font-size="10.00" fill="#000000">tryout</text>
</g>
<!-- opencensus -->
<g id="node14" class="node">
<title>opencensus</title><style>.edge>path:hover{stroke-width:8}</style>
<ellipse fill="#853bce" stroke="black" cx="464.88" cy="-525.56" rx="40.74" ry="18"/>
<text text-anchor="middle" x="464.88" y="-523.06" font-family="Helvetica,sans-Serif" font-size="10.00" fill="#ffffff">opencensus</text>
</g>
<!-- opencensus&#45;&gt;metadata_utilities_mu_logging -->
<g id="edge23" class="edge">
<title>opencensus&#45;&gt;metadata_utilities_mu_logging</title><style>.edge>path:hover{stroke-width:8}</style>
<path fill="none" stroke="black" d="M434.11,-513.66C428.08,-511.59 421.79,-509.47 415.88,-507.56 352.48,-487.06 304.94,-511.79 276.88,-451.35"/>
</g>
<!-- opencensus&#45;&gt;metadata_utilities_tryout -->
<g id="edge24" class="edge">
<title>opencensus&#45;&gt;metadata_utilities_tryout</title><style>.edge>path:hover{stroke-width:8}</style>
<path fill="none" stroke="black" d="M475.74,-508.08C487.84,-491.1 509.02,-465.21 533.88,-451.35"/>
</g>
<!-- opencensus_ext -->
<g id="node15" class="node">
<title>opencensus_ext</title><style>.edge>path:hover{stroke-width:8}</style>
<ellipse fill="#853bce" stroke="black" cx="355.88" cy="-525.56" rx="50.75" ry="18"/>
<text text-anchor="middle" x="355.88" y="-523.06" font-family="Helvetica,sans-Serif" font-size="10.00" fill="#ffffff">opencensus.ext</text>
</g>
<!-- opencensus_ext&#45;&gt;metadata_utilities_mu_logging -->
<g id="edge25" class="edge">
<title>opencensus_ext&#45;&gt;metadata_utilities_mu_logging</title><style>.edge>path:hover{stroke-width:8}</style>
<path fill="none" stroke="black" d="M331.41,-509.6C312.79,-496.72 288.46,-476.28 276.88,-451.35"/>
</g>
<!-- opencensus_ext&#45;&gt;metadata_utilities_tryout -->
<g id="edge26" class="edge">
<title>opencensus_ext&#45;&gt;metadata_utilities_tryout</title><style>.edge>path:hover{stroke-width:8}</style>
<path fill="none" stroke="black" d="M533.88,-449.35C552.74,-438.83 673.08,-407.4 748.5,-388.28"/>
<polygon fill="#853bce" stroke="black" points="749.53,-391.62 758.37,-385.78 747.82,-384.84 749.53,-391.62"/>
<path fill="none" stroke="black" d="M391.47,-512.74C428.24,-499.88 486.75,-477.62 533.88,-451.35"/>
</g>
<!-- opencensus_ext_azure -->
<g id="node16" class="node">
<title>opencensus_ext_azure</title><style>.edge>path:hover{stroke-width:8}</style>
<ellipse fill="#853bce" stroke="black" cx="316.88" cy="-608.55" rx="50.82" ry="28.98"/>
<text text-anchor="middle" x="316.88" y="-617.05" font-family="Helvetica,sans-Serif" font-size="10.00" fill="#ffffff">opencensus.</text>
<text text-anchor="middle" x="316.88" y="-606.05" font-family="Helvetica,sans-Serif" font-size="10.00" fill="#ffffff">ext.</text>
<text text-anchor="middle" x="316.88" y="-595.05" font-family="Helvetica,sans-Serif" font-size="10.00" fill="#ffffff">azure</text>
</g>
<!-- opencensus_ext_azure&#45;&gt;metadata_utilities_mu_logging -->
<g id="edge27" class="edge">
<title>opencensus_ext_azure&#45;&gt;metadata_utilities_mu_logging</title><style>.edge>path:hover{stroke-width:8}</style>
<path fill="none" stroke="black" d="M296.69,-581.75C286.79,-566.56 276.94,-546.47 276.88,-526.56"/>
</g>
<!-- opencensus_ext_azure&#45;&gt;metadata_utilities_tryout -->
<g id="edge28" class="edge">
<title>opencensus_ext_azure&#45;&gt;metadata_utilities_tryout</title><style>.edge>path:hover{stroke-width:8}</style>
<path fill="none" stroke="black" d="M533.88,-524.56C548.3,-495.39 505.46,-467.19 533.88,-451.35"/>
<path fill="none" stroke="black" d="M368.01,-606.71C422.35,-602.59 504.4,-586.22 533.88,-526.56"/>
</g>
<!-- opencensus_ext_azure_log_exporter -->
<g id="node17" class="node">
<title>opencensus_ext_azure_log_exporter</title><style>.edge>path:hover{stroke-width:8}</style>
<ellipse fill="#753ab0" stroke="black" cx="385.88" cy="-710.31" rx="50.82" ry="36.54"/>
<text text-anchor="middle" x="385.88" y="-724.31" font-family="Helvetica,sans-Serif" font-size="10.00" fill="#ffffff">opencensus.</text>
<text text-anchor="middle" x="385.88" y="-713.31" font-family="Helvetica,sans-Serif" font-size="10.00" fill="#ffffff">ext.</text>
<text text-anchor="middle" x="385.88" y="-702.31" font-family="Helvetica,sans-Serif" font-size="10.00" fill="#ffffff">azure.</text>
<text text-anchor="middle" x="385.88" y="-691.31" font-family="Helvetica,sans-Serif" font-size="10.00" fill="#ffffff">log_exporter</text>
</g>
<!-- opencensus_ext_azure_log_exporter&#45;&gt;metadata_utilities_mu_logging -->
<g id="edge29" class="edge">
<title>opencensus_ext_azure_log_exporter&#45;&gt;metadata_utilities_mu_logging</title><style>.edge>path:hover{stroke-width:8}</style>
<path fill="none" stroke="black" d="M276.88,-449.35C270.32,-435.21 269.78,-417.95 271.12,-403.41"/>
<polygon fill="#753ab0" stroke="black" points="274.6,-403.75 272.36,-393.39 267.66,-402.88 274.6,-403.75"/>
<path fill="none" stroke="black" d="M338.42,-696.36C309.33,-685.69 274.42,-667.37 256.88,-637.54 243.82,-615.33 252.26,-604.91 256.88,-579.56 261.4,-554.79 276.96,-551.74 276.88,-526.56"/>
<path fill="none" stroke="black" d="M276.88,-524.56C275.22,-492.06 290.58,-480.86 276.88,-451.35"/>
</g>
<!-- opencensus_ext_azure_log_exporter&#45;&gt;metadata_utilities_tryout -->
<g id="edge30" class="edge">
<title>opencensus_ext_azure_log_exporter&#45;&gt;metadata_utilities_tryout</title><style>.edge>path:hover{stroke-width:8}</style>
<path fill="none" stroke="black" d="M416.16,-680.57C449.9,-646.83 503.68,-587.69 533.88,-526.56"/>
</g>
</g>
</svg>
