<?xml version="1.0" encoding="UTF-8" standalone="no"?>
<!DOCTYPE svg PUBLIC "-//W3C//DTD SVG 1.1//EN"
 "http://www.w3.org/Graphics/SVG/1.1/DTD/svg11.dtd">
<!-- Generated by graphviz version 2.44.1 (20200629.0846)
 -->
<!-- Title: G Pages: 1 -->
<svg width="890pt" height="725pt"
 viewBox="0.00 0.00 890.39 724.51" xmlns="http://www.w3.org/2000/svg" xmlns:xlink="http://www.w3.org/1999/xlink">
<g id="graph0" class="graph" transform="scale(1 1) rotate(0) translate(4 720.51)">
<title>G</title><style>.edge>path:hover{stroke-width:8}</style>
<polygon fill="white" stroke="transparent" points="-4,4 -4,-720.51 886.39,-720.51 886.39,4 -4,4"/>
<!-- edc_utilities -->
<g id="node1" class="node">
<title>edc_utilities</title><style>.edge>path:hover{stroke-width:8}</style>
<ellipse fill="#c24747" stroke="black" cx="40.03" cy="-178.07" rx="40.06" ry="18"/>
<text text-anchor="middle" x="40.03" y="-175.57" font-family="Helvetica,sans-Serif" font-size="10.00" fill="#ffffff">edc_utilities</text>
</g>
<!-- metadata_utilities_load_json_metadata -->
<g id="node9" class="node">
<title>metadata_utilities_load_json_metadata</title><style>.edge>path:hover{stroke-width:8}</style>
<ellipse fill="#347979" stroke="black" cx="377.03" cy="-21.21" rx="73.58" ry="21.43"/>
<text text-anchor="middle" x="377.03" y="-24.21" font-family="Helvetica,sans-Serif" font-size="10.00" fill="#ffffff">metadata_utilities.</text>
<text text-anchor="middle" x="377.03" y="-13.21" font-family="Helvetica,sans-Serif" font-size="10.00" fill="#ffffff">load_json_metadata</text>
</g>
<!-- edc_utilities&#45;&gt;metadata_utilities_load_json_metadata -->
<g id="edge1" class="edge">
<title>edc_utilities&#45;&gt;metadata_utilities_load_json_metadata</title><style>.edge>path:hover{stroke-width:8}</style>
<path fill="none" stroke="black" d="M62.56,-163C81.02,-149.64 104.65,-127.6 108.03,-100.64"/>
<path fill="none" stroke="black" d="M108.03,-98.64C112.93,-59.51 219.94,-39.26 297.49,-29.7"/>
<polygon fill="#c24747" stroke="black" points="298.23,-33.13 307.74,-28.47 297.4,-26.18 298.23,-33.13"/>
</g>
<!-- edc_utilities_edc_lineage -->
<g id="node2" class="node">
<title>edc_utilities_edc_lineage</title><style>.edge>path:hover{stroke-width:8}</style>
<ellipse fill="#964040" stroke="black" cx="340.03" cy="-178.07" rx="50.41" ry="21.43"/>
<text text-anchor="middle" x="340.03" y="-181.07" font-family="Helvetica,sans-Serif" font-size="10.00" fill="#ffffff">edc_utilities.</text>
<text text-anchor="middle" x="340.03" y="-170.07" font-family="Helvetica,sans-Serif" font-size="10.00" fill="#ffffff">edc_lineage</text>
</g>
<!-- edc_utilities_edc_lineage&#45;&gt;metadata_utilities_load_json_metadata -->
<g id="edge2" class="edge">
<title>edc_utilities_edc_lineage&#45;&gt;metadata_utilities_load_json_metadata</title><style>.edge>path:hover{stroke-width:8}</style>
<path fill="none" stroke="black" d="M302.29,-164.04C295.23,-161.63 287.91,-159.15 281.03,-156.85 204.34,-131.26 97.99,-180.86 108.03,-100.64"/>
</g>
<!-- jsonschema -->
<g id="node3" class="node">
<title>jsonschema</title><style>.edge>path:hover{stroke-width:8}</style>
<ellipse fill="#80cc33" stroke="black" cx="471.03" cy="-334.92" rx="40.74" ry="18"/>
<text text-anchor="middle" x="471.03" y="-332.42" font-family="Helvetica,sans-Serif" font-size="10.00" fill="#000000">jsonschema</text>
</g>
<!-- metadata_utilities_check_schema -->
<g id="node5" class="node">
<title>metadata_utilities_check_schema</title><style>.edge>path:hover{stroke-width:8}</style>
<ellipse fill="#35a1a1" stroke="black" cx="476.03" cy="-178.07" rx="67.76" ry="21.43"/>
<text text-anchor="middle" x="476.03" y="-181.07" font-family="Helvetica,sans-Serif" font-size="10.00" fill="#000000">metadata_utilities.</text>
<text text-anchor="middle" x="476.03" y="-170.07" font-family="Helvetica,sans-Serif" font-size="10.00" fill="#000000">check_schema</text>
</g>
<!-- jsonschema&#45;&gt;metadata_utilities_check_schema -->
<g id="edge3" class="edge">
<title>jsonschema&#45;&gt;metadata_utilities_check_schema</title><style>.edge>path:hover{stroke-width:8}</style>
<path fill="none" stroke="black" d="M463.34,-317.11C458.76,-306.14 453.39,-291.38 451.03,-277.71 447.82,-259.12 447.11,-253.72 451.03,-235.28 452.96,-226.17 456.48,-216.75 460.28,-208.28"/>
<polygon fill="#80cc33" stroke="black" points="463.47,-209.72 464.61,-199.19 457.15,-206.71 463.47,-209.72"/>
</g>
<!-- metadata_utilities_validate_schema -->
<g id="node14" class="node">
<title>metadata_utilities_validate_schema</title><style>.edge>path:hover{stroke-width:8}</style>
<ellipse fill="#409696" stroke="black" cx="204.03" cy="-178.07" rx="67.76" ry="21.43"/>
<text text-anchor="middle" x="204.03" y="-181.07" font-family="Helvetica,sans-Serif" font-size="10.00" fill="#ffffff">metadata_utilities.</text>
<text text-anchor="middle" x="204.03" y="-170.07" font-family="Helvetica,sans-Serif" font-size="10.00" fill="#ffffff">validate_schema</text>
</g>
<!-- jsonschema&#45;&gt;metadata_utilities_validate_schema -->
<g id="edge4" class="edge">
<title>jsonschema&#45;&gt;metadata_utilities_validate_schema</title><style>.edge>path:hover{stroke-width:8}</style>
<path fill="none" stroke="black" d="M447.33,-320.18C401.51,-293.6 300.32,-234.91 243.94,-202.22"/>
<polygon fill="#80cc33" stroke="black" points="245.37,-199 234.96,-197.01 241.86,-205.05 245.37,-199"/>
</g>
<!-- metadata_utilities -->
<g id="node4" class="node">
<title>metadata_utilities</title><style>.edge>path:hover{stroke-width:8}</style>
<ellipse fill="#10f9f9" stroke="black" cx="358.03" cy="-334.92" rx="54.99" ry="18"/>
<text text-anchor="middle" x="358.03" y="-332.42" font-family="Helvetica,sans-Serif" font-size="10.00" fill="#000000">metadata_utilities</text>
</g>
<!-- metadata_utilities&#45;&gt;edc_utilities_edc_lineage -->
<g id="edge5" class="edge">
<title>metadata_utilities&#45;&gt;edc_utilities_edc_lineage</title><style>.edge>path:hover{stroke-width:8}</style>
<path fill="none" stroke="black" d="M356.03,-316.76C353.03,-290.93 347.31,-241.7 343.58,-209.65"/>
<polygon fill="#10f9f9" stroke="black" points="347.03,-209.02 342.4,-199.49 340.08,-209.83 347.03,-209.02"/>
</g>
<!-- metadata_utilities_check_schema&#45;&gt;metadata_utilities_load_json_metadata -->
<g id="edge6" class="edge">
<title>metadata_utilities_check_schema&#45;&gt;metadata_utilities_load_json_metadata</title><style>.edge>path:hover{stroke-width:8}</style>
<path fill="none" stroke="black" d="M426.44,-163.54C417.35,-161.2 407.92,-158.88 399.03,-156.85 334.81,-142.24 99.85,-165.99 108.03,-100.64"/>
</g>
<!-- metadata_utilities_generic -->
<g id="node6" class="node">
<title>metadata_utilities_generic</title><style>.edge>path:hover{stroke-width:8}</style>
<ellipse fill="#24d0d0" stroke="black" cx="179.03" cy="-334.92" rx="67.76" ry="21.43"/>
<text text-anchor="middle" x="179.03" y="-337.92" font-family="Helvetica,sans-Serif" font-size="10.00" fill="#000000">metadata_utilities.</text>
<text text-anchor="middle" x="179.03" y="-326.92" font-family="Helvetica,sans-Serif" font-size="10.00" fill="#000000">generic</text>
</g>
<!-- metadata_utilities_generic&#45;&gt;edc_utilities_edc_lineage -->
<g id="edge7" class="edge">
<title>metadata_utilities_generic&#45;&gt;edc_utilities_edc_lineage</title><style>.edge>path:hover{stroke-width:8}</style>
<path fill="none" stroke="black" d="M220.03,-255.49C236.31,-227.93 266.86,-208.69 293.05,-196.41"/>
<polygon fill="#24d0d0" stroke="black" points="294.77,-199.47 302.47,-192.2 291.92,-193.08 294.77,-199.47"/>
</g>
<!-- metadata_utilities_generic&#45;&gt;metadata_utilities_load_json_metadata -->
<g id="edge8" class="edge">
<title>metadata_utilities_generic&#45;&gt;metadata_utilities_load_json_metadata</title><style>.edge>path:hover{stroke-width:8}</style>
<path fill="none" stroke="black" d="M149.55,-315.65C131.64,-302.21 111.56,-282.05 108.03,-257.49"/>
</g>
<!-- metadata_utilities_generic&#45;&gt;metadata_utilities_validate_schema -->
<g id="edge9" class="edge">
<title>metadata_utilities_generic&#45;&gt;metadata_utilities_validate_schema</title><style>.edge>path:hover{stroke-width:8}</style>
<path fill="none" stroke="black" d="M220.03,-255.49C228.4,-241.32 225.23,-223.4 219.59,-208.48"/>
<polygon fill="#24d0d0" stroke="black" points="222.76,-207 215.62,-199.17 216.32,-209.74 222.76,-207"/>
<path fill="none" stroke="black" d="M189.21,-313.88C197.25,-298.31 208.92,-276.29 220.03,-257.49"/>
</g>
<!-- metadata_utilities_generic_settings -->
<g id="node7" class="node">
<title>metadata_utilities_generic_settings</title><style>.edge>path:hover{stroke-width:8}</style>
<ellipse fill="#23c8c8" stroke="black" cx="561.03" cy="-256.49" rx="67.76" ry="21.43"/>
<text text-anchor="middle" x="561.03" y="-259.49" font-family="Helvetica,sans-Serif" font-size="10.00" fill="#000000">metadata_utilities.</text>
<text text-anchor="middle" x="561.03" y="-248.49" font-family="Helvetica,sans-Serif" font-size="10.00" fill="#000000">generic_settings</text>
</g>
<!-- metadata_utilities_generic_settings&#45;&gt;metadata_utilities_check_schema -->
<g id="edge10" class="edge">
<title>metadata_utilities_generic_settings&#45;&gt;metadata_utilities_check_schema</title><style>.edge>path:hover{stroke-width:8}</style>
<path fill="none" stroke="black" d="M539.58,-236.21C529.11,-226.79 516.36,-215.33 505.04,-205.15"/>
<polygon fill="#23c8c8" stroke="black" points="507.25,-202.43 497.47,-198.35 502.57,-207.63 507.25,-202.43"/>
</g>
<!-- metadata_utilities_generic_settings&#45;&gt;metadata_utilities_load_json_metadata -->
<g id="edge11" class="edge">
<title>metadata_utilities_generic_settings&#45;&gt;metadata_utilities_load_json_metadata</title><style>.edge>path:hover{stroke-width:8}</style>
<path fill="none" stroke="black" d="M657.03,-177.07C683.06,-84.69 546.42,-46.47 454.82,-31.38"/>
<polygon fill="#23c8c8" stroke="black" points="455.15,-27.89 444.72,-29.78 454.05,-34.8 455.15,-27.89"/>
<path fill="none" stroke="black" d="M602.95,-239.73C627.49,-227.52 654.22,-207.79 657.03,-179.07"/>
</g>
<!-- metadata_utilities_generic_settings&#45;&gt;metadata_utilities_validate_schema -->
<g id="edge12" class="edge">
<title>metadata_utilities_generic_settings&#45;&gt;metadata_utilities_validate_schema</title><style>.edge>path:hover{stroke-width:8}</style>
<path fill="none" stroke="black" d="M503.71,-245C446.96,-234.38 357.71,-217.03 281.03,-199.28 275.42,-197.98 269.6,-196.57 263.79,-195.12"/>
<polygon fill="#23c8c8" stroke="black" points="264.6,-191.71 254.04,-192.65 262.87,-198.5 264.6,-191.71"/>
</g>
<!-- metadata_utilities_json_file_utilities -->
<g id="node8" class="node">
<title>metadata_utilities_json_file_utilities</title><style>.edge>path:hover{stroke-width:8}</style>
<ellipse fill="#47c2c2" stroke="black" cx="377.03" cy="-99.64" rx="67.76" ry="21.43"/>
<text text-anchor="middle" x="377.03" y="-102.64" font-family="Helvetica,sans-Serif" font-size="10.00" fill="#000000">metadata_utilities.</text>
<text text-anchor="middle" x="377.03" y="-91.64" font-family="Helvetica,sans-Serif" font-size="10.00" fill="#000000">json_file_utilities</text>
</g>
<!-- metadata_utilities_json_file_utilities&#45;&gt;metadata_utilities_load_json_metadata -->
<g id="edge13" class="edge">
<title>metadata_utilities_json_file_utilities&#45;&gt;metadata_utilities_load_json_metadata</title><style>.edge>path:hover{stroke-width:8}</style>
<path fill="none" stroke="black" d="M377.03,-78.16C377.03,-70.3 377.03,-61.16 377.03,-52.57"/>
<polygon fill="#47c2c2" stroke="black" points="380.53,-52.49 377.03,-42.49 373.53,-52.49 380.53,-52.49"/>
</g>
<!-- metadata_utilities_log_settings -->
<g id="node10" class="node">
<title>metadata_utilities_log_settings</title><style>.edge>path:hover{stroke-width:8}</style>
<ellipse fill="#3db8b8" stroke="black" cx="456.03" cy="-413.35" rx="67.76" ry="21.43"/>
<text text-anchor="middle" x="456.03" y="-416.35" font-family="Helvetica,sans-Serif" font-size="10.00" fill="#000000">metadata_utilities.</text>
<text text-anchor="middle" x="456.03" y="-405.35" font-family="Helvetica,sans-Serif" font-size="10.00" fill="#000000">log_settings</text>
</g>
<!-- metadata_utilities_mu_logging -->
<g id="node12" class="node">
<title>metadata_utilities_mu_logging</title><style>.edge>path:hover{stroke-width:8}</style>
<ellipse fill="#14b8b8" stroke="black" cx="636.03" cy="-334.92" rx="67.76" ry="21.43"/>
<text text-anchor="middle" x="636.03" y="-337.92" font-family="Helvetica,sans-Serif" font-size="10.00" fill="#000000">metadata_utilities.</text>
<text text-anchor="middle" x="636.03" y="-326.92" font-family="Helvetica,sans-Serif" font-size="10.00" fill="#000000">mu_logging</text>
</g>
<!-- metadata_utilities_log_settings&#45;&gt;metadata_utilities_mu_logging -->
<g id="edge14" class="edge">
<title>metadata_utilities_log_settings&#45;&gt;metadata_utilities_mu_logging</title><style>.edge>path:hover{stroke-width:8}</style>
<path fill="none" stroke="black" d="M495.09,-395.76C522.21,-384.24 558.54,-368.82 587.53,-356.51"/>
<polygon fill="#3db8b8" stroke="black" points="589.21,-359.6 597.05,-352.47 586.48,-353.16 589.21,-359.6"/>
</g>
<!-- metadata_utilities_messages -->
<g id="node11" class="node">
<title>metadata_utilities_messages</title><style>.edge>path:hover{stroke-width:8}</style>
<ellipse fill="#10f9f9" stroke="black" cx="366.03" cy="-491.77" rx="67.76" ry="21.43"/>
<text text-anchor="middle" x="366.03" y="-494.77" font-family="Helvetica,sans-Serif" font-size="10.00" fill="#000000">metadata_utilities.</text>
<text text-anchor="middle" x="366.03" y="-483.77" font-family="Helvetica,sans-Serif" font-size="10.00" fill="#000000">messages</text>
</g>
<!-- metadata_utilities_messages&#45;&gt;edc_utilities_edc_lineage -->
<g id="edge15" class="edge">
<title>metadata_utilities_messages&#45;&gt;edc_utilities_edc_lineage</title><style>.edge>path:hover{stroke-width:8}</style>
<path fill="none" stroke="black" d="M275.03,-412.35C240.03,-342.81 289.66,-251.83 319.81,-206.8"/>
<polygon fill="#10f9f9" stroke="black" points="322.78,-208.65 325.55,-198.42 317.01,-204.69 322.78,-208.65"/>
</g>
<!-- metadata_utilities_messages&#45;&gt;metadata_utilities_check_schema -->
<g id="edge16" class="edge">
<title>metadata_utilities_messages&#45;&gt;metadata_utilities_check_schema</title><style>.edge>path:hover{stroke-width:8}</style>
<path fill="none" stroke="black" d="M275.03,-412.35C218.36,-303.65 483.89,-444.88 540.03,-335.92"/>
<path fill="none" stroke="black" d="M540.03,-333.92C556.18,-302.57 499.05,-309.61 484.03,-277.71 474.04,-256.49 472.43,-229.86 473.1,-209.62"/>
<polygon fill="#10f9f9" stroke="black" points="476.61,-209.57 473.65,-199.4 469.62,-209.19 476.61,-209.57"/>
</g>
<!-- metadata_utilities_messages&#45;&gt;metadata_utilities_generic -->
<g id="edge17" class="edge">
<title>metadata_utilities_messages&#45;&gt;metadata_utilities_generic</title><style>.edge>path:hover{stroke-width:8}</style>
<path fill="none" stroke="black" d="M275.03,-412.35C263.6,-389.64 241.96,-371.49 222.12,-358.59"/>
<polygon fill="#10f9f9" stroke="black" points="223.81,-355.52 213.47,-353.21 220.11,-361.46 223.81,-355.52"/>
</g>
<!-- metadata_utilities_messages&#45;&gt;metadata_utilities_generic_settings -->
<g id="edge18" class="edge">
<title>metadata_utilities_messages&#45;&gt;metadata_utilities_generic_settings</title><style>.edge>path:hover{stroke-width:8}</style>
<path fill="none" stroke="black" d="M540.03,-333.92C547.43,-319.55 552.46,-302.27 555.74,-287.78"/>
<polygon fill="#10f9f9" stroke="black" points="559.21,-288.31 557.83,-277.81 552.35,-286.88 559.21,-288.31"/>
</g>
<!-- metadata_utilities_messages&#45;&gt;metadata_utilities_load_json_metadata -->
<g id="edge19" class="edge">
<title>metadata_utilities_messages&#45;&gt;metadata_utilities_load_json_metadata</title><style>.edge>path:hover{stroke-width:8}</style>
<path fill="none" stroke="black" d="M275.03,-412.35C232.57,-330.9 114.15,-422.33 83.03,-335.92"/>
<path fill="none" stroke="black" d="M108.03,-255.49C98.25,-187.37 99.48,-168.93 108.03,-100.64"/>
<path fill="none" stroke="black" d="M333.79,-472.83C313.24,-459.53 288.1,-439.41 275.03,-414.35"/>
<path fill="none" stroke="black" d="M83.03,-333.92C70.92,-300.29 114.46,-292.65 108.03,-257.49"/>
</g>
<!-- metadata_utilities_messages&#45;&gt;metadata_utilities_log_settings -->
<g id="edge20" class="edge">
<title>metadata_utilities_messages&#45;&gt;metadata_utilities_log_settings</title><style>.edge>path:hover{stroke-width:8}</style>
<path fill="none" stroke="black" d="M388.74,-471.49C399.93,-461.98 413.58,-450.39 425.66,-440.13"/>
<polygon fill="#10f9f9" stroke="black" points="427.97,-442.77 433.33,-433.62 423.44,-437.43 427.97,-442.77"/>
</g>
<!-- metadata_utilities_messages&#45;&gt;metadata_utilities_validate_schema -->
<g id="edge21" class="edge">
<title>metadata_utilities_messages&#45;&gt;metadata_utilities_validate_schema</title><style>.edge>path:hover{stroke-width:8}</style>
<path fill="none" stroke="black" d="M83.03,-333.92C81.72,-330.17 146.2,-250.12 181.55,-206.62"/>
<polygon fill="#10f9f9" stroke="black" points="184.4,-208.66 188,-198.7 178.97,-204.24 184.4,-208.66"/>
</g>
<!-- metadata_utilities_mu_logging&#45;&gt;edc_utilities_edc_lineage -->
<g id="edge22" class="edge">
<title>metadata_utilities_mu_logging&#45;&gt;edc_utilities_edc_lineage</title><style>.edge>path:hover{stroke-width:8}</style>
<path fill="none" stroke="black" d="M588.53,-319.7C557.89,-309.73 517.64,-295.09 484.03,-277.71 442.81,-256.38 399.37,-225.27 371.12,-203.71"/>
<polygon fill="#14b8b8" stroke="black" points="372.92,-200.68 362.86,-197.35 368.65,-206.22 372.92,-200.68"/>
</g>
<!-- metadata_utilities_mu_logging&#45;&gt;metadata_utilities_check_schema -->
<g id="edge23" class="edge">
<title>metadata_utilities_mu_logging&#45;&gt;metadata_utilities_check_schema</title><style>.edge>path:hover{stroke-width:8}</style>
<path fill="none" stroke="black" d="M657.03,-255.49C643.72,-212.08 595.3,-193.15 551.89,-184.98"/>
<polygon fill="#14b8b8" stroke="black" points="552.3,-181.5 541.86,-183.26 551.12,-188.4 552.3,-181.5"/>
<path fill="none" stroke="black" d="M647.91,-313.71C655.47,-298.25 662.84,-276.44 657.03,-257.49"/>
</g>
<!-- metadata_utilities_mu_logging&#45;&gt;metadata_utilities_generic_settings -->
<g id="edge24" class="edge">
<title>metadata_utilities_mu_logging&#45;&gt;metadata_utilities_generic_settings</title><style>.edge>path:hover{stroke-width:8}</style>
<path fill="none" stroke="black" d="M616.71,-314.24C607.79,-305.14 597.06,-294.2 587.4,-284.37"/>
<polygon fill="#14b8b8" stroke="black" points="589.78,-281.79 580.28,-277.11 584.78,-286.7 589.78,-281.79"/>
</g>
<!-- metadata_utilities_mu_logging&#45;&gt;metadata_utilities_load_json_metadata -->
<g id="edge25" class="edge">
<title>metadata_utilities_mu_logging&#45;&gt;metadata_utilities_load_json_metadata</title><style>.edge>path:hover{stroke-width:8}</style>
<path fill="none" stroke="black" d="M657.03,-255.49C647.07,-223.02 653.72,-212.87 657.03,-179.07"/>
</g>
<!-- metadata_utilities_tryout -->
<g id="node13" class="node">
<title>metadata_utilities_tryout</title><style>.edge>path:hover{stroke-width:8}</style>
<ellipse fill="#439d9d" stroke="black" cx="790.03" cy="-334.92" rx="67.76" ry="21.43"/>
<text text-anchor="middle" x="790.03" y="-337.92" font-family="Helvetica,sans-Serif" font-size="10.00" fill="#000000">metadata_utilities.</text>
<text text-anchor="middle" x="790.03" y="-326.92" font-family="Helvetica,sans-Serif" font-size="10.00" fill="#000000">tryout</text>
</g>
<!-- opencensus -->
<g id="node15" class="node">
<title>opencensus</title><style>.edge>path:hover{stroke-width:8}</style>
<ellipse fill="#853bce" stroke="black" cx="807.03" cy="-491.77" rx="40.74" ry="18"/>
<text text-anchor="middle" x="807.03" y="-489.27" font-family="Helvetica,sans-Serif" font-size="10.00" fill="#ffffff">opencensus</text>
</g>
<!-- opencensus&#45;&gt;metadata_utilities_mu_logging -->
<g id="edge26" class="edge">
<title>opencensus&#45;&gt;metadata_utilities_mu_logging</title><style>.edge>path:hover{stroke-width:8}</style>
<path fill="none" stroke="black" d="M790.03,-412.35C779.53,-392.89 729.62,-370.36 689.43,-354.83"/>
<polygon fill="#853bce" stroke="black" points="690.56,-351.52 679.97,-351.24 688.07,-358.06 690.56,-351.52"/>
<path fill="none" stroke="black" d="M805.92,-473.75C804.26,-457.62 800.16,-433.13 790.03,-414.35"/>
</g>
<!-- opencensus&#45;&gt;metadata_utilities_tryout -->
<g id="edge27" class="edge">
<title>opencensus&#45;&gt;metadata_utilities_tryout</title><style>.edge>path:hover{stroke-width:8}</style>
<path fill="none" stroke="black" d="M790.03,-412.35C782.58,-398.53 782.01,-381.17 783.56,-366.48"/>
<polygon fill="#853bce" stroke="black" points="787.06,-366.74 784.99,-356.35 780.13,-365.76 787.06,-366.74"/>
</g>
<!-- opencensus_ext -->
<g id="node16" class="node">
<title>opencensus_ext</title><style>.edge>path:hover{stroke-width:8}</style>
<ellipse fill="#853bce" stroke="black" cx="698.03" cy="-491.77" rx="50.75" ry="18"/>
<text text-anchor="middle" x="698.03" y="-489.27" font-family="Helvetica,sans-Serif" font-size="10.00" fill="#ffffff">opencensus.ext</text>
</g>
<!-- opencensus_ext&#45;&gt;metadata_utilities_mu_logging -->
<g id="edge28" class="edge">
<title>opencensus_ext&#45;&gt;metadata_utilities_mu_logging</title><style>.edge>path:hover{stroke-width:8}</style>
<path fill="none" stroke="black" d="M725.03,-412.35C727.24,-387.83 707.53,-369.43 686.1,-356.83"/>
<polygon fill="#853bce" stroke="black" points="687.65,-353.69 677.2,-351.96 684.29,-359.83 687.65,-353.69"/>
<path fill="none" stroke="black" d="M706.69,-474.03C713.83,-458.9 723.1,-435.79 725.03,-414.35"/>
</g>
<!-- opencensus_ext&#45;&gt;metadata_utilities_tryout -->
<g id="edge29" class="edge">
<title>opencensus_ext&#45;&gt;metadata_utilities_tryout</title><style>.edge>path:hover{stroke-width:8}</style>
<path fill="none" stroke="black" d="M725.03,-412.35C726.85,-392.15 740.46,-374.51 754.76,-361.29"/>
<polygon fill="#853bce" stroke="black" points="757.44,-363.6 762.7,-354.4 752.85,-358.31 757.44,-363.6"/>
</g>
<!-- opencensus_ext_azure -->
<g id="node17" class="node">
<title>opencensus_ext_azure</title><style>.edge>path:hover{stroke-width:8}</style>
<ellipse fill="#853bce" stroke="black" cx="658.03" cy="-577.98" rx="50.82" ry="28.98"/>
<text text-anchor="middle" x="658.03" y="-586.48" font-family="Helvetica,sans-Serif" font-size="10.00" fill="#ffffff">opencensus.</text>
<text text-anchor="middle" x="658.03" y="-575.48" font-family="Helvetica,sans-Serif" font-size="10.00" fill="#ffffff">ext.</text>
<text text-anchor="middle" x="658.03" y="-564.48" font-family="Helvetica,sans-Serif" font-size="10.00" fill="#ffffff">azure</text>
</g>
<!-- opencensus_ext_azure&#45;&gt;metadata_utilities_mu_logging -->
<g id="edge30" class="edge">
<title>opencensus_ext_azure&#45;&gt;metadata_utilities_mu_logging</title><style>.edge>path:hover{stroke-width:8}</style>
<path fill="none" stroke="black" d="M638.94,-551.08C629.03,-535.1 618.97,-513.72 619.03,-492.77"/>
</g>
<!-- opencensus_ext_azure&#45;&gt;metadata_utilities_tryout -->
<g id="edge31" class="edge">
<title>opencensus_ext_azure&#45;&gt;metadata_utilities_tryout</title><style>.edge>path:hover{stroke-width:8}</style>
<path fill="none" stroke="black" d="M876.03,-490.77C898.54,-444.26 854.45,-392.09 821.49,-361.73"/>
<polygon fill="#853bce" stroke="black" points="823.6,-358.93 813.82,-354.87 818.94,-364.14 823.6,-358.93"/>
<path fill="none" stroke="black" d="M709,-576.43C765.24,-572.59 851.11,-556.1 876.03,-492.77"/>
</g>
<!-- opencensus_ext_azure_log_exporter -->
<g id="node18" class="node">
<title>opencensus_ext_azure_log_exporter</title><style>.edge>path:hover{stroke-width:8}</style>
<ellipse fill="#753ab0" stroke="black" cx="747.03" cy="-679.74" rx="50.82" ry="36.54"/>
<text text-anchor="middle" x="747.03" y="-693.74" font-family="Helvetica,sans-Serif" font-size="10.00" fill="#ffffff">opencensus.</text>
<text text-anchor="middle" x="747.03" y="-682.74" font-family="Helvetica,sans-Serif" font-size="10.00" fill="#ffffff">ext.</text>
<text text-anchor="middle" x="747.03" y="-671.74" font-family="Helvetica,sans-Serif" font-size="10.00" fill="#ffffff">azure.</text>
<text text-anchor="middle" x="747.03" y="-660.74" font-family="Helvetica,sans-Serif" font-size="10.00" fill="#ffffff">log_exporter</text>
</g>
<!-- opencensus_ext_azure_log_exporter&#45;&gt;metadata_utilities_mu_logging -->
<g id="edge32" class="edge">
<title>opencensus_ext_azure_log_exporter&#45;&gt;metadata_utilities_mu_logging</title><style>.edge>path:hover{stroke-width:8}</style>
<path fill="none" stroke="black" d="M619.03,-490.77C619.15,-447.47 625.77,-397.75 630.71,-366.59"/>
<polygon fill="#753ab0" stroke="black" points="634.22,-366.81 632.38,-356.38 627.32,-365.69 634.22,-366.81"/>
<path fill="none" stroke="black" d="M697.97,-669.35C663.5,-659.93 619.8,-641.61 598.03,-606.97 584.32,-585.15 593.45,-574.34 598.03,-548.98 602.77,-522.74 618.1,-519.43 619.03,-492.77"/>
</g>
<!-- opencensus_ext_azure_log_exporter&#45;&gt;metadata_utilities_tryout -->
<g id="edge33" class="edge">
<title>opencensus_ext_azure_log_exporter&#45;&gt;metadata_utilities_tryout</title><style>.edge>path:hover{stroke-width:8}</style>
<path fill="none" stroke="black" d="M774.52,-648.76C804.71,-614 852.07,-553.65 876.03,-492.77"/>
</g>
</g>
</svg>
